<svg width="108" height="109" viewBox="0 0 108 109" fill="none" xmlns="http://www.w3.org/2000/svg">
<path d="M24 25.5C51.6 41.9 75.5 32.3333 84 25.5C66.4 48.3 76.6667 75 84 85.5C60 65.9 34 77.3333 24 85.5C42 57.5 31.5 33.8333 24 25.5Z" fill="white" fill-opacity="0.8"/>
<path d="M0 0C9.2 6.4 17.1667 2.66667 20 0C14 9.2 17.5 17.1667 20 20C14.4 14.8 4.33333 17.8333 0 20C6.8 10.8 2.83333 2.83333 0 0Z" fill="white" fill-opacity="0.8"/>
<path d="M88 89C97.2 95.4 105.167 91.6667 108 89C102 98.2 105.5 106.167 108 109C102.4 103.8 92.3333 106.833 88 109C94.8 99.8 90.8333 91.8333 88 89Z" fill="white" fill-opacity="0.8"/>
</svg>
