<svg width="175" height="191" viewBox="0 0 175 191" fill="none" xmlns="http://www.w3.org/2000/svg">
<g clip-path="url(#clip0_1_427)">
<path opacity="0.35" d="M15.1547 188.292C15.1547 188.292 139.152 193.46 169.032 188.292C171.235 187.909 171.083 184.892 153.763 185.472C136.443 186.051 87.9102 187.178 64.2586 185.916C40.607 184.649 14.4558 185.385 10.9325 186.191C7.40927 186.997 11.8699 188.28 15.1629 188.292H15.1547Z" fill="#27AE76"/>
<path opacity="0.82" d="M83.0419 140.199C118.989 140.199 148.13 112.411 148.13 78.1329C148.13 43.8546 118.989 16.0665 83.0419 16.0665C47.0947 16.0665 17.9538 43.8546 17.9538 78.1329C17.9538 112.411 47.0947 140.199 83.0419 140.199Z" fill="#B8FFB8"/>
<path opacity="0.81" d="M52.6608 70.9425C73.2046 70.9425 89.8587 55.0614 89.8587 35.4712C89.8587 15.881 73.2046 0 52.6608 0C32.117 0 15.4629 15.881 15.4629 35.4712C15.4629 55.0614 32.117 70.9425 52.6608 70.9425Z" fill="#DCFFE0"/>
<path opacity="0.81" d="M108.901 122.402C121.062 122.402 130.921 113 130.921 101.402C130.921 89.8043 121.062 80.4023 108.901 80.4023C96.7403 80.4023 86.8819 89.8043 86.8819 101.402C86.8819 113 96.7403 122.402 108.901 122.402Z" fill="#FCDBD2"/>
<path d="M29.1615 116.433L28.2859 127.841L27.8131 133.983L0.000976562 129.827L1.9209 120.848L3.66403 112.708L29.1615 116.433Z" fill="#17CC7B"/>
<path d="M28.2859 127.841L27.8131 133.983L0.000976562 129.827L1.9209 120.848C4.24371 123.372 8.34666 126.345 15.2411 127.451C21.6833 128.487 25.7904 128.289 28.2818 127.837L28.2859 127.841Z" fill="#BCFFAE"/>
<path d="M12.5366 114.994L13.0382 111.306C13.3588 108.946 15.5789 107.318 17.9428 107.709C20.3478 108.103 21.9224 110.426 21.3921 112.786L20.5534 116.531" stroke="#27AE76" stroke-width="0.411118" stroke-miterlimit="10"/>
<path d="M13.3047 115.38C13.3047 115.836 12.9594 116.206 12.5359 116.206C12.1125 116.206 11.7671 115.836 11.7671 115.38C11.7671 114.924 12.1125 114.554 12.5359 114.554C12.9594 114.554 13.3047 114.924 13.3047 115.38Z" fill="#F7D6CB"/>
<path d="M21.3218 116.634C21.3218 117.09 20.9765 117.46 20.553 117.46C20.1296 117.46 19.7842 117.09 19.7842 116.634C19.7842 116.178 20.1296 115.808 20.553 115.808C20.9765 115.808 21.3218 116.178 21.3218 116.634Z" fill="#F7D6CB"/>
<path d="M172.017 94.1052L152.49 85.6067C149.992 84.5194 147.085 85.6632 145.998 88.1615L140.493 100.809C139.406 103.307 140.55 106.214 143.048 107.301L162.575 115.799C165.073 116.887 167.98 115.743 169.067 113.245L174.571 100.598C175.659 98.0993 174.515 95.1926 172.017 94.1052Z" fill="#57C491"/>
<path d="M148.694 87.4077L155.597 97.1019C156.867 98.8861 159.063 99.77 161.213 99.3671L172.535 97.2375" stroke="#F7D6CB" stroke-width="0.411118" stroke-miterlimit="10"/>
<path d="M166.157 113.189L159.255 103.495C157.984 101.711 155.789 100.827 153.639 101.23L142.317 103.359" stroke="#F7D6CB" stroke-width="0.411118" stroke-miterlimit="10"/>
<path d="M151.255 86.7335L172.543 95.996" stroke="#F7D6CB" stroke-width="0.411118" stroke-miterlimit="10"/>
<path d="M163.172 90.255L161.008 89.3132L151.395 111.399L153.559 112.341L163.172 90.255Z" fill="#FFE9E1"/>
<path d="M172.509 105.34L143.936 92.9042L143.247 94.4874L171.82 106.924L172.509 105.34Z" fill="#FFE9E1"/>
<path d="M155.231 89.2938L152.476 88.0945C152.201 87.9749 151.881 88.1007 151.762 88.3755L151.241 89.5705C151.122 89.8453 151.248 90.165 151.522 90.2846L154.278 91.484C154.553 91.6036 154.873 91.4777 154.992 91.2029L155.512 90.008C155.632 89.7331 155.506 89.4134 155.231 89.2938Z" fill="#F7D6CB"/>
<path opacity="0.27" d="M142.564 124.236C142.564 125.683 141.392 126.854 139.945 126.854C138.498 126.854 137.326 125.683 137.326 124.236C137.326 122.789 138.498 121.617 139.945 121.617C141.392 121.617 142.564 122.789 142.564 124.236Z" fill="#27AE76"/>
<path opacity="0.27" d="M15.1551 58.6582C15.1551 60.1054 13.9834 61.2771 12.5362 61.2771C11.0891 61.2771 9.91742 60.1054 9.91742 58.6582C9.91742 57.2111 11.0891 56.0394 12.5362 56.0394C13.9834 56.0394 15.1551 57.2111 15.1551 58.6582Z" fill="#27AE76"/>
<path opacity="0.27" d="M139.944 33.3787C139.944 34.8258 138.773 35.9975 137.326 35.9975C135.878 35.9975 134.707 34.8258 134.707 33.3787C134.707 31.9316 135.878 30.7599 137.326 30.7599C138.773 30.7599 139.944 31.9316 139.944 33.3787Z" fill="#27AE76"/>
<path opacity="0.27" d="M148.694 40.2854C148.694 41.2104 147.946 41.9587 147.021 41.9587C146.096 41.9587 145.348 41.2104 145.348 40.2854C145.348 39.3604 146.096 38.6122 147.021 38.6122C147.946 38.6122 148.694 39.3604 148.694 40.2854Z" fill="#27AE76"/>
<path opacity="0.27" d="M60.4884 146.35C60.4884 147.308 59.7114 148.089 58.7494 148.089C57.7874 148.089 57.0103 147.312 57.0103 146.35C57.0103 145.388 57.7874 144.611 58.7494 144.611C59.7114 144.611 60.4884 145.388 60.4884 146.35Z" fill="#27AE76"/>
<path opacity="0.27" d="M106.172 150.465C107.788 150.465 109.099 149.154 109.099 147.538C109.099 145.921 107.788 144.611 106.172 144.611C104.555 144.611 103.245 145.921 103.245 147.538C103.245 149.154 104.555 150.465 106.172 150.465Z" fill="#27AE76"/>
<g opacity="0.73">
<path d="M90.3239 5.94897C86.2169 2.23657 79.8363 2.23657 75.7293 5.94897C73.612 7.86066 71.9182 10.8824 72.1443 15.6349C72.7117 27.5162 83.0266 37.5105 83.0266 37.5105C83.0266 37.5105 93.3415 27.5121 93.9089 15.6349C94.135 10.8824 92.4412 7.86477 90.3239 5.94897Z" fill="#27AE76"/>
<path d="M83.0062 20.4736C86.4211 20.4736 89.1894 17.7053 89.1894 14.2904C89.1894 10.8755 86.4211 8.10718 83.0062 8.10718C79.5913 8.10718 76.823 10.8755 76.823 14.2904C76.823 17.7053 79.5913 20.4736 83.0062 20.4736Z" fill="#FFE9E1"/>
</g>
<path d="M112.823 60.5825V71.0619L112.614 71.1318C111.607 71.4689 107.154 72.8873 103.898 73.0147C103.211 73.0435 102.175 72.5543 100.946 71.7485C96.3294 68.7103 88.9786 61.117 87.0176 59.0573C85.1141 58.7243 83.7697 58.0994 83.7697 58.0994L84.9538 50.4197C84.9538 50.4197 83.9876 50.0661 83.5149 49.0877C83.0462 48.1092 83.408 47.4226 84.4234 47.8543C85.4348 48.2901 87.3917 47.6734 88.1481 48.9438C88.7073 49.8688 89.8831 52.3684 90.4751 53.6387L105.563 63.6001L109.843 61.8241L112.811 60.5866H112.823V60.5825Z" fill="#FF9067"/>
<path d="M81.9858 48.2449C81.9858 48.2449 81.0361 47.9201 80.3577 48.9232C79.6794 49.9263 80.4646 50.9336 81.3609 51.394C82.2571 51.8545 85.7598 53.4825 86.2737 52.4259C86.7876 51.3653 85.3323 50.2922 84.7526 50.0086C84.7526 50.0086 83.3589 49.4947 83.2438 48.6519L81.9858 48.2449Z" fill="#FF9067"/>
<path d="M80.5792 50.687C80.5792 50.687 79.8433 51.8874 80.3038 53.1331C80.7642 54.3788 83.0994 54.9297 84.1025 55.2545C85.1057 55.5793 86.1951 54.6501 86.3842 53.9471C86.5733 53.24 85.6894 52.6521 85.6894 52.6521C85.6894 52.6521 81.2864 51.0899 80.5792 50.6829V50.687Z" fill="#FF9067"/>
<path d="M80.5759 53.5934C80.5759 53.5934 80.3046 55.3859 80.9295 56.1464C81.5543 56.907 83.9717 57.0139 84.5144 56.8535C85.0571 56.6932 85.5751 56.093 85.5751 55.7394C85.5751 55.3859 85.0859 55.1926 85.0859 55.1926C85.0859 55.1926 84.7076 55.3612 83.54 55.0364C82.3725 54.7116 80.58 53.5975 80.58 53.5975L80.5759 53.5934Z" fill="#FF9067"/>
<path d="M112.811 60.5867L112.614 71.1318C111.607 71.469 107.154 72.8873 103.898 73.0148C103.212 73.0435 102.176 72.5543 100.946 71.7485C101.74 71.4196 103.166 70.9139 104.309 71.0044C105.982 71.136 106.2 71.9746 107.919 71.2675C109.382 70.6673 109.761 63.8345 109.843 61.8241L112.811 60.5867Z" fill="#DD704E"/>
<path d="M81.5625 56.5578C81.5625 56.5578 81.7146 57.5321 82.6684 58.046C83.6181 58.5599 84.9748 58.2105 85.4393 57.8816C85.8998 57.5568 85.9532 57.2772 85.7641 56.9155C85.575 56.5496 84.9419 56.4221 84.9419 56.4221C84.9419 56.4221 83.6345 57.343 81.5625 56.5537V56.5578Z" fill="#FF9067"/>
<path d="M83.3965 47.9735C83.3965 47.9735 84.6668 49.4165 86.41 49.5645C88.1531 49.7166 89.0041 53.1495 89.0658 54.0909C89.1233 55.0324 88.6834 55.8135 88.6834 55.8135C88.6834 55.8135 90.1799 56.5289 90.0031 57.0839C89.8263 57.643 88.1243 56.5535 87.5529 56.792C86.9814 57.0263 86.0194 58.5516 85.3123 58.6543C84.601 58.7571 84.0173 56.2822 83.9145 54.6583C83.8117 53.0344 84.5312 52.2985 84.231 51.3611C83.9309 50.4197 82.3111 48.5491 83.4006 47.9735H83.3965Z" fill="#DD704E"/>
<path d="M81.0069 50.8884C81.0069 50.8884 83.2475 51.9039 84.5055 52.2287C85.7635 52.5535 86.6885 51.7148 86.6022 51.3324" stroke="#B55039" stroke-width="0.411118" stroke-miterlimit="10" stroke-linecap="round"/>
<path d="M84.2318 49.7618L86.5382 50.4649L86.6122 50.4854C86.6122 50.4854 86.5053 52.5328 87.5619 53.5318" stroke="#B55039" stroke-width="0.411118" stroke-miterlimit="10" stroke-linecap="round"/>
<path d="M81.0069 53.7538C81.0069 53.7538 82.9145 54.3911 83.9135 54.6583C84.9125 54.9296 85.9609 54.4568 86.1294 53.8854C86.298 53.3139 85.9979 52.6849 85.4963 52.4917" stroke="#B55039" stroke-width="0.411118" stroke-miterlimit="10" stroke-linecap="round"/>
<path d="M82.2518 56.5865C82.2518 56.5865 83.9251 56.9976 84.439 56.866C84.9529 56.7345 85.7833 56.0438 85.6888 55.5011C85.5901 54.9585 85.1749 54.7365 85.1749 54.7365" stroke="#B55039" stroke-width="0.411118" stroke-miterlimit="10" stroke-linecap="round"/>
<path d="M85.2185 56.5124C85.2185 56.5124 85.9421 56.4754 85.7817 57.3675C85.6214 58.2638 84.2318 58.309 84.2318 58.309" stroke="#B55039" stroke-width="0.411118" stroke-miterlimit="10" stroke-linecap="round"/>
<path d="M105.247 64.6321C105.247 64.6321 104.544 67.773 104.717 69.3599" stroke="#B55039" stroke-width="0.411118" stroke-miterlimit="10" stroke-linecap="round"/>
<path d="M121.658 147.427L135.874 174.158L145.704 167.325C145.704 167.325 137.7 149.437 135.874 145.014C134.049 140.59 131.521 135.073 131.521 135.073C131.521 135.073 133.95 97.3692 133.95 93.5746H122.871C119.195 107.988 120.996 143.817 121.654 147.423L121.658 147.427Z" fill="#6D0A0A"/>
<path d="M111.796 89.9034V93.5746H133.955V89.78L111.796 89.9034Z" fill="#6D0A0A"/>
<path d="M125.42 32.3468L126.986 38.8713L116.803 41.3544L116.589 40.2608L115.89 36.7211C115.89 36.7211 113.571 37.1939 111.639 37.124H111.61C110.426 37.0788 109.39 36.8239 109.135 36.1332C108.449 34.3037 108.124 29.7362 108.124 29.7362L107.532 28.5522C107.24 27.9725 107.454 27.2777 108.005 26.9365C108.243 26.7885 108.502 26.5953 108.773 26.3404C109.756 25.4277 109.559 23.6023 109.949 20.8602C110.34 18.118 111.322 16.2886 111.322 16.2886C111.322 16.2886 114.78 14.2659 119.347 14.5948C123.919 14.9195 127.899 17.5959 127.899 21.9044C127.899 26.2129 125.42 32.3468 125.42 32.3468Z" fill="#FF9067"/>
<path d="M122.32 34.7107C120.285 37.2267 117.843 39.9935 117 40.2608C116.906 40.2895 116.762 40.2895 116.589 40.2608L115.89 36.721C115.89 36.721 113.571 37.1938 111.639 37.1239L111.532 36.5155C111.532 36.5155 116.601 35.6521 118.468 33.8843C120.334 32.1165 120.61 30.7886 120.61 30.7886C120.61 30.7886 122.304 30.435 123.414 30.7886C124.524 31.1422 124.351 32.1905 122.32 34.7107Z" fill="#DD704E"/>
<path d="M128.207 38.1723C128.207 38.1723 127.257 35.681 126.69 35.4795C126.122 35.2781 116.412 38.4149 116.017 38.7109C115.622 39.0069 115.528 42.7234 115.528 42.7234L128.207 38.1723Z" fill="#FEDC97"/>
<path d="M134.916 89.2537C134.863 90.2815 134.012 91.0873 132.98 91.0873H112.675C111.602 91.0873 110.734 90.2198 110.734 89.1468C110.734 88.5137 110.747 87.7696 110.767 86.9268C110.989 77.9357 112.227 58.2925 112.177 54.6582C112.112 50.0249 115.532 42.7234 115.532 42.7234L128.203 38.1724H128.207C128.207 38.1724 133.321 41.0749 135.077 46.7072C136.762 52.101 135.327 81.5658 134.916 89.2537Z" fill="#FFBB4C"/>
<path d="M119.935 32.4742C119.935 32.4742 119.738 34.5997 117 36.0674" stroke="#B55039" stroke-width="0.411118" stroke-linecap="round" stroke-linejoin="round"/>
<path d="M116.248 31.6891C115.891 34.1352 114.592 36.4416 111.619 37.1241H111.611C110.596 37.0871 109.687 36.8938 109.292 36.4005C109.222 36.3183 109.173 36.2319 109.136 36.1333C108.602 34.7149 108.289 31.648 108.174 30.3447C108.141 29.9665 108.125 29.7363 108.125 29.7363L107.533 28.5523C107.368 28.2275 107.364 27.8616 107.492 27.5491C107.59 27.3025 107.767 27.0846 108.006 26.9366C108.244 26.7886 108.503 26.5953 108.774 26.3405C108.774 26.3405 111.027 27.6149 113.445 28.2028C113.852 28.3015 114.209 28.396 114.526 28.5029C116.08 28.9963 116.544 29.65 116.248 31.6891Z" fill="#FEDC97"/>
<path d="M97.7023 59.3943H72.324C69.5993 59.3943 67.3906 61.6031 67.3906 64.3277V81.2205C67.3906 83.9452 69.5993 86.1539 72.324 86.1539H97.7023C100.427 86.1539 102.636 83.9452 102.636 81.2205V64.3277C102.636 61.6031 100.427 59.3943 97.7023 59.3943Z" fill="#690505"/>
<path d="M69.8449 62.9751L81.3809 69.9107C83.5064 71.1893 86.1786 71.1153 88.226 69.7216L99.0055 62.4037" stroke="#222221" stroke-width="0.411118" stroke-miterlimit="10"/>
<path d="M99.5935 81.8289L88.0576 74.8934C85.9321 73.6148 83.2598 73.6888 81.2125 75.0825L70.433 82.4004" stroke="#222221" stroke-width="0.411118" stroke-miterlimit="10"/>
<path d="M72.197 61.121H98.4509" stroke="#222221" stroke-width="0.411118" stroke-miterlimit="10"/>
<path d="M86.1416 59.3942H83.4734V86.6389H86.1416V59.3942Z" fill="#934242"/>
<path d="M102.636 70.8235H67.3905V72.7763H102.636V70.8235Z" fill="#934242"/>
<path d="M74.0089 61.9802H77.5486C77.8487 61.9802 78.0913 62.2228 78.0913 62.5229V64.1386C78.0913 64.4387 77.8487 64.6813 77.5486 64.6813H74.0089C73.7088 64.6813 73.4662 64.4387 73.4662 64.1386V62.5229C73.4662 62.2228 73.7088 61.9802 74.0089 61.9802Z" fill="#892424"/>
<path d="M122.065 30.7557L125.539 32.0302C125.539 32.0302 128.762 28.0547 129.305 22.8088C129.848 17.5588 125.539 15.3511 125.539 15.3511C121.629 11.5524 113.921 12.3459 110.698 13.5792C107.475 14.8085 106.57 18.2125 107.396 19.3719C108.223 20.5312 109.214 18.8662 109.214 18.8662C109.214 18.8662 108.926 20.6052 110.118 21.0369C111.314 21.4727 111.709 19.4459 111.709 19.4459C111.709 19.4459 111.82 21.1479 112.552 21.5796C113.284 22.0154 113.802 20.2763 113.802 20.2763C114.262 21.8674 116.622 22.3114 116.622 22.3114C116.622 22.3114 116.832 24.0257 117.65 24.7123C118.468 25.3989 118.932 25.5181 118.932 25.5181L118.665 28.1616C118.665 28.1616 118.838 28.4288 119.545 27.6723C120.252 26.9159 120.375 26.0073 120.375 26.0073C120.375 26.0073 120.651 24.3505 122.016 24.3423C123.381 24.3341 123.471 25.6825 123.414 26.3403C123.356 26.9981 122.99 28.5028 122.982 28.77C122.974 29.0331 122.645 30.3898 122.065 30.7557Z" fill="#680304"/>
<path d="M120.28 31.4671L120.428 30.9038C120.428 30.9038 121.164 31.6151 122.069 30.7558C122.973 29.8966 122.702 28.2604 123.216 26.9859C123.73 25.7114 123.216 24.1697 122.015 24.3424C120.815 24.5151 120.716 25.5182 120.716 25.5182" stroke="#B55039" stroke-width="0.411118" stroke-miterlimit="10" stroke-linecap="round"/>
<path d="M122.802 25.4442C122.802 25.4442 122.851 25.0289 122.239 25.0289C121.626 25.0289 121.038 25.9827 121.088 26.8666C121.137 27.7464 121.351 27.8451 121.088 28.2603C120.825 28.6755 120.553 28.5275 120.627 29.2881C120.701 30.0487 121.314 30.0939 121.507 29.9007C121.704 29.7033 121.384 29.0702 121.384 29.0702" stroke="#B55039" stroke-width="0.411118" stroke-miterlimit="10" stroke-linecap="round"/>
<path d="M121.6 26.0074C121.6 26.0074 122.406 26.7187 122.312 27.5121" stroke="#B55039" stroke-width="0.411118" stroke-miterlimit="10" stroke-linecap="round"/>
<path d="M120.959 31.1586C120.959 31.1586 119.397 34.5174 114.505 35.5945" stroke="#222221" stroke-width="0.411118" stroke-miterlimit="10"/>
<path d="M113.805 25.2591C113.805 25.2591 113.559 24.6013 112.778 24.5026C111.992 24.4039 111.713 25.1645 111.713 25.1645" stroke="#222221" stroke-width="0.411118" stroke-miterlimit="10"/>
<path d="M131.295 56.1052C130.773 61.458 129.975 71.3207 129.453 74.7165C129.239 76.1102 129.149 77.6355 128.881 79.0045C128.499 80.9614 127.755 82.61 125.761 83.1485C125.662 83.1773 125.547 83.2061 125.416 83.239C124.988 83.3541 124.4 83.5103 123.681 83.6994C118.209 85.1219 105.312 88.3903 101.143 88.9659C101.008 89.0481 100.864 89.1344 100.712 89.229H100.708C99.5935 89.895 98.0518 90.7748 96.6745 91.4079C95.8029 91.8149 94.9972 92.1191 94.4134 92.2055C92.1481 92.5508 90.9518 91.3873 90.9518 91.3873L89.7595 91.1366C88.5632 90.8858 87.9342 89.7552 87.9342 89.7552C86.9598 89.6278 86.2979 88.3368 87.0831 88.0532C87.8725 87.7736 88.3412 88.2752 89.5704 88.2752C89.813 88.2752 90.0637 88.2423 90.3145 88.193C91.2683 87.9956 92.181 87.5228 92.292 87.4612L90.3022 87.749L90.2282 87.7613C90.2282 87.7613 87.8396 87.4571 87.2723 87.2679C86.709 87.0788 86.265 86.0757 87.2723 85.7591C87.7163 85.6194 88.3905 85.6235 89.11 85.6317C90.0144 85.6399 90.9929 85.6605 91.6753 85.4138C92.9005 84.9739 94.882 83.8721 94.6436 83.7488C94.475 83.6583 93.6528 83.757 92.7607 83.8433C92.3866 83.8803 91.996 83.9173 91.6424 83.9338C90.4502 83.9996 89.9157 82.6758 90.7626 82.5195C91.5726 82.3715 93.069 81.7631 94.4627 81.574C94.5285 81.5616 94.5984 81.5534 94.6642 81.5452C96.1113 81.389 100.222 82.3674 100.35 82.425L118.468 74.511C118.468 74.511 118.435 59.1064 118.468 58.5843C118.501 58.0622 117.391 49.0546 118.468 46.444L131.295 47.6527C131.295 47.6527 131.817 50.7525 131.295 56.1052Z" fill="#FF9067"/>
<path d="M131.525 63.312L117.649 63.7889C117.649 63.7889 117.477 62.3295 117.316 60.2698C117.148 58.1073 116.996 55.2788 117.07 52.7751C117.135 50.6578 117.403 48.9024 117.686 47.5909C118.134 45.5107 119.672 43.821 121.707 43.2084C122.961 42.8302 124.137 42.6657 125.206 42.6863C128.54 42.7397 130.883 44.5774 131.525 47.336C132.129 49.9343 131.525 63.312 131.525 63.312Z" fill="#FEDC97"/>
<path d="M131.525 63.3122L117.65 63.7891C117.65 63.7891 117.477 62.3296 117.317 60.2699C118.37 60.4549 119.632 60.5495 120.96 60.3686C124.392 59.904 124.471 60.5536 126.987 59.9657C129.503 59.3778 127.18 56.4095 128.208 53.5317C129.239 50.6539 128.976 47.5705 125.803 43.6936C125.474 43.2866 125.28 42.9536 125.206 42.6864C128.541 42.7398 130.884 44.5775 131.525 47.3361C132.13 49.9344 131.525 63.3122 131.525 63.3122Z" fill="#F4CE89"/>
<path d="M133.954 93.5746C133.954 93.5746 133.909 94.368 133.818 96.0742C133.703 98.2079 133.506 101.776 133.206 107.01C133.198 107.211 133.185 107.417 133.173 107.627C133.132 108.358 133.07 109.127 132.988 109.921C132.166 117.995 129.506 128.783 128.56 132.462C128.351 133.289 128.223 133.757 128.223 133.757C128.223 133.757 128.244 134.941 128.264 136.705C128.31 140.524 128.359 147.073 128.223 150.239C128.083 153.437 128.137 164.821 128.182 171.527C128.203 174.511 128.223 176.567 128.223 176.567H114.554C114.554 176.567 114.471 174.853 114.348 172.127C113.871 161.911 112.745 137.47 112.745 135.566C112.745 133.153 111.741 119.487 111.795 112.453C111.836 107.261 111.815 99.4495 111.803 95.7124C111.799 94.3886 111.795 93.5746 111.795 93.5746H133.954Z" fill="#DE7B53"/>
<path d="M125.12 187.285C123.537 187.511 112.153 187.243 111.023 187.285C109.892 187.322 106.2 187.659 105.259 187.058C104.317 186.454 106.052 185.398 106.279 184.908C106.501 184.419 107.294 184.119 108.499 183.741C109.707 183.363 117.695 179.708 117.695 179.708L117.621 177.743L117.58 176.567H126.288C126.288 176.567 126.345 177.175 126.431 178.063C126.596 179.773 126.867 182.516 127.04 184.004C127.303 186.265 126.703 187.058 125.12 187.285Z" fill="#FF9067"/>
<path d="M127.607 187.659C127.265 187.922 105.937 188.715 103.639 188C102.968 187.79 103.079 186.894 103.696 185.78C105.168 183.083 109.563 179.12 112.757 180.612C113.822 181.11 114.34 183.136 114.907 184.797C115.47 186.454 126.439 185.287 127.344 186.039C127.664 186.306 127.833 186.553 127.899 186.771C128.03 187.178 127.825 187.49 127.607 187.659Z" fill="#007095"/>
<path d="M137.329 173.146C137.329 173.146 139.377 174.807 139.377 176.164C139.377 177.521 138.353 181.188 138.353 181.188L142.694 183.4C142.694 183.4 147.718 179.728 149.577 178.273C151.435 176.818 150.983 174.959 150.28 174.154C149.577 173.348 145.174 168.715 144.812 167.942L137.329 173.142V173.146Z" fill="#DD704E"/>
<path d="M138.222 177.927C138.222 177.927 142.14 180.341 143.098 180.892C144.056 181.443 151.238 174.963 151.842 175.263C152.447 175.564 152.796 176.168 152.393 176.822C151.99 177.475 145.158 183.404 142.744 185.315C140.089 187.416 133.174 188.296 132.643 186.956C132.253 185.969 133.396 183.342 134.703 181.336C136.01 179.325 136.812 177.779 138.222 177.932V177.927Z" fill="#015D75"/>
<path d="M126.612 133.868L124.404 134.46" stroke="#222221" stroke-width="0.411118" stroke-miterlimit="10"/>
<path d="M125.185 15.6512C125.185 15.6512 122.25 15.7376 121.074 16.1816" stroke="#510307" stroke-width="0.411118" stroke-miterlimit="10"/>
<path d="M87.2723 85.7592C87.7163 85.6194 88.3905 85.6235 89.11 85.6318C89.5581 85.9031 89.9363 86.195 90.0802 86.4663C90.2611 86.8076 90.2899 87.2557 90.3022 87.749L90.2282 87.7614C90.2282 87.7614 87.8396 87.4571 87.2723 87.268C86.709 87.0789 86.265 86.0758 87.2723 85.7592Z" fill="#DD704E"/>
<path d="M96.6741 91.408C95.8025 91.815 94.9967 92.1192 94.4129 92.2056C92.1477 92.5509 90.9513 91.3874 90.9513 91.3874L89.7591 91.1366C88.5627 90.8859 87.9337 89.7553 87.9337 89.7553C86.9594 89.6278 86.2975 88.3369 87.0827 88.0533C87.8721 87.7737 88.3407 88.2753 89.57 88.2753C89.8125 88.2753 90.0633 88.2424 90.3141 88.193C90.3305 88.7933 90.3922 89.4305 90.7005 89.9937C91.2309 90.9434 94.8569 91.3504 96.6741 91.408Z" fill="#DD704E"/>
<path d="M128.389 100.078C128.857 103.367 128.504 102.895 129.326 105.127C129.865 106.586 131.858 106.94 133.207 107.01C133.199 107.211 133.186 107.417 133.174 107.627C133.133 108.358 133.071 109.127 132.989 109.921C131.049 110.167 127.895 109.982 127.566 110.895C127.094 112.198 126.978 114.172 125.511 117.695C124.039 121.218 123.69 131.204 124.405 132.495C124.919 133.428 127.254 132.771 128.561 132.462C128.352 133.289 128.224 133.757 128.224 133.757C128.224 133.757 128.245 134.941 128.265 136.705C126.761 137.609 123.977 138.292 123.805 139.661C123.57 141.54 123.102 145.182 123.924 149.762C124.746 154.346 122.982 165.738 124.405 169.364C125.161 171.296 126.81 171.633 128.183 171.527C128.204 174.511 128.224 176.567 128.224 176.567H114.555C114.555 176.567 114.472 174.853 114.349 172.127C115.977 171.601 119.093 170.264 119.693 167.559C120.516 163.859 118.522 149.647 118.522 147.53C118.522 145.412 119.11 138.839 118.403 137.013C117.7 135.184 118.522 133.552 118.637 132.026C118.756 130.501 118.049 129.56 118.871 121.925C119.693 114.291 122.045 101.723 120.047 99.0178C118.361 96.7402 113.333 95.9138 111.804 95.7124C111.8 94.3886 111.796 93.5746 111.796 93.5746H133.955C133.955 93.5746 133.91 94.368 133.819 96.0742C131.493 96.658 128.072 97.8913 128.389 100.078Z" fill="#C96647"/>
<path d="M119.458 75.4113C119.458 75.4113 121.571 77.1749 122.102 78.2315" stroke="#B55039" stroke-width="0.411118" stroke-miterlimit="10" stroke-linecap="round"/>
<path d="M88.7158 89.8868C88.7158 89.8868 90.274 90.1499 91.5936 89.8868C92.9133 89.6237 93.826 88.8302 93.826 88.8302" stroke="#B55039" stroke-width="0.411118" stroke-miterlimit="10" stroke-linecap="round"/>
<path d="M91.593 91.3874C91.593 91.3874 92.6783 91.4449 93.3238 91.1818C93.9692 90.9187 94.4708 90.2404 94.4708 90.2404" stroke="#B55039" stroke-width="0.411118" stroke-miterlimit="10" stroke-linecap="round"/>
<path d="M114.924 172.978L126.818 173.154" stroke="#6D0A0A" stroke-width="0.411118" stroke-linecap="round" stroke-linejoin="round"/>
<path d="M120.633 93.7924C120.633 93.7924 120.588 96.4646 123.301 97.5212" stroke="#6D0A0A" stroke-width="0.411118" stroke-linecap="round" stroke-linejoin="round"/>
<path d="M124.746 93.7924C124.746 93.7924 124.306 101.044 123.689 106.685C123.073 112.321 121.046 130.735 121.046 130.735C121.046 130.735 121.749 131.792 121.399 132.322C121.046 132.853 121.486 133.868 121.486 133.868C121.486 133.868 121.749 134.83 121.399 135.073C121.046 135.315 122.37 166.943 121.486 172.978" stroke="#6D0A0A" stroke-width="0.411118" stroke-linecap="round" stroke-linejoin="round"/>
<path d="M118.431 62.5474C118.431 62.5474 127.973 62.3419 130.234 62.3131" stroke="#E98C00" stroke-width="0.411118" stroke-miterlimit="10" stroke-linecap="round"/>
<path d="M133.629 95.1449H132.059C132.059 95.1449 131.257 102.237 131.524 104.527C131.791 106.817 132.864 107.565 132.864 107.565" stroke="#6D0A0A" stroke-width="0.411118" stroke-linecap="round" stroke-linejoin="round"/>
<path d="M117.053 42.1766L126.986 38.8712" stroke="#E98C00" stroke-width="0.411118" stroke-miterlimit="10" stroke-linecap="round"/>
<path d="M134.916 89.2537C134.863 90.2815 134.012 91.0873 132.98 91.0873H112.675C111.602 91.0873 110.734 90.2198 110.734 89.1468C110.734 88.5137 110.747 87.7696 110.767 86.9268C111.783 87.6216 113.246 88.2958 115.113 88.3452C118.99 88.4479 123.237 86.8528 126.986 86.8857C130.735 86.9227 131.516 82.1578 132.713 74.9674C133.909 67.7728 133.556 44.298 129.325 41.3544C127.701 40.2238 127.652 39.1138 128.203 38.1724H128.207C128.207 38.1724 133.321 41.0749 135.077 46.7072C136.762 52.101 135.327 81.5658 134.916 89.2537Z" fill="#EFA943"/>
<path d="M118.456 65.0141L130.37 66.1899L130.629 63.345L118.431 63.789L118.456 65.0141Z" fill="#DD704E"/>
<path d="M128.88 79.0045C128.498 80.9614 127.754 82.61 125.76 83.1486C125.336 83.2637 124.617 83.4528 123.68 83.6995C123.782 82.8772 124.173 80.8134 125.538 80.0775C126.899 79.3457 128.338 79.0826 128.88 79.0045Z" fill="#DD704E"/>
<path d="M125.416 83.2391C124.989 83.3542 124.401 83.5104 123.681 83.6995C118.209 85.122 105.312 88.3904 101.144 88.9659C101.008 89.0482 100.864 89.1345 100.712 89.229C100.815 89.081 100.872 88.9454 100.872 88.8303C100.872 88.0944 100.387 85.4509 100.65 85.011C100.918 84.5711 101.843 87.5681 102.237 87.786C102.632 88.008 123.513 82.9431 125.585 81.6645C126.485 81.1095 126.127 82.0222 125.416 83.2391Z" fill="#DD704E"/>
<path d="M94.4623 81.5741C94.3966 82.6019 93.5743 83.3501 92.7603 83.8435C92.3862 83.8805 91.9956 83.9175 91.6421 83.9339C90.4498 83.9997 89.9154 82.6759 90.7623 82.5197C91.5722 82.3717 93.0686 81.7632 94.4623 81.5741Z" fill="#DD704E"/>
<path d="M116.046 29.4608C116.046 29.4608 119.092 27.8821 120.379 26.0115" stroke="#222221" stroke-width="0.411118" stroke-linecap="round" stroke-linejoin="round"/>
<path d="M126.332 35.8865C126.332 35.8865 124.688 36.8855 124.425 37.8845C124.162 38.8836 127.656 38.1764 127.537 37.8845C127.418 37.5926 126.595 35.4754 126.332 35.8865Z" fill="#F4CE89"/>
<path d="M108.174 30.3447C108.141 29.9664 108.125 29.7362 108.125 29.7362L107.533 28.5522C107.368 28.2274 107.364 27.8615 107.492 27.5491C107.973 27.7464 110.23 28.692 110.386 28.9839C110.55 29.2799 108.996 30.4968 108.174 30.3447Z" fill="#F4CE89"/>
<path d="M116.248 31.689C115.89 34.1351 114.591 36.4415 111.619 37.1239H111.611C110.595 37.0869 109.686 36.8937 109.292 36.4004C110.27 36.5484 112.05 36.4497 113.44 34.2708C115.097 31.6766 114.439 29.362 114.525 28.5028C116.079 28.9961 116.544 29.6498 116.248 31.689Z" fill="#F4CE89"/>
<path d="M127.607 187.659C127.265 187.922 105.937 188.715 103.639 188C102.968 187.79 103.079 186.894 103.696 185.78C104.712 186.257 106.549 186.787 109.123 186.236C113.234 185.352 110.299 181.307 111.355 181.245C112.412 181.184 113.176 183.416 113.588 184.941C113.999 186.471 117.526 187.19 120.638 187.239C123.105 187.281 126.571 186.919 127.899 186.771C128.03 187.178 127.825 187.49 127.607 187.659Z" fill="#015D75"/>
<path d="M125.407 178.483C125.407 178.483 125.757 179.186 125.407 180.596C125.054 182.006 123.381 182.713 123.381 182.713C123.381 182.713 123.335 179.408 122.501 179.054C121.909 178.807 119.183 178.125 117.621 177.743L117.58 176.567H126.287C126.287 176.567 126.345 177.175 126.431 178.063L125.407 178.483Z" fill="#DD704E"/>
<path d="M111.001 180.818C111.001 180.818 112.868 181.356 113.587 184.941" stroke="#003755" stroke-width="0.411118" stroke-miterlimit="10" stroke-linecap="round"/>
<path d="M104.041 187.03C104.041 187.03 105.998 187.268 113.588 187.301C121.177 187.338 126.817 187.03 126.817 187.03" stroke="#003755" stroke-width="0.411118" stroke-miterlimit="10" stroke-linecap="round"/>
<path d="M136.858 179.058C136.858 179.058 140.25 180.337 141.438 181.702" stroke="#003755" stroke-width="0.411118" stroke-miterlimit="10" stroke-linecap="round"/>
<path d="M134.744 186.191C134.744 186.191 138.399 186.22 141.922 184.288C145.446 182.359 151.526 176.365 151.526 176.365" stroke="#003755" stroke-width="0.411118" stroke-miterlimit="10" stroke-linecap="round"/>
<path d="M35.6903 171.004L34.5432 177.886L45.0267 178.158L45.8161 172.242L35.6903 171.004Z" fill="#6D0A0A"/>
<path d="M59.6085 187.498C56.7841 188.908 48.1835 187.967 44.4875 188.168C40.7916 188.37 33.264 188.168 32.7954 187.227C32.3226 186.286 33.5354 181.315 33.5354 180.106C33.5354 179.428 33.6793 178.503 33.8108 177.812C33.8437 177.644 33.9218 177.496 34.0328 177.377C34.2384 177.151 34.5591 177.044 34.8797 177.118C35.7842 177.336 37.2971 177.619 39.0444 177.619C41.1164 177.619 43.5831 177.077 44.7507 176.785C45.1536 176.686 45.5688 176.879 45.7538 177.249C45.9717 177.677 46.2554 178.261 46.502 178.828C46.9748 179.905 51.6122 180.172 55.0368 181.517C57.9763 182.668 58.1983 184.02 58.7122 184.674C58.7944 184.785 58.889 184.875 59.0041 184.941C59.8099 185.414 59.6085 187.498 59.6085 187.498Z" fill="#A8D3D1"/>
<path d="M59.6085 187.498C56.7841 188.908 48.1835 187.967 44.4875 188.168C40.7916 188.37 33.264 188.168 32.7954 187.227C32.3226 186.286 33.5354 181.315 33.5354 180.106C33.5354 179.428 33.6793 178.503 33.8108 177.812C33.8437 177.644 33.9218 177.496 34.0328 177.377C35.0031 177.767 37.0587 178.45 39.513 178.425C42.9417 178.388 41.4494 179.995 38.7196 180.892C35.9898 181.788 35.5622 184.033 36.7668 184.649C37.9713 185.266 41.803 183.843 46.6048 185.323C51.4067 186.808 57.8694 185.229 58.7122 184.674C58.7944 184.785 58.889 184.875 59.0041 184.941C59.8099 185.414 59.6085 187.498 59.6085 187.498Z" fill="#8EBCB8"/>
<path d="M55.5923 28.5521L55.0003 29.7361C55.0003 29.7361 54.7372 33.4567 54.1739 35.5287C54.1164 35.7507 54.0547 35.9563 53.9889 36.1331C53.3065 37.9584 47.2343 36.721 47.2343 36.721L46.708 39.385L46.3216 41.3543L36.1382 38.8711L37.7046 32.3467C37.7046 32.3467 35.2255 26.2128 35.2255 21.9043C35.2255 17.5958 39.2051 14.9194 43.7768 14.5946C48.3443 14.2657 51.8059 16.2884 51.8059 16.2884C51.8059 16.2884 52.7844 18.1179 53.1749 20.8601C53.5655 23.6022 53.3723 25.4276 54.3507 26.3403C54.6221 26.5952 54.8852 26.7884 55.1195 26.9364C55.6704 27.2776 55.8842 27.9724 55.5923 28.5521Z" fill="#FF9067"/>
<path d="M54.1736 35.5287C54.116 35.7507 54.0544 35.9562 53.9886 36.133C53.3061 37.9584 47.2339 36.7209 47.2339 36.7209L46.7077 39.3849L43.8751 39.0972L40.9068 30.8419L42.5143 31.031C42.5143 31.031 43.2666 33.9541 46.1239 34.7475C48.2206 35.3313 52.1427 35.6109 54.1736 35.5287Z" fill="#DD704E"/>
<path d="M34.9163 38.1721C34.9163 38.1721 35.866 35.6807 36.4333 35.4793C37.0007 35.2778 46.7113 38.4146 47.106 38.7106C47.4965 39.0025 47.5952 42.7232 47.5952 42.7232L34.9163 38.1721Z" fill="#007095"/>
<path d="M52.393 91.0871H28.3057C28.3057 91.0871 27.9192 73.0924 28.2317 60.023C28.3797 53.8974 28.6798 48.853 29.2471 47.2537C29.3869 46.859 29.5308 46.4767 29.6788 46.1108C31.9852 40.351 34.9164 38.1721 34.9164 38.1721L35.8538 38.5092L47.5953 42.7232C47.5953 42.7232 49.951 46.5055 51.1843 53.6137C51.7147 56.656 52.0765 72.299 52.2533 82.3878C52.2738 83.4033 52.2903 84.3571 52.3067 85.241C52.3149 85.8659 52.3273 86.4497 52.3355 86.9923C52.3725 89.5084 52.393 91.0871 52.393 91.0871Z" fill="#37A2C6"/>
<path d="M43.1889 32.4741C43.1889 32.4741 43.3862 34.5996 46.1243 36.0673" stroke="#B55039" stroke-width="0.411118" stroke-miterlimit="10" stroke-linecap="round"/>
<path d="M52.393 91.0871H28.3056C28.3056 91.0871 27.471 52.2611 29.247 47.2537C31.5986 40.6388 34.9163 38.1721 34.9163 38.1721L35.8537 38.5092C34.2914 40.3099 32.2852 44.4129 32.0714 53.6137C31.7261 68.3975 33.202 84.3941 52.3066 85.241C52.3642 88.7519 52.393 91.0871 52.393 91.0871Z" fill="#298499"/>
<path d="M41.1034 30.7721L37.6295 32.0465C37.6295 32.0465 34.4063 28.071 33.8636 22.8252C33.3209 17.5752 37.6295 15.3675 37.6295 15.3675C41.5392 11.5688 44.5979 12.7487 47.8169 13.9779C51.036 15.2071 52.9189 19.4992 52.9189 19.4992L49.3628 20.2886C48.9023 21.8796 46.5425 22.3236 46.5425 22.3236C46.5425 22.3236 46.3328 24.0379 45.5147 24.7245C44.6966 25.4111 44.232 25.5303 44.232 25.5303L44.4992 28.1738C44.4992 28.1738 44.3266 28.441 43.6194 27.6846C42.9082 26.924 42.789 26.0195 42.789 26.0195C42.789 26.0195 42.5135 24.3627 41.1486 24.3545C39.7837 24.3463 39.6933 25.6948 39.7508 26.3525C39.8084 27.0103 40.1743 28.515 40.1825 28.7822C40.1907 29.0454 40.5196 30.402 41.0993 30.7679L41.1034 30.7721Z" fill="#680304"/>
<path d="M68.3817 77.1214V83.7774C68.3817 83.7774 68.0158 83.8103 67.3621 83.8638C63.0207 84.2256 45.9922 85.6069 39.7761 85.4055C38.884 85.3767 38.2138 85.315 37.8356 85.2122C37.7287 85.1835 37.6259 85.1547 37.5273 85.1218H37.5232C35.3812 84.4311 34.5343 82.8812 34.0492 80.9078C33.8313 80.0239 33.6833 79.0537 33.5271 78.0341C33.005 74.6383 32.3554 61.4579 31.8292 56.1051C31.3071 50.7524 31.8292 47.6525 31.8292 47.6525L44.6561 46.4438C45.7332 49.0544 44.6232 58.062 44.6561 58.5841C44.689 59.1063 44.6561 74.5108 44.6561 74.5108L63.995 76.6404L67.7979 77.0557L68.3817 77.1214Z" fill="#FF9068"/>
<path d="M42.8474 31.4668L42.6994 30.9036C42.6994 30.9036 41.9635 31.6148 41.059 30.7556C40.1546 29.8964 40.4259 28.2601 39.912 26.9857C39.3981 25.7112 39.912 24.1695 41.1125 24.3422C42.3129 24.5148 42.4116 25.518 42.4116 25.518" stroke="#B55039" stroke-width="0.411118" stroke-miterlimit="10" stroke-linecap="round"/>
<path d="M40.3228 25.4439C40.3228 25.4439 40.2735 25.0287 40.886 25.0287C41.4986 25.0287 42.0865 25.9825 42.0372 26.8664C41.9878 27.7462 41.7741 27.8448 42.0372 28.2601C42.3044 28.6753 42.5716 28.5273 42.4976 29.2879C42.4236 30.0484 41.8111 30.0937 41.6178 29.9004C41.4246 29.7072 41.7412 29.07 41.7412 29.07" stroke="#B55039" stroke-width="0.411118" stroke-miterlimit="10" stroke-linecap="round"/>
<path d="M41.5234 26.0072C41.5234 26.0072 40.7176 26.7184 40.8122 27.5119" stroke="#B55039" stroke-width="0.411118" stroke-miterlimit="10" stroke-linecap="round"/>
<path d="M42.165 31.1586C42.165 31.1586 43.7272 34.5174 48.6195 35.5945" stroke="#003755" stroke-width="0.411118" stroke-miterlimit="10" stroke-linecap="round"/>
<path d="M49.3183 25.2589C49.3183 25.2589 49.565 24.6012 50.3461 24.5025C51.1314 24.4038 51.4109 25.1644 51.4109 25.1644" stroke="#222221" stroke-width="0.411118" stroke-miterlimit="10"/>
<path d="M55.8793 28.0175C55.8752 28.1943 55.8341 28.367 55.7477 28.5355L55.1557 29.7196C55.1557 29.7196 55.1434 29.8881 55.1228 30.1718C55.02 31.3517 54.7076 34.5502 54.1649 36.0549C54.1649 36.0754 54.1526 36.096 54.1444 36.1166C53.8895 36.8072 52.8534 37.0621 51.6694 37.1073H51.6612C48.6888 36.4249 47.3897 34.1185 47.032 31.6724C46.7237 29.5674 47.2335 28.9425 48.9067 28.4369C49.1822 28.3505 49.4946 28.2683 49.8358 28.1861C52.2532 27.5982 54.5061 26.3237 54.5061 26.3237C54.7775 26.5786 55.0365 26.7719 55.2749 26.9199C55.6655 27.1624 55.8875 27.5859 55.8793 28.0175Z" fill="#A8D3D1"/>
<path d="M45.762 61.2932C45.7086 62.7363 45.6675 63.6901 45.6675 63.6901L31.7923 64.1629C31.7923 64.1629 31.0687 58.0413 31.2126 53.1531C31.2784 51.0359 31.5456 49.2763 31.8293 47.9689C31.9485 47.4139 32.1458 46.8918 32.4089 46.4067C33.1325 45.0664 34.3576 44.0345 35.85 43.5864C41.0054 42.0365 44.8165 44.0674 45.6675 47.7099C46.1115 49.6175 45.9059 57.3177 45.762 61.2932Z" fill="#007095"/>
<path d="M52.3943 89.1344H28.1918V93.558H52.3943V89.1344Z" fill="#6D0A0A"/>
<path d="M52.5587 137.157C52.5423 137.872 52.5217 138.423 52.5012 138.781C52.4477 139.595 52.2833 141.091 52.0407 143.02C51.1609 149.996 49.2986 162.597 48.3695 168.78C48.0364 171.004 47.8268 172.398 47.8268 172.398L32.2824 171.494L33.0142 166.19L36.3689 141.799L34.8642 123.405C34.8642 123.405 32.4715 117.238 30.7531 112.453C30.5845 111.98 30.4201 111.52 30.2638 111.084C29.7335 109.563 29.3183 108.292 29.1374 107.577C28.5659 105.3 28.3192 98.4462 28.2329 95.2436C28.2041 94.2117 28.1918 93.558 28.1918 93.558H52.3943C52.3943 93.558 52.4025 94.3062 52.4149 95.6177C52.4847 103.199 52.715 129.527 52.5587 137.157Z" fill="#007095"/>
<path d="M43.103 167.559C44.3857 168.196 47.021 168.603 48.3695 168.78C48.0364 171.004 47.8268 172.398 47.8268 172.398L32.2824 171.494L33.0142 166.19C34.6011 165.82 36.9856 165.199 37.4707 161.392C38.1778 155.871 39.1029 146.707 38.9343 145.063C38.7657 143.418 38.1614 144.006 38.9343 139.426C39.7031 134.847 39.9251 126.39 38.9343 124.626C37.9435 122.862 39.0001 120.749 37.2364 117.929C35.4768 115.113 37.1213 114.291 35.2384 113.468C33.672 112.782 31.859 113.242 30.7531 112.453C30.5845 111.98 30.4201 111.52 30.2638 111.084C31.0861 110.401 34.2805 110.451 34.6546 107.52C35.1232 103.836 36.0606 99.1368 35.2384 97.6116C34.5723 96.3659 29.9432 95.5149 28.2329 95.2436C28.2041 94.2117 28.1918 93.558 28.1918 93.558H52.3943C52.3943 93.558 52.4025 94.3062 52.4149 95.6177C49.7508 96.7688 43.3086 99.8892 42.289 103.602C40.9981 108.301 42.7577 122.628 44.1678 128.034C45.578 133.436 44.6365 134.727 44.6365 137.548C44.6365 140.368 44.8708 141.071 45.1093 142.012C45.3436 142.95 44.4022 144.36 44.0486 147.414C43.6992 150.469 44.4022 149.996 43.5799 157.281C42.7577 164.562 41.3352 166.679 43.103 167.559Z" fill="#015D75"/>
<path d="M32.7498 110.895H37.7243" stroke="#003755" stroke-width="0.411118" stroke-miterlimit="10" stroke-linecap="round"/>
<path d="M45.762 61.2934C45.7086 62.7365 45.6675 63.6902 45.6675 63.6902L31.7923 64.163C31.7923 64.163 31.0687 58.0415 31.2126 53.1533C31.2784 51.036 31.5456 49.2765 31.8293 47.9691C31.9485 47.4141 32.1458 46.892 32.4089 46.4069C32.5364 50.5304 33.4984 58.0086 38.5552 60.3684C40.9561 61.4908 43.4803 61.6182 45.762 61.2934Z" fill="#015D75"/>
<path d="M58.2397 20.0665C58.2397 20.0665 53.4748 18.6646 52.4306 18.1425C51.3864 17.6204 45.0551 20.0008 42.868 20.231C40.6809 20.4612 41.8443 21.0409 42.3459 21.1108C42.3459 21.1108 46.8476 21.7973 51.0575 21.896C55.2673 21.9947 56.883 20.8353 58.4 20.8847C58.8235 20.897 59.399 21.1766 59.5018 20.971C59.6046 20.7654 59.7649 20.4283 58.2397 20.0665Z" fill="#007095"/>
<path d="M52.4297 18.1384C48.9846 20.2597 40.4004 21.0121 40.4004 21.0121L33.8184 21.9741C33.8184 21.9741 33.4854 20.7325 33.4649 19.2073C33.4484 18.1589 33.58 16.9708 34.0651 15.9718C35.2573 13.5256 38.7888 13.0816 41.5844 11.6139C42.3779 11.1946 43.3522 10.8945 44.3636 10.7095C46.3164 10.3518 48.4254 10.434 49.7122 10.989C50.1028 11.1494 50.4194 11.359 50.6331 11.6139C51.6404 12.8103 52.1748 16.1856 52.3557 17.5505C52.4051 17.9164 52.4297 18.1384 52.4297 18.1384Z" fill="#37A2C6"/>
<path d="M52.4304 18.1384C48.9853 20.2597 40.4011 21.0121 40.4011 21.0121L33.8191 21.9741C33.8191 21.9741 33.4861 20.7325 33.4656 19.2073C34.2344 19.2977 35.9158 19.417 36.253 18.8085C36.6928 18.015 38.3661 17.7067 40.323 16.9132C42.2799 16.1198 42.8144 15.1496 42.7486 14.2698C42.6787 13.39 42.9912 12.9049 43.9614 11.8935C44.5287 11.3015 44.4917 10.9233 44.3643 10.7095C46.3171 10.3518 48.4261 10.434 49.7129 10.989C48.9359 11.0466 47.7848 11.3467 46.9461 12.465C45.5565 14.315 45.3263 16.4734 45.7251 18.0644C46.1198 19.6554 51.0532 17.8383 52.0234 17.6163C52.1426 17.5875 52.2536 17.5669 52.3564 17.5505C52.4058 17.9164 52.4304 18.1384 52.4304 18.1384Z" fill="#298499"/>
<path d="M44.0475 75.2919C44.0475 75.2919 42.8141 76.6444 41.5232 78.4616" stroke="#B55039" stroke-width="0.411118" stroke-miterlimit="10" stroke-linecap="round"/>
<path d="M44.0481 62.2554H33.0671" stroke="#003755" stroke-width="0.411118" stroke-miterlimit="10" stroke-linecap="round"/>
<path d="M66.4251 78.9633H67.8928" stroke="#222221" stroke-width="0.411118" stroke-miterlimit="10"/>
<path d="M46.9463 11.0138C46.9463 11.0138 45.5938 11.4537 44.6235 13.2585C43.6533 15.0633 43.7355 16.7366 42.9462 17.8836C42.1568 19.0306 42.1609 20.3379 42.1609 20.3379" stroke="#003755" stroke-width="0.411118" stroke-miterlimit="10" stroke-linecap="round"/>
<path d="M34.9336 20.9669L40.4837 19.9844" stroke="#003755" stroke-width="0.411118" stroke-miterlimit="10" stroke-linecap="round"/>
<path d="M43.6361 93.7922C43.6361 93.7922 43.225 96.3782 41.9341 97.5499C40.6432 98.7256 38.937 98.7256 38.937 98.7256" stroke="#003755" stroke-width="0.411118" stroke-miterlimit="10" stroke-linecap="round"/>
<path d="M38.9413 93.7922C38.9413 93.7922 39.0277 103.071 38.9413 103.688C38.855 104.305 39.558 109.731 39.558 110.895C39.558 112.058 40.7914 115.228 41.6712 121.571C42.5509 127.915 42.9045 129.851 42.9045 132.495C42.9045 135.138 42.6414 136.548 42.9045 136.898C43.1676 137.251 43.1676 138.662 42.9045 139.365C42.6414 140.068 43.1018 141.038 43.1018 141.038C43.1018 141.038 40.446 164.295 40.1788 167.555" stroke="#003755" stroke-width="0.411118" stroke-miterlimit="10" stroke-linecap="round"/>
<path d="M34.0941 168.883L46.1563 169.849" stroke="#003755" stroke-width="0.411118" stroke-miterlimit="10" stroke-linecap="round"/>
<path d="M28.4868 95.2847L31.9361 95.63C31.9361 95.63 32.2444 102.237 31.9361 104.658C31.6278 107.08 30.156 107.52 30.156 107.52" stroke="#003755" stroke-width="0.411118" stroke-miterlimit="10" stroke-linecap="round"/>
<path d="M34.0941 180.481C34.0941 180.481 36.1785 180.567 36.7664 178.425" stroke="#003755" stroke-width="0.411118" stroke-miterlimit="10" stroke-linecap="round"/>
<path d="M32.9799 185.328C32.9799 185.328 33.4774 185.858 38.0614 186.121C42.6412 186.384 44.5817 186.15 47.3115 186.413C50.0413 186.676 57.2071 186.384 58.6172 185.328" stroke="#003755" stroke-width="0.411118" stroke-miterlimit="10" stroke-linecap="round"/>
<path d="M42.8138 178.014C42.8138 178.014 42.9906 179.07 44.487 180.246C45.9835 181.422 49.6836 181.216 52.3558 182.096C55.0281 182.976 55.5872 185.471 55.5872 185.471" stroke="#003755" stroke-width="0.411118" stroke-miterlimit="10" stroke-linecap="round"/>
<path d="M46.8969 179.218L45.8156 180.731" stroke="#003755" stroke-width="0.411118" stroke-miterlimit="10" stroke-linecap="round"/>
<path d="M48.5583 179.81L48.1595 181.183" stroke="#003755" stroke-width="0.411118" stroke-miterlimit="10" stroke-linecap="round"/>
<path d="M50.5763 180.275L50.5106 181.508" stroke="#003755" stroke-width="0.411118" stroke-miterlimit="10" stroke-linecap="round"/>
<path d="M44.6735 64.6318L32.6524 67.3986L32.4386 64.1672L44.6735 63.7273V64.6318Z" fill="#DD704E"/>
<path d="M67.7985 77.0556L67.3627 83.8637C62.3964 84.2789 40.8374 86.0221 37.8362 85.2122C37.7293 85.1834 37.6265 85.1546 37.5279 85.1217C43.9331 84.2502 61.6769 81.7999 62.902 81.1051C64.0861 80.4309 64.0573 77.734 63.9956 76.6404L67.7985 77.0556Z" fill="#DD704E"/>
<path d="M80.904 78.626C80.6861 79.0906 78.5318 80.3856 77.6233 80.583C77.5781 80.5912 77.5328 80.5994 77.4835 80.6076C77.1094 80.6693 76.6284 80.6775 76.1844 80.6652L76.135 80.9036L77.4547 80.9406L77.7055 80.9489C77.7055 80.9489 78.3592 80.731 79.2143 80.2664C80.0735 79.7977 80.1229 79.8964 80.4148 80.0444C80.7108 80.1924 80.6614 80.657 80.2668 81.1215C79.8762 81.5861 79.313 82.0753 78.2358 82.3713C77.9234 82.4577 77.5041 82.5029 77.0642 82.5234C76.6325 82.544 76.1844 82.544 75.802 82.5358L75.7239 82.9058L76.7188 83.0743L77.0436 83.1278C77.0436 83.1278 77.3807 82.8852 77.9604 82.7372C78.5401 82.5892 79.313 82.6632 79.2143 83.0538C79.1197 83.4485 78.2112 84.1802 77.2327 84.3118C76.2543 84.4434 74.8606 84.3118 74.8606 84.3118C74.8482 84.2954 74.84 84.2789 74.8277 84.2666C73.2613 84.2584 69.5572 84.2337 69.5572 84.2337L66.1284 85.2779C66.1284 85.2779 65.5076 84.7558 65.6104 84.0076C65.7091 83.2593 65.4131 82.9304 65.1171 81.4915C64.8252 80.0567 66.1613 79.7319 65.5405 78.2314C64.9239 76.7267 65.8694 76.0442 65.8694 76.0442C65.89 76.0483 65.9147 76.0566 65.9393 76.0607C66.5519 76.2087 67.7277 76.2703 67.7277 76.2703L70.0793 75.1603C70.0793 75.1603 70.9632 74.4532 71.7772 74.149C71.8759 74.112 71.9745 74.0791 72.0691 74.0544C72.9489 73.8324 75.3005 73.6104 75.7404 73.5405C76.1803 73.4665 76.3776 74.3216 75.5184 74.7122C75.2141 74.852 74.9099 74.9877 74.6221 75.1069C74.1 75.3289 73.6354 75.4892 73.3189 75.5221C72.8296 75.5714 72.2911 76.48 72.2911 76.48C72.2911 76.48 72.1801 76.4718 72.0074 76.4471L72.0362 76.4677L74.5563 76.6362C75.3169 76.5828 76.4639 76.5129 77.0683 76.48H77.1094C78.0426 76.4307 79.5103 75.8263 79.9255 76.443C80.3408 77.0597 79.7035 77.5489 78.6757 77.8161C78.3181 77.9107 77.8494 78.0258 77.3972 78.1327C76.5708 78.3342 75.7815 78.515 75.7445 78.5274L75.8719 78.8398L77.4629 78.7494H77.5534C77.5534 78.7494 80.0489 77.5736 80.4641 77.6476C80.8793 77.7175 81.126 78.1615 80.904 78.626Z" fill="#A8D3D1"/>
<path d="M75.1484 79.1688C75.1484 79.1688 74.7373 79.3168 73.9151 79.1688" stroke="#003755" stroke-width="0.411118" stroke-miterlimit="10" stroke-linecap="round"/>
<path d="M74.9429 81.1093H73.9151" stroke="#003755" stroke-width="0.411118" stroke-miterlimit="10" stroke-linecap="round"/>
<path d="M68.5424 83.8679C68.5424 83.8679 67.9833 82.1947 67.8969 80.9325C67.8106 79.6704 68.1025 77.8779 68.1025 77.8779" stroke="#003755" stroke-width="0.411118" stroke-miterlimit="10" stroke-linecap="round"/>
<path d="M74.6229 75.1069C73.5705 74.7245 72.4193 74.3504 71.778 74.149C71.8767 74.112 71.9753 74.0791 72.0699 74.0544C72.9497 73.8324 75.3013 73.6104 75.7412 73.5405C76.1811 73.4665 76.3784 74.3216 75.5192 74.7122C75.2149 74.852 74.9107 74.9877 74.6229 75.1069Z" fill="#8EBCB8"/>
<path d="M79.2143 83.0537C79.1197 83.4484 78.2112 84.1802 77.2327 84.3118C76.2543 84.4433 74.8606 84.3118 74.8606 84.3118C74.8482 84.2953 74.84 84.2789 74.8277 84.2665C73.2613 84.2583 69.5572 84.2337 69.5572 84.2337L66.1284 85.2779C66.1284 85.2779 65.5076 84.7558 65.6104 84.0075C65.7091 83.2593 65.4131 82.9304 65.1171 81.4915C64.8252 80.0567 66.1613 79.7319 65.5405 78.2313C64.9239 76.7266 65.8694 76.0442 65.8694 76.0442C65.89 76.0483 65.9147 76.0565 65.9393 76.0606C66.0627 76.5622 66.3258 77.3269 66.8643 77.6105C67.703 78.0504 67.1316 78.7863 66.6464 79.1687C66.1613 79.551 66.8808 80.1677 67.1603 80.7392C67.4399 81.3106 66.0298 82.0588 66.2065 82.8523C66.3833 83.6458 74.3467 84.4844 76.2913 83.4279C76.4516 83.3415 76.5955 83.2223 76.7188 83.0743L77.0436 83.1277C77.0436 83.1277 77.3807 82.8852 77.9604 82.7372C78.5401 82.5892 79.313 82.6632 79.2143 83.0537Z" fill="#8EBCB8"/>
<path d="M77.3969 78.1329C77.3147 77.434 77.1872 76.8378 77.068 76.4802H77.1091C78.0423 76.4308 79.51 75.8265 79.9253 76.4432C80.3405 77.0599 79.7033 77.5491 78.6755 77.8163C78.3178 77.9109 77.8491 78.026 77.3969 78.1329Z" fill="#8EBCB8"/>
<path d="M80.2665 81.1216C79.876 81.5862 79.3127 82.0754 78.2356 82.3714C77.9232 82.4578 77.5038 82.503 77.0639 82.5235C77.2695 82.0795 77.3887 81.5286 77.4545 80.9407L77.7053 80.949C77.7053 80.949 78.359 80.7311 79.2141 80.2665C80.0733 79.7978 80.1227 79.8965 80.4145 80.0445C80.7106 80.1925 80.6612 80.6571 80.2665 81.1216Z" fill="#8EBCB8"/>
<path d="M80.9034 78.6262C80.6855 79.0908 78.5312 80.3858 77.6227 80.5831C77.5775 80.5914 77.5322 80.5996 77.4829 80.6078C77.524 79.9911 77.5117 79.3498 77.4623 78.7496H77.5528C77.5528 78.7496 80.0483 77.5738 80.4635 77.6478C80.8787 77.7177 81.1254 78.1617 80.9034 78.6262Z" fill="#8EBCB8"/>
<path d="M52.3943 91.2473V93.5578H28.1918V89.3562C29.4909 89.9811 32.451 90.9842 38.478 91.346C44.7598 91.7201 49.8741 91.4488 52.3943 91.2473Z" fill="#560505"/>
<path d="M52.5573 137.157C52.5409 137.872 52.5203 138.423 52.4998 138.781C52.4463 139.595 52.2819 141.091 52.0393 143.02C51.6447 143.381 51.1102 143.509 50.3908 143.246C47.0443 142.012 47.5129 137.605 47.6897 137.194C47.8295 136.865 51.2212 137.062 52.5573 137.157Z" fill="#015D75"/>
<path d="M39.7764 85.4056C38.8843 85.3768 38.2142 85.3151 37.8359 85.2123C37.729 85.1836 37.6263 85.1548 37.5276 85.1219H37.5235C35.3815 84.4312 34.5346 82.8813 34.0495 80.9079C34.9375 80.8545 36.2942 80.8956 37.5276 81.4588C39.1556 82.203 39.6407 84.4805 39.7764 85.4056Z" fill="#DD704E"/>
<path d="M55.8785 28.0177C55.8744 28.1945 55.8333 28.3672 55.7469 28.5357L55.1549 29.7197C55.1549 29.7197 55.1426 29.8883 55.122 30.172C54.4108 30.2706 53.3624 29.7937 53.3871 29.5101C53.4159 29.1606 53.8846 29.3949 54.53 28.9838C55.011 28.6796 55.6071 28.2274 55.8785 28.0177Z" fill="#8EBCB8"/>
<path d="M54.1649 36.0549C54.1649 36.0549 54.1526 36.096 54.1444 36.1166C53.8895 36.8072 52.8534 37.0621 51.6694 37.1074H51.6612C48.6888 36.4249 47.3897 34.1185 47.032 31.6724C46.7237 29.5675 47.2335 28.9426 48.9067 28.4369C48.6189 29.0618 48.2119 30.18 48.2489 31.4668C48.3065 33.4443 49.9797 33.9746 50.6581 35.0024C51.3323 36.0302 52.8288 36.6757 53.9881 36.133C54.0498 36.1042 54.1115 36.0796 54.1649 36.0549Z" fill="#8EBCB8"/>
<path d="M42.8463 25.703C42.8463 25.703 45.6912 28.6548 47.3028 29.3496" stroke="#003755" stroke-width="0.411118" stroke-miterlimit="10" stroke-linecap="round"/>
<path d="M37.1983 35.8987C37.1983 35.8987 39.554 36.8689 40.1501 37.7939C40.7462 38.7189 37.0462 38.5668 36.2979 38.2791C35.5497 37.9913 36.1869 37.5103 36.3637 37.2019C36.5405 36.8936 36.3761 36.0138 37.2024 35.9028L37.1983 35.8987Z" fill="#015D75"/>
</g>
<defs>
<clipPath id="clip0_1_427">
<rect width="174.984" height="190.59" fill="white"/>
</clipPath>
</defs>
</svg>
