<svg width="108" height="109" viewBox="0 0 108 109" fill="none" xmlns="http://www.w3.org/2000/svg">
<path d="M84 25.5C56.4 41.9 32.5 32.3333 24 25.5C41.6 48.3 31.3333 75 24 85.5C48 65.9 74 77.3333 84 85.5C66 57.5 76.5 33.8333 84 25.5Z" fill="#606060" fill-opacity="0.6"/>
<path d="M108 0C98.8 6.4 90.8333 2.66667 88 0C94 9.2 90.5 17.1667 88 20C93.6 14.8 103.667 17.8333 108 20C101.2 10.8 105.167 2.83333 108 0Z" fill="#606060" fill-opacity="0.6"/>
<path d="M20 89C10.8 95.4 2.83333 91.6667 0 89C6 98.2 2.5 106.167 0 109C5.6 103.8 15.6667 106.833 20 109C13.2 99.8 17.1667 91.8333 20 89Z" fill="#606060" fill-opacity="0.6"/>
</svg>
