<svg width="664" height="324" viewBox="0 0 664 324" fill="none" xmlns="http://www.w3.org/2000/svg">
<path d="M391.142 322.13H391.223C391.691 322.13 392.065 321.744 392.056 321.278L390.794 266.561L387.076 266.127L390.247 321.28C390.275 321.755 390.67 322.13 391.145 322.13H391.142Z" fill="#B0D4FF"/>
<path d="M412.813 322.13H412.893C413.362 322.13 413.736 321.744 413.727 321.278L412.464 266.561L408.746 266.127L411.918 321.28C411.946 321.755 412.34 322.13 412.815 322.13H412.813Z" fill="#95C0F4"/>
<path d="M353.014 322.13H352.934C352.466 322.13 352.092 321.744 352.101 321.278L353.363 266.561L357.081 266.127L353.91 321.28C353.882 321.755 353.487 322.13 353.012 322.13H353.014Z" fill="#B0D4FF"/>
<path d="M415.276 263.169V225.674C415.276 219.076 409.928 213.728 403.33 213.728H376.317C369.718 213.728 364.371 219.076 364.371 225.674V264.601L415.276 263.169Z" fill="#B0D4FF"/>
<path d="M411.691 269.088H359.533V263.169H415.278V265.501C415.278 267.481 413.671 269.088 411.691 269.088Z" fill="#95C0F4"/>
<path d="M353.283 269.088H392.74C394.205 269.088 395.393 267.9 395.393 266.435V265.822C395.393 264.357 394.205 263.169 392.74 263.169H353.283C351.817 263.169 350.629 264.357 350.629 265.822V266.435C350.629 267.9 351.817 269.088 353.283 269.088Z" fill="#CAE5FF"/>
<path d="M444.206 65.8305H288.477V200.263H444.206V65.8305Z" fill="#95C0F4"/>
<path d="M441.176 68.068H291.44V197.58H441.176V68.068Z" fill="#DFEDFB"/>
<path d="M343.776 124.419H310.966V83.4472L316.529 78.4301H343.776V124.419Z" fill="white"/>
<path d="M310.966 83.4472H316.35L316.529 78.4301L310.966 83.4472Z" fill="#B0D4FF"/>
<path d="M332.622 82.4189H322.117V82.9192H332.622V82.4189Z" fill="#B0D4FF"/>
<path d="M335.096 83.9199H319.643V84.4202H335.096V83.9199Z" fill="#B0D4FF"/>
<path d="M340.505 93.5592H314.848V94.2018H340.505V93.5592Z" fill="#B0D4FF"/>
<path d="M340.505 95.5123H314.848V96.1549H340.505V95.5123Z" fill="#B0D4FF"/>
<path d="M340.505 97.4655H314.848V98.1081H340.505V97.4655Z" fill="#B0D4FF"/>
<path d="M340.505 99.4186H314.848V100.061H340.505V99.4186Z" fill="#B0D4FF"/>
<path d="M340.505 120.325H314.848V120.967H340.505V120.325Z" fill="#B0D4FF"/>
<path d="M381.662 181.264H348.85V140.29L354.415 135.275H381.662V181.264Z" fill="white"/>
<path d="M348.85 140.29H354.236L354.415 135.275L348.85 140.29Z" fill="#B0D4FF"/>
<path d="M370.511 139.264H360.004V139.764H370.511V139.264Z" fill="#B0D4FF"/>
<path d="M372.983 140.765H357.53V141.265H372.983V140.765Z" fill="#B0D4FF"/>
<path d="M378.391 150.404H352.735V151.047H378.391V150.404Z" fill="#B0D4FF"/>
<path d="M378.391 152.357H352.735V153H378.391V152.357Z" fill="#B0D4FF"/>
<path d="M378.391 154.31H352.735V154.953H378.391V154.31Z" fill="#B0D4FF"/>
<path d="M378.391 156.264H352.735V156.906H378.391V156.264Z" fill="#B0D4FF"/>
<path d="M378.391 162.274H352.735V162.917H378.391V162.274Z" fill="#B0D4FF"/>
<path d="M378.391 164.228H352.735V164.87H378.391V164.228Z" fill="#B0D4FF"/>
<path d="M378.391 166.493H352.735V167.135H378.391V166.493Z" fill="#B0D4FF"/>
<path d="M400.177 78.4304H382.06V94.4042H400.177V78.4304Z" fill="#B0D4FF"/>
<path d="M390.326 80.3327C390.326 79.8944 390.682 79.5386 391.12 79.5386C391.559 79.5386 391.915 79.8944 391.915 80.3327C391.915 80.7711 391.559 81.1268 391.12 81.1268C390.682 81.1268 390.326 80.7711 390.326 80.3327Z" fill="#FFA412"/>
<path d="M399.596 99.4462L381.522 100.707L382.634 116.642L400.707 115.381L399.596 99.4462Z" fill="white"/>
<path d="M389.974 102.995C389.944 102.559 390.272 102.178 390.711 102.148C391.147 102.118 391.528 102.446 391.558 102.885C391.588 103.323 391.259 103.702 390.821 103.731C390.383 103.761 390.004 103.433 389.974 102.995Z" fill="#B0D4FF"/>
<path d="M339.385 158.288L321.311 159.549L322.423 175.484L340.496 174.223L339.385 158.288Z" fill="white"/>
<path d="M329.767 161.84C329.737 161.404 330.065 161.023 330.503 160.994C330.939 160.964 331.32 161.292 331.35 161.73C331.38 162.166 331.052 162.547 330.613 162.577C330.177 162.607 329.796 162.279 329.767 161.84Z" fill="#B0D4FF"/>
<path d="M316.66 169.72L298.544 169.906L298.708 185.879L316.825 185.692L316.66 169.72Z" fill="white"/>
<path d="M306.829 172.726C306.824 172.288 307.175 171.93 307.614 171.925C308.052 171.92 308.41 172.272 308.415 172.71C308.419 173.148 308.068 173.506 307.63 173.511C307.191 173.515 306.833 173.164 306.829 172.726Z" fill="#B0D4FF"/>
<path d="M427.036 112.24L409.201 109.053L406.392 124.778L424.227 127.965L427.036 112.24Z" fill="#EEF6FF"/>
<path d="M417.053 112.673C417.12 112.299 417.478 112.049 417.854 112.115C418.231 112.182 418.478 112.54 418.412 112.916C418.345 113.293 417.987 113.541 417.611 113.474C417.237 113.407 416.987 113.049 417.053 112.673Z" fill="#78ACEA"/>
<path d="M371.376 99.0846L353.364 101.035L355.084 116.916L373.096 114.966L371.376 99.0846Z" fill="#EEF6FF"/>
<path d="M361.915 102.306C361.873 101.927 362.147 101.588 362.528 101.546C362.906 101.505 363.246 101.778 363.287 102.157C363.329 102.535 363.055 102.875 362.677 102.916C362.298 102.958 361.958 102.685 361.917 102.306H361.915Z" fill="#78ACEA"/>
<path d="M324.348 136.846L306.629 140.625L309.961 156.248L327.68 152.468L324.348 136.846Z" fill="#BAE8E3"/>
<path d="M315.559 141.442C315.24 141.235 315.148 140.808 315.354 140.487C315.561 140.168 315.988 140.076 316.309 140.283C316.628 140.489 316.72 140.916 316.513 141.237C316.307 141.556 315.88 141.648 315.559 141.442Z" fill="#FFA412"/>
<path d="M371.85 94.404H354.607V82.8185L359.381 78.4303H371.85V94.404Z" fill="white"/>
<path d="M354.513 82.8185H359.225L359.381 78.4303L354.513 82.8185Z" fill="#B0D4FF"/>
<path d="M363.291 79.9083C363.291 79.5962 363.545 79.3414 363.857 79.3414C364.17 79.3414 364.424 79.5962 364.424 79.9083C364.424 80.2204 364.17 80.4752 363.857 80.4752C363.545 80.4752 363.291 80.2204 363.291 79.9083Z" fill="#B0D4FF"/>
<path d="M422.236 189.248H404.991V177.663L409.765 173.277H422.236V189.248Z" fill="white"/>
<path d="M404.899 177.663H409.609L409.765 173.277L404.899 177.663Z" fill="#B0D4FF"/>
<path d="M413.675 174.755C413.675 174.443 413.929 174.188 414.242 174.188C414.554 174.188 414.808 174.443 414.808 174.755C414.808 175.067 414.554 175.322 414.242 175.322C413.929 175.322 413.675 175.067 413.675 174.755Z" fill="#B0D4FF"/>
<path d="M430.102 166.256H412.856V154.668L417.632 150.282H430.102V166.256Z" fill="white"/>
<path d="M412.765 154.668H417.476L417.633 150.282L412.765 154.668Z" fill="#B0D4FF"/>
<path d="M421.542 151.761C421.542 151.448 421.797 151.194 422.109 151.194C422.421 151.194 422.676 151.448 422.676 151.761C422.676 152.073 422.421 152.327 422.109 152.327C421.797 152.327 421.542 152.073 421.542 151.761Z" fill="#B0D4FF"/>
<path d="M407.344 166.257H390.098V154.669L394.872 150.283H407.344V166.257Z" fill="#BAE8E3"/>
<path d="M390.007 154.669H394.716L394.872 150.283L390.007 154.669Z" fill="#A1D6CE"/>
<path d="M398.784 151.761C398.784 151.448 399.039 151.194 399.351 151.194C399.663 151.194 399.918 151.448 399.918 151.761C399.918 152.073 399.663 152.327 399.351 152.327C399.039 152.327 398.784 152.073 398.784 151.761Z" fill="#F99746"/>
<path d="M434.965 90.4062H417.722V78.8184L422.496 74.4325H434.965V90.4062Z" fill="#BAE8E3"/>
<path d="M417.631 78.8183H422.34L422.496 74.4324L417.631 78.8183Z" fill="#A1D6CE"/>
<path d="M426.407 75.9103C426.407 75.5982 426.662 75.3434 426.974 75.3434C427.286 75.3434 427.541 75.5982 427.541 75.9103C427.541 76.2225 427.286 76.4772 426.974 76.4772C426.662 76.4772 426.407 76.2225 426.407 75.9103Z" fill="#F99746"/>
<path d="M264.438 25.4438H231.637C230.125 25.4438 228.899 26.6697 228.899 28.1819V59.8403C228.899 61.3524 230.125 62.5783 231.637 62.5783H264.438C265.951 62.5783 267.176 61.3524 267.176 59.8403V28.1819C267.176 26.6697 265.951 25.4438 264.438 25.4438Z" fill="#C0D8FB"/>
<path d="M233.058 27.0527H263.018C264.397 27.0527 265.519 28.1727 265.519 29.5543V58.4701C265.519 59.8494 264.399 60.9717 263.018 60.9717H233.058C231.678 60.9717 230.556 59.8517 230.556 58.4701V29.5543C230.556 28.175 231.676 27.0527 233.058 27.0527Z" fill="#DFEBFD"/>
<path d="M247.247 30.4402C247.247 30.0018 247.602 29.6483 248.039 29.6483C248.475 29.6483 248.83 30.0041 248.83 30.4402C248.83 30.8762 248.475 31.232 248.039 31.232C247.602 31.232 247.247 30.8762 247.247 30.4402Z" fill="#B7D3F3"/>
<path d="M253.643 31.5627C253.856 31.1794 254.338 31.0417 254.722 31.2551C255.105 31.4686 255.243 31.9505 255.029 32.3338C254.816 32.7171 254.334 32.8548 253.95 32.6414C253.567 32.4279 253.429 31.9459 253.643 31.5627Z" fill="#B7D3F3"/>
<path d="M259.126 35.9163C259.493 35.6799 259.984 35.7855 260.223 36.1527C260.459 36.5199 260.354 37.0111 259.987 37.2498C259.619 37.4862 259.128 37.3806 258.89 37.0134C258.653 36.6462 258.759 36.155 259.126 35.9163Z" fill="#B7D3F3"/>
<path d="M261.842 42.657C262.28 42.657 262.634 43.0128 262.634 43.4488C262.634 43.8849 262.278 44.2406 261.842 44.2406C261.406 44.2406 261.05 43.8849 261.05 43.4488C261.05 43.0128 261.406 42.657 261.842 42.657Z" fill="#B7D3F3"/>
<path d="M260.453 50.4786C260.763 50.7885 260.763 51.2911 260.453 51.6009C260.143 51.9108 259.64 51.9108 259.331 51.6009C259.021 51.2911 259.021 50.7885 259.331 50.4786C259.64 50.1688 260.143 50.1688 260.453 50.4786Z" fill="#B7D3F3"/>
<path d="M255.475 55.4706C255.785 55.7804 255.785 56.283 255.475 56.5929C255.165 56.9027 254.663 56.9027 254.353 56.5929C254.043 56.283 254.043 55.7804 254.353 55.4706C254.663 55.1607 255.165 55.1607 255.475 55.4706Z" fill="#B7D3F3"/>
<path d="M247.247 58.0433C247.247 57.605 247.603 57.2515 248.039 57.2515C248.475 57.2515 248.831 57.6073 248.831 58.0433C248.831 58.4794 248.475 58.8351 248.039 58.8351C247.603 58.8351 247.247 58.4794 247.247 58.0433Z" fill="#B7D3F3"/>
<path d="M242.407 31.5625C242.194 31.1792 241.712 31.0415 241.329 31.255C240.945 31.4684 240.808 31.9504 241.021 32.3337C241.235 32.7169 241.717 32.8546 242.1 32.6412C242.483 32.4278 242.621 31.9458 242.407 31.5625Z" fill="#B7D3F3"/>
<path d="M236.926 35.9162C236.559 35.6798 236.068 35.7853 235.829 36.1526C235.593 36.5198 235.698 37.0109 236.066 37.2496C236.433 37.486 236.924 37.3804 237.163 37.0132C237.399 36.646 237.293 36.1549 236.926 35.9162Z" fill="#B7D3F3"/>
<path d="M234.212 42.6569C233.773 42.6569 233.42 43.0126 233.42 43.4487C233.42 43.8847 233.776 44.2405 234.212 44.2405C234.648 44.2405 235.006 43.8847 235.006 43.4487C235.006 43.0126 234.65 42.6569 234.212 42.6569Z" fill="#B7D3F3"/>
<path d="M235.598 50.4785C235.289 50.7883 235.289 51.2909 235.598 51.6008C235.908 51.9106 236.411 51.9106 236.721 51.6008C237.03 51.2909 237.03 50.7883 236.721 50.4785C236.411 50.1686 235.908 50.1686 235.598 50.4785Z" fill="#B7D3F3"/>
<path d="M240.576 55.4704C240.266 55.7803 240.266 56.2829 240.576 56.5927C240.886 56.9025 241.389 56.9025 241.698 56.5927C242.008 56.2829 242.008 55.7803 241.698 55.4704C241.389 55.1606 240.886 55.1606 240.576 55.4704Z" fill="#B7D3F3"/>
<path d="M247.823 43.4488C247.823 43.0104 248.179 42.657 248.617 42.657C249.056 42.657 249.409 43.0127 249.409 43.4488C249.409 43.8849 249.053 44.2406 248.617 44.2406C248.181 44.2406 247.823 43.8849 247.823 43.4488Z" fill="#B7D3F3"/>
<path d="M248.722 33.5432H248.507V43.4488H248.722V33.5432Z" fill="#B7D3F3"/>
<path d="M253.567 39.0572L248.316 43.1805L248.717 43.6913L253.968 39.568L253.567 39.0572Z" fill="#B7D3F3"/>
<path d="M466.368 320.172C466.212 322.302 463.206 322.325 459.795 321.93C456.385 321.535 457.291 322.398 452.515 322.465C447.739 322.531 446.094 320.952 445.862 320.27C445.655 319.665 447.955 319.155 450.415 318.556C450.725 318.483 451.035 318.405 451.345 318.324C454.12 317.62 455.956 315.543 458.331 313.729C460.58 312.013 463.479 305.795 463.479 305.795L470.002 305.502C470.002 305.502 467.254 311.074 466.222 313.475C465.616 314.888 465.873 316.624 466.137 317.957C466.279 318.682 466.419 319.424 466.362 320.174L466.368 320.172Z" fill="#FFB27D"/>
<path d="M459.795 321.93C456.385 321.535 457.291 322.398 452.515 322.464C447.739 322.531 446.094 320.952 445.862 320.27C445.655 319.664 447.955 319.155 450.415 318.556L450.445 318.602C450.445 318.602 453.521 320.252 457.452 319.857C460.658 319.536 463.929 318.198 466.139 317.959C466.281 318.684 466.421 319.426 466.364 320.176C466.208 322.306 463.201 322.329 459.791 321.934L459.795 321.93Z" fill="#233862"/>
<path d="M511.423 320.615C511.269 322.744 508.262 322.772 504.852 322.38C501.441 321.987 502.348 322.85 497.574 322.921C492.798 322.992 491.15 321.416 490.919 320.734C490.712 320.128 493.012 319.616 495.472 319.015C495.782 318.939 496.092 318.861 496.401 318.783C499.176 318.076 501.01 315.997 503.383 314.181C505.63 312.462 503.383 302.279 503.383 302.279L510.558 301.581C510.558 301.581 510.213 310.154 510.218 314.053C510.218 315.591 510.927 317.069 511.193 318.402C511.336 319.127 511.478 319.866 511.421 320.617L511.423 320.615Z" fill="#FFB27D"/>
<path d="M504.852 322.377C501.441 321.985 502.348 322.848 497.574 322.919C492.798 322.99 491.15 321.413 490.919 320.732C490.712 320.126 493.012 319.614 495.472 319.013L495.502 319.058C495.502 319.058 498.577 320.706 502.511 320.307C505.715 319.983 508.985 318.641 511.196 318.4C511.338 319.125 511.48 319.864 511.423 320.615C511.269 322.744 508.262 322.772 504.852 322.379V322.377Z" fill="#233862"/>
<path d="M490.483 144.643C489.249 139.562 491.039 137.198 492.654 135.938C493.421 134.068 494.295 132.721 495.188 132.213C496.82 131.286 498.773 131.185 500.141 131.265C499.79 130.903 499.097 130.77 499.097 130.77C499.944 130.643 501.837 131.483 501.837 131.483C513.627 126.942 515.481 144.302 515.233 148.334C514.988 152.366 515.02 157.117 521.155 160.294C532.86 166.357 517.265 189.205 517.265 189.205C517.563 185.946 502.523 168.746 494.679 163.596C492.769 160.785 492.09 155.818 492.039 155.426C492.37 159.364 493.042 161.574 493.646 162.818C490.07 159.527 489.54 151.625 490.488 144.643H490.483Z" fill="#A9453D"/>
<path d="M495.14 163.851C495.101 163.87 498.929 165.857 501.807 165.07C504.515 164.331 506.285 160.819 506.248 160.813C505.101 160.585 504.77 159.009 504.795 152.236L504.277 152.337L495.56 154.063C495.56 154.063 495.757 156.805 495.764 159.39C495.771 161.561 495.638 163.617 495.142 163.849L495.14 163.851Z" fill="#FFB27D"/>
<path d="M495.561 154.065C495.561 154.065 495.758 156.808 495.765 159.392C500.642 159.254 503.222 154.804 504.277 152.337L495.561 154.063V154.065Z" fill="#ED975D"/>
<path d="M460.092 309.249C459.665 310.59 460.624 311.969 462.031 312.035L465.437 312.194L469.04 312.304C469.942 312.332 470.803 311.939 471.372 311.239C474.248 307.712 483.102 295.949 488.473 278.862C488.624 278.383 488.783 277.898 488.952 277.407C492.498 267.066 499.852 254.085 503.726 242.336C504.343 240.466 504.896 238.703 505.392 237.037C505.551 236.502 505.707 235.979 505.854 235.462C508.709 225.541 509.535 219.027 510.297 212.068L482.317 212.293C482.317 212.293 476.428 258.073 460.092 309.249Z" fill="#2A4E96"/>
<path d="M486.235 196.216C486.307 209.53 484.282 215.243 484.282 215.243C484.282 215.243 496.263 221.329 510.499 216.849C510.667 216.796 522.287 214.143 522.287 214.143C522.048 213.604 519.93 204.632 519.698 204.137C516.691 197.681 514.41 194.851 514.052 192.866C513.391 189.161 513.375 185.326 513.705 181.711C514.573 172.141 517.157 164.195 517.157 164.195C513.278 163.312 509.645 161.763 505.608 160.248C504.679 161.405 501.84 162.614 499.377 162.559C496.54 162.497 495.622 161.283 495.769 159.956C492.747 161.639 490.334 163.227 490.334 163.227C487.766 167.689 482.556 172.022 482.18 178.866C482.086 180.548 486.231 195.842 486.233 196.216H486.235Z" fill="white"/>
<path d="M510.297 197.699C511.521 199.429 513.866 209.95 519.698 211.274C516.691 203.776 514.41 200.487 514.052 198.183C513.391 193.88 513.375 189.427 513.706 185.227C511.752 181.805 510.295 179.458 510.295 179.458C510.141 178.904 507.192 169.781 506.247 177.936C505.303 186.09 508.929 195.764 510.295 197.701L510.297 197.699Z" fill="#5F9AA8"/>
<path d="M493.93 156.511C493.93 156.511 505.472 156.702 505.479 149.511C505.486 142.323 506.982 137.506 499.613 137.079C492.243 136.654 490.809 139.395 490.224 141.793C489.639 144.191 490.928 156.275 493.93 156.509V156.511Z" fill="#FFB27D"/>
<path d="M494.358 136.905C494.358 136.905 497.518 145.339 502.367 146.585C507.217 147.831 509.322 146.532 509.322 146.532C509.322 146.532 505.601 143.576 504.83 138.419C504.83 138.419 496.742 132.888 494.36 136.905H494.358Z" fill="#A9453D"/>
<path d="M495.14 137.588C495.14 137.588 492.78 139.473 492.204 141.302C491.628 143.133 491.371 146.902 490.272 146.773C490.272 146.773 487.892 141.04 490.566 137.797C493.402 134.359 495.14 137.588 495.14 137.588Z" fill="#A9453D"/>
<path d="M475.77 205.457L470.319 222.078L473.429 223.324L482.442 208.64L475.77 205.457Z" fill="#FFB27D"/>
<path d="M490.467 162.249C490.467 162.249 484.038 164.799 482.179 168.776C480.318 172.754 477.502 199.427 476.38 202.165C475.257 204.906 474.415 207.072 474.415 207.072C474.415 207.072 477.656 209.803 480.915 210.003C484.174 210.205 490.467 162.247 490.467 162.247V162.249Z" fill="#F99746"/>
<path d="M495.769 159.956C495.769 159.956 489.093 176.453 488.896 179.791C488.698 183.13 488.111 234.384 488.111 234.384C488.111 234.384 488.503 236.741 483.986 235.758C479.47 234.776 478.292 233.794 478.292 233.794C478.292 233.794 482.612 202.177 481.434 191.179C480.257 180.181 490.468 162.245 490.468 162.245L495.769 159.954V159.956Z" fill="#F99746"/>
<path d="M465.435 312.196L469.348 312.315C470.048 312.336 470.716 312.035 471.164 311.496C473.794 308.31 482.965 296.39 488.473 278.867C488.625 278.387 488.783 277.903 488.953 277.412C492.499 267.07 499.852 254.089 503.726 242.341C504.344 240.47 504.897 238.707 505.393 237.041C505.551 236.507 505.707 235.983 505.854 235.467L501.734 232.341C501.734 232.341 489.364 252.372 485.536 271.222C482.208 287.595 468.887 307.298 465.438 312.198L465.435 312.196Z" fill="#1E3D70"/>
<path d="M501.303 272.973C501.236 281.646 501.647 300.976 502.703 310.424C502.799 311.29 503.532 311.941 504.401 311.941H507.321C508.551 311.941 509.471 311.932 510.084 311.923C510.614 311.916 511.066 311.535 511.167 311.017C514.071 296.243 516.148 283.971 517.669 273.366C518.941 264.488 520.072 256.88 520.942 250.328C521.819 243.736 522.427 238.214 522.645 233.551C522.679 232.816 522.705 232.102 522.718 231.409C522.732 230.712 522.737 230.034 522.73 229.376L498.556 227.019C498.861 243.08 501.344 267.644 501.305 272.971L501.303 272.973Z" fill="#2A4E96"/>
<path d="M507.32 311.941C508.426 311.941 509.28 311.934 509.886 311.925C510.529 311.916 511.079 311.457 511.203 310.826C514.086 296.137 516.154 283.925 517.669 273.366C518.94 264.488 520.072 256.88 520.941 250.328C521.818 243.736 522.426 238.214 522.644 233.55L513.774 238.769C513.774 238.769 519.436 240.766 517.276 255.888C515.117 271.008 510.329 309.8 507.322 311.941H507.32Z" fill="#1E3D70"/>
<path d="M506.177 233.404C506.177 233.404 507.88 239.557 513.772 238.77C519.663 237.985 528.04 234.45 528.04 234.45C528.04 234.45 525.523 226.496 522.392 216.044C518.603 203.391 513.91 187.08 511.699 176.791C511.08 173.908 510.655 171.501 510.497 169.777L505.608 160.294C505.608 160.294 498.321 176.651 497.929 180.775C497.536 184.899 506.177 233.406 506.177 233.406V233.404Z" fill="#F99746"/>
<path d="M512.06 180.16L505.608 160.294C505.627 160.303 513.756 162.713 517.846 164.778C517.846 164.778 520.403 168.074 521.984 175.678C521.984 175.678 523.655 193.933 519.923 200.609C519.923 200.609 508.14 202.966 489.288 196.485V192.166C489.288 192.166 509.907 193.247 514.13 193.735L512.06 180.16Z" fill="#FFB27D"/>
<path d="M506.439 189.414C506.703 196.09 508.273 209.053 522.282 215.991C522.319 216.009 522.355 216.027 522.394 216.044C518.605 203.391 513.912 187.08 511.702 176.791C509.129 180.635 506.297 185.737 506.441 189.414H506.439Z" fill="#ED7D2B"/>
<path d="M505.611 160.294C505.611 160.294 517.568 161.136 520.449 167.551C523.329 173.966 524.245 195.305 520.579 201.589C520.579 201.589 515.533 203.026 506.607 201.357C506.497 201.337 506.387 201.316 506.277 201.296C506.277 201.296 503.428 194.323 505.983 192.948C505.983 192.948 513.511 193.341 512.726 190.853C511.941 188.365 505.611 160.292 505.611 160.292V160.294Z" fill="#F99746"/>
<path d="M475.628 194.832L475.981 195.964L495.604 189.859C495.604 189.859 495.866 189.56 495.738 189.166C495.595 188.727 495.253 188.727 495.253 188.727L475.63 194.832H475.628Z" fill="#A9453D"/>
<path d="M474.21 195.904L475.628 194.832L475.979 195.966L474.21 195.904Z" fill="#A9453D"/>
<path d="M471.092 221.623C471.092 221.623 466.114 224.375 465.46 226.47C464.805 228.566 465.255 232.954 466.045 232.889C466.834 232.823 468.014 228.173 468.668 227.847C469.322 227.519 470.24 226.539 470.24 227.257C470.24 227.976 469.586 229.286 469.912 229.484C470.24 229.681 471.287 227.65 472.007 227.257C472.728 226.865 473.031 223.624 473.731 222.757C474.431 221.887 471.092 221.625 471.092 221.625V221.623Z" fill="#FFB27D"/>
<path d="M489.289 192.163C489.289 192.163 484.837 189.421 482.971 189.843C481.103 190.265 476.345 193.712 478.633 194.458C480.922 195.204 482.776 194.422 483.657 194.963C484.539 195.505 485.188 196.496 489.289 196.483C493.393 196.469 489.289 192.163 489.289 192.163Z" fill="#FFB27D"/>
<path d="M139.198 162.708C138.452 161.269 155.479 156.087 155.748 170.291C155.748 170.291 187.645 169.506 172.415 151.728C167.143 145.573 167.685 140.485 167.843 135.748C168.004 131.011 164.559 117.243 152.753 118.629C152.753 118.629 149.661 117.371 145.803 119.372C137.029 123.924 117.372 167.948 139.198 162.708Z" fill="#163560"/>
<path d="M191.344 178.59C191.344 178.59 193.421 175.43 195.095 175.368C196.768 175.306 199.866 174.439 199.618 175.058C199.37 175.678 197.449 175.74 197.263 176.112C197.078 176.483 200.114 177.041 200.981 177.103C201.849 177.165 203.894 177.103 203.832 177.537C203.77 177.971 200.146 179.768 197.589 179.52C195.033 179.272 191.872 180.263 191.872 180.263L191.344 178.59Z" fill="#FFB27D"/>
<path d="M161.318 179.612C161.318 179.612 162.447 181.847 164.494 184.413C166.961 187.502 170.764 191.073 175.543 191.778C177.824 192.115 180.055 191.624 182.107 190.713C182.111 190.713 182.113 190.713 182.113 190.713C187.913 188.138 192.276 182.216 192.276 182.216C193.3 179.428 191.627 177.537 191.627 177.537C191.627 177.537 179.913 180.172 178.797 179.614C177.682 179.056 171.175 160.31 169.626 157.953C168.074 155.598 162.796 154.375 162.796 154.375L161.322 179.614L161.318 179.612Z" fill="#B0D0FF"/>
<path d="M164.494 184.415C166.962 187.504 170.765 191.075 175.543 191.78C177.824 192.117 180.055 191.626 182.107 190.715C181.88 190.745 176.087 191.461 173.778 187.33C171.423 183.114 168.876 176.421 165.376 178.652C163.866 179.616 163.932 182.008 164.497 184.415H164.494Z" fill="#98BAF4"/>
<path d="M117.617 306.05C117.617 306.05 114.044 309.311 114.741 311.629C115.439 313.947 118.664 315.492 119.1 318.324C119.536 321.156 121.28 322.701 122.848 322.701H130.33C130.33 322.701 131.484 320.706 128.696 320.107C125.907 319.506 124.854 316.178 125.028 313.087C125.202 309.997 124.766 305.876 124.766 305.876L118.838 304.503L117.617 306.048V306.05Z" fill="#233862"/>
<path d="M147.869 307.434C147.869 307.434 146.583 321.253 148.151 322.024L168.233 321.983C168.233 321.983 168.233 319.665 165.008 319.15C161.784 318.636 156.117 316.748 155.158 312.541C154.198 308.334 147.869 307.434 147.869 307.434Z" fill="#233862"/>
<path d="M133.56 208.302C137.693 199.035 140.22 196.375 139.738 193.499C139.378 191.358 140.833 153.583 140.833 153.583C141.324 153.431 142.306 153.296 142.843 153.177C144.539 152.8 145.941 151.609 146.524 149.975C147.227 148.006 147.787 145.096 147.773 141.451L148.303 141.554L157.203 143.317C157.203 143.317 157.001 146.117 156.995 148.756C156.995 148.779 156.995 148.8 156.995 148.823C156.983 151.116 158.486 153.138 160.69 153.773C161.814 154.097 162.792 154.375 162.792 154.375C162.792 154.375 166.06 163.706 166.684 173.291C167.309 182.877 160.74 187.041 166.735 206.195C172.854 225.759 131.278 213.423 133.562 208.302H133.56Z" fill="#FFB27D"/>
<path d="M157.203 143.315C157.203 143.315 157.001 146.115 156.994 148.754C152.014 148.614 149.381 144.07 148.303 141.552L157.203 143.315Z" fill="#E8945B"/>
<path d="M158.867 145.814C158.867 145.814 147.081 146.009 147.074 138.667C147.065 131.328 145.539 126.409 153.062 125.973C160.586 125.539 162.05 128.337 162.649 130.788C163.248 133.239 161.931 145.573 158.864 145.814H158.867Z" fill="#FFB27D"/>
<path d="M158.431 125.794C158.431 125.794 155.204 134.405 150.254 135.679C145.303 136.953 143.155 135.626 143.155 135.626C143.155 135.626 146.953 132.608 147.741 127.343C147.741 127.343 155.998 121.697 158.431 125.796V125.794Z" fill="#163560"/>
<path d="M157.63 126.494C157.63 126.494 160.021 127.389 161.008 129.133C161.972 130.841 162.792 133.099 162.601 135.872C162.601 135.872 165.032 130.019 162.3 126.707C159.404 123.196 157.632 126.494 157.632 126.494H157.63Z" fill="#163560"/>
<path d="M156.303 141.261C156.303 141.261 157.116 142.33 158.743 142.254C160.053 142.192 160.558 141.056 160.558 141.056C160.558 141.056 158.151 140.478 156.303 141.263V141.261Z" fill="#EBF3FA"/>
<path d="M132.422 170.291C132.422 170.291 132.124 174.51 132.422 179.573C132.622 182.928 136.017 187.424 136.499 188.535C137.708 191.323 139.069 191.778 139.069 191.778L149.613 194.362L153.319 195.269L165.01 191.778C165.01 191.778 170.335 176.915 168.198 168.549C166.059 160.184 162.793 154.372 162.793 154.372C162.793 154.372 153.253 163.713 140.832 153.581L132.422 170.291Z" fill="#B0D0FF"/>
<path d="M135.508 180.943C135.707 184.298 136.015 187.424 136.497 188.535C137.706 191.323 139.067 191.778 139.067 191.778L149.611 194.362L154.19 193.015C154.19 193.015 138.902 190.699 140.596 177.546L135.505 180.94L135.508 180.943Z" fill="#F2CCAA"/>
<path d="M164.267 194.034C164.267 194.034 170.057 212.055 170.429 218.19C170.801 224.324 159.362 305.35 158.901 308.178C158.467 310.842 155.158 312.541 155.158 312.541C155.158 312.541 153.636 313.438 151.463 312.825C148.449 311.974 147.497 310.955 147.497 310.955C147.497 310.955 142.991 253.169 145.78 232.527C148.569 211.885 148.601 194.034 148.601 194.034H164.267Z" fill="#ED7D2B"/>
<path d="M139.737 193.497C139.737 193.497 130.905 205.346 130.081 213.356C129.257 221.366 128.789 249.504 127.036 257.312C125.282 265.12 118.838 280.148 118.838 304.503C118.838 304.503 119.508 305.899 121.576 306.642C122.237 306.881 123.123 307.11 123.983 307.308C125.689 307.698 127.44 306.865 128.218 305.297C132.574 296.526 146.455 268.232 147.166 262.359C147.669 258.202 152.052 230.696 161.611 214.554C163.906 210.68 160.202 195.269 160.202 195.269L139.737 193.497Z" fill="#F99746"/>
<path d="M156.565 141.456C156.565 141.456 156.769 142.321 158.919 142.188C158.919 142.188 160.726 142.075 160.671 141.125C160.671 141.125 158.919 140.448 156.562 141.456H156.565Z" fill="white"/>
<path d="M165.192 191.252C165.192 191.252 162.867 193.091 158.249 193.185C152.734 193.295 139.069 191.778 139.069 191.778C139.069 191.778 138.461 193.474 138.486 195.266C138.486 195.266 155.176 199.476 164.848 195.881C164.848 195.881 166.094 193.534 165.192 191.252Z" fill="#233862"/>
<path d="M157.057 195.089C157.057 193.52 158.186 192.241 159.572 192.241C160.958 192.241 162.09 193.52 162.09 195.089C162.09 196.659 160.961 197.938 159.572 197.938C158.183 197.938 157.057 196.659 157.057 195.089ZM157.89 195.089C157.89 196.2 158.645 197.105 159.572 197.105C160.499 197.105 161.254 196.2 161.254 195.089C161.254 193.979 160.499 193.074 159.572 193.074C158.645 193.074 157.89 193.979 157.89 195.089Z" fill="white"/>
<path d="M121.108 194.513L138.208 209.405L158.592 185.997L141.491 171.106L121.108 194.513Z" fill="#B5453C"/>
<path d="M142.925 194.566C142.925 194.566 149.191 195.298 149.17 196.786C149.15 198.273 147.61 201.328 146.836 201.463C146.063 201.598 141.737 197.332 141.737 197.332L142.925 194.566Z" fill="#FFB27D"/>
<path d="M140.83 153.581C140.83 153.581 132.464 154.168 129.258 161.962C126.052 169.756 119.967 182.845 119.967 185.046C119.967 187.247 123.366 194.036 141.617 197.938C141.617 197.938 143.506 195.953 143.391 194.383C143.391 194.383 131.998 184.596 132.028 183.454C132.085 181.289 133.896 178.434 143.898 168.428C146.618 165.708 140.83 153.583 140.83 153.583V153.581Z" fill="#B0D0FF"/>
<path d="M233.25 322.276H233.17C232.702 322.276 232.328 321.891 232.337 321.425L233.599 266.708L237.317 266.274L234.145 321.427C234.118 321.902 233.723 322.274 233.248 322.274L233.25 322.276Z" fill="#B0D4FF"/>
<path d="M211.58 322.276H211.499C211.031 322.276 210.657 321.891 210.666 321.425L211.929 266.708L215.647 266.274L212.475 321.427C212.447 321.902 212.053 322.274 211.578 322.274L211.58 322.276Z" fill="#95C0F4"/>
<path d="M271.376 322.276H271.456C271.925 322.276 272.299 321.891 272.29 321.425L271.027 266.708L267.309 266.274L270.481 321.427C270.509 321.902 270.903 322.274 271.378 322.274L271.376 322.276Z" fill="#B0D4FF"/>
<path d="M209.115 263.315V225.821C209.115 219.222 214.462 213.875 221.061 213.875H248.074C254.672 213.875 260.02 219.222 260.02 225.821V264.748L209.115 263.315Z" fill="#B0D4FF"/>
<path d="M209.115 263.315H264.86V269.234H212.702C210.721 269.234 209.115 267.628 209.115 265.647V263.315Z" fill="#95C0F4"/>
<path d="M271.11 263.315H231.653C230.188 263.315 229 264.503 229 265.968V266.581C229 268.046 230.188 269.234 231.653 269.234H271.11C272.575 269.234 273.763 268.046 273.763 266.581V265.968C273.763 264.503 272.575 263.315 271.11 263.315Z" fill="#B0D4FF"/>
<path d="M269.579 253.972C265.709 260.708 260.841 263.309 260.841 263.309H240.592C240.592 263.309 272.53 248.836 269.579 253.972Z" fill="#233862"/>
<path d="M254.026 306.084C253.499 306.69 253.432 307.365 253.694 308.086C253.694 308.088 253.694 308.093 253.698 308.095C254.18 309.428 255.778 310.92 257.63 312.407C257.866 312.598 258.077 312.772 258.261 312.933C258.309 312.974 258.357 313.018 258.403 313.059C258.44 313.091 258.477 313.126 258.511 313.158C260.239 314.751 259.59 315.116 262.695 318.349C266.236 322.033 268.674 322.1 269.367 321.764C269.954 321.478 268.761 319.524 267.441 317.328C267.377 317.222 267.315 317.115 267.248 317.007C267.072 316.715 266.897 316.419 266.723 316.125C265.176 313.482 265.573 312.242 265.94 308.308C266.239 305.111 270.911 290.453 270.911 290.453L264.127 289.284C264.127 289.284 262.084 300.957 259.833 302.757C258.628 303.714 257.281 303.727 256.124 304.437C256.041 304.485 255.961 304.538 255.883 304.588C255.224 305.024 254.557 305.474 254.026 306.08V306.084Z" fill="#FFB27D"/>
<path d="M254.026 306.084C253.499 306.69 253.432 307.365 253.694 308.086C253.694 308.088 253.694 308.093 253.698 308.095C254.29 309.428 255.844 310.911 257.637 312.394C257.871 312.589 258.077 312.765 258.261 312.933C258.309 312.974 258.357 313.018 258.403 313.059C258.44 313.091 258.477 313.126 258.511 313.158C260.239 314.751 259.59 315.116 262.695 318.349C266.236 322.033 268.674 322.099 269.367 321.764C269.954 321.478 268.761 319.524 267.441 317.328C266.753 317.076 263.551 315.774 261.13 312.678C258.998 309.959 257.577 306.463 256.124 304.437C256.041 304.485 255.961 304.538 255.883 304.588C255.224 305.024 254.557 305.474 254.026 306.08V306.084Z" fill="#233862"/>
<path d="M308.734 301.848C309.154 303.943 312.138 303.592 315.475 302.777C318.81 301.963 318.018 302.931 322.764 302.405C327.51 301.88 328.949 300.11 329.094 299.404C329.222 298.777 326.879 298.557 324.361 298.267C324.045 298.233 323.728 298.192 323.409 298.153C320.568 297.797 318.488 295.963 315.909 294.458C313.464 293.032 309.817 287.224 309.817 287.224L303.309 287.74C303.309 287.74 306.724 292.929 308.046 295.185C308.824 296.512 308.782 298.267 308.684 299.622C308.633 300.358 308.585 301.111 308.734 301.848Z" fill="#FFB27D"/>
<path d="M315.476 302.777C318.811 301.962 318.019 302.931 322.765 302.405C327.511 301.88 328.95 300.11 329.095 299.403C329.223 298.777 326.88 298.556 324.362 298.267L324.339 298.315C324.339 298.315 321.494 300.333 317.541 300.429C314.321 300.507 310.911 299.585 308.687 299.621C308.637 300.358 308.588 301.111 308.738 301.848C309.158 303.943 312.141 303.592 315.478 302.777H315.476Z" fill="#233862"/>
<path d="M283.787 260.222L277.7 276.597L269.755 297.978C269.755 297.978 267.6 298.187 265.534 297.593C263.634 297.044 261.451 295.605 261.451 295.605C261.451 295.605 263.657 272.647 267.772 259.469C268.828 256.086 270.01 253.35 271.313 251.81C277.694 244.271 283.785 260.222 283.785 260.222H283.787Z" fill="#233862"/>
<path d="M277.6 234.214C273.613 232.929 262.241 234.579 250.819 236.814L248.427 232.869L223.755 230.941C223.755 230.941 215.614 248.997 220.071 260.5C220.725 262.191 222.029 263.274 224.246 263.311H224.606C224.606 263.311 239.29 263.302 244.06 263.302C256.329 263.302 270.026 254.867 271.8 254.514C274.701 253.933 275.86 259.735 278.761 265.824C281.662 271.915 306.024 292.798 306.024 292.798C306.024 292.798 309.768 292.835 311.315 292.254C312.979 291.63 313.587 290.82 313.587 290.82C313.587 290.82 286.592 237.11 277.6 234.209V234.214Z" fill="#2B478B"/>
<path d="M247.458 161.028C244.298 159.369 239.487 159.144 238.707 159.038C229.357 157.783 223.732 171.368 223.399 175.485C222.788 183.072 218.774 184.229 213.126 188.982C201.798 198.509 205.121 209.581 211.315 213.696C215.031 216.163 221.584 213.696 221.584 213.696C221.675 213.76 239.499 203.733 248.285 198.895C261.456 197.022 255.514 165.26 247.458 161.031V161.028Z" fill="#233862"/>
<path d="M240.919 194.775C240.959 194.8 236.596 196.29 233.681 194.998C230.938 193.786 228.859 189.272 228.9 189.269C230.149 189.212 231.519 188.122 232.575 180.961L233.107 181.152L242.042 184.367C242.042 184.367 241.395 187.234 240.975 189.965C240.621 192.257 240.433 194.452 240.919 194.775Z" fill="#FFB27D"/>
<path d="M242.039 184.367C242.039 184.367 241.392 187.233 240.972 189.965C235.84 189.04 233.825 183.926 233.102 181.151L242.037 184.367H242.039Z" fill="#ED975D"/>
<path d="M243.37 187.213C243.37 187.213 231.144 185.572 232.283 177.975C233.421 170.378 232.611 165.049 240.465 165.774C248.318 166.502 249.397 169.628 249.633 172.256C249.87 174.884 246.579 187.445 243.368 187.213H243.37Z" fill="#FFB27D"/>
<path d="M249.188 168.09C249.188 168.09 241.362 174.835 236.04 175.377C230.717 175.921 228.7 174.211 228.7 174.211C228.7 174.211 231.837 171.606 233.726 167.402C234.282 166.162 235.459 165.313 236.813 165.196C240.614 164.868 247.82 164.719 249.191 168.09H249.188Z" fill="#233862"/>
<path d="M244.298 167.486C244.298 167.486 246.916 170.018 247.74 171.895C248.537 173.706 248.775 178.042 248.142 179.763C248.142 179.763 252.22 171.831 249.911 167.978C247.463 163.89 244.298 167.486 244.298 167.486Z" fill="#233862"/>
<path d="M251.213 212.785C250.843 237.533 251.112 232.362 248.404 234.71C247.752 235.274 245.918 235.612 243.504 235.772C235.916 236.275 222.575 235.026 222.068 233.624C220.316 228.772 221.554 227.264 220.092 219.835C219.94 219.046 219.752 218.19 219.529 217.258C218.311 212.156 217.126 210.418 221.446 202.223C225.363 194.798 229.433 188.771 229.8 188.989C240.135 195.124 240.968 189.967 240.968 189.967C240.968 189.967 251.39 200.715 251.208 212.787L251.213 212.785Z" fill="white"/>
<path d="M277.703 276.597L269.757 297.978C269.757 297.978 267.602 298.187 265.537 297.593C263.636 297.044 261.454 295.605 261.454 295.605C261.454 295.605 263.659 272.647 267.774 259.469L277.701 276.597H277.703Z" fill="#2B478B"/>
<path d="M240.972 189.965C240.972 189.965 251.608 191.769 252.856 196.347C254.105 200.926 261.453 227.845 261.453 227.845C261.453 227.845 256.046 228.816 253.549 226.319C251.052 223.822 244.858 203.148 244.858 203.148L240.97 189.967L240.972 189.965Z" fill="white"/>
<path d="M243.506 235.772C235.919 236.275 222.577 235.026 222.07 233.624C220.319 228.772 221.556 227.264 220.094 219.835L223.755 209.528C223.755 209.528 223.149 221.006 226.534 224.024C229.915 227.042 240.392 229.851 242.037 232.373C242.831 233.583 243.352 234.797 243.504 235.772H243.506Z" fill="#EBF3FF"/>
<path d="M234.812 230.943C234.812 230.943 242.299 229.277 243.506 229.94C244.713 230.604 247.667 233.025 248.036 233.867C248.406 234.71 245.346 233.227 244.353 232.961C243.708 232.789 242.012 233.376 241.172 233.656C237.637 234.834 235.473 234.228 235.473 234.228L234.812 230.941V230.943Z" fill="#FFB27D"/>
<path d="M229.798 188.982C229.798 188.982 219.745 189.602 216.266 194.454C211.368 201.286 201.651 230.404 207.219 234.287C213.491 238.659 235.763 235.43 235.763 235.43C235.763 235.43 236.504 231.967 235.473 230.289C234.443 228.614 217.684 225.906 216.911 225.132C216.137 224.359 226.58 210.049 226.58 207.729C226.58 205.408 229.8 188.978 229.8 188.978L229.798 188.982Z" fill="white"/>
<path d="M243.869 232.027C243.869 232.027 245.436 234.051 245.953 234.292C246.467 234.533 246.8 234.473 246.8 234.473L245.742 232.571L243.869 232.027Z" fill="#FFB27D"/>
<path d="M243.506 229.943L248.067 232.157C248.067 232.157 247.872 232.474 247.312 232.449C246.749 232.424 245.333 231.905 245.333 231.905L243.506 229.943Z" fill="#FFB27D"/>
<path d="M245.952 237.39H282.029L292.882 210.402H256.861L245.952 237.39Z" fill="#F99746"/>
<path d="M282.451 236.339H234.814V237.39H282.029L282.451 236.339Z" fill="#ED7D2B"/>
<path d="M272.921 223.898C273.194 222.95 272.645 222.181 271.695 222.181C270.745 222.181 269.758 222.95 269.485 223.898C269.212 224.845 269.76 225.614 270.711 225.614C271.661 225.614 272.65 224.845 272.921 223.898Z" fill="white"/>
<path d="M434.374 323.274H434.479C435.097 323.274 435.595 322.735 435.581 322.081L433.912 245.471L428.994 244.863L433.187 322.085C433.224 322.751 433.745 323.272 434.374 323.272V323.274Z" fill="#78ACEA"/>
<path d="M234.993 323.274H234.888C234.27 323.274 233.772 322.735 233.786 322.081L235.455 245.471L240.373 244.863L236.18 322.085C236.143 322.751 235.622 323.272 234.993 323.272V323.274Z" fill="#78ACEA"/>
<path d="M229.896 237.638H440.298C442.019 237.638 443.419 239.036 443.419 240.759V243.764C443.419 245.485 442.022 246.885 440.298 246.885H229.896C228.175 246.885 226.775 245.487 226.775 243.764V240.762C226.775 239.04 228.173 237.64 229.896 237.64V237.638Z" fill="#78ACEA"/>
<path d="M184.042 106.336C183.247 86.6652 199.735 77.9255 216.593 77.9255C233.45 77.9255 251.797 82.293 253.388 108.45C254.411 125.278 245.44 135.631 219.608 135.631C210.896 135.631 204.126 134.256 198.941 131.807L186.029 143.28L192.375 127.421C186.754 122.195 184.386 114.824 184.044 106.334L184.042 106.336Z" fill="#A6D3FF"/>
<path d="M567.195 323.19C567.195 323.19 567.671 319.495 568.768 317.298C569.867 315.102 576.858 316.499 576.858 316.499C576.858 316.499 578.255 317.698 578.556 323.291L567.195 323.19Z" fill="#233862"/>
<path d="M543.377 323.141C545.02 322.138 544.084 314.659 544.084 314.659C544.084 314.659 536.43 308.536 535.376 313.224C534.323 317.913 528.106 320.018 524.564 320.592C522.12 320.989 521.365 322.34 521.129 323.141H543.375H543.377Z" fill="#233862"/>
<path d="M559.232 268.739C558.92 270.456 558.722 271.865 558.669 272.872C557.958 286.753 546.985 318.487 545.023 319.229C541.986 320.374 537.203 317.939 534.702 317.142C533.664 316.812 532.964 315.765 533.196 314.705C538.629 289.725 540.628 253.757 541.353 232.463C541.72 221.736 543.561 214.327 543.561 214.327C543.561 214.327 570.322 207.187 570.48 216.218C570.62 224.21 561.616 255.554 559.229 268.739H559.232Z" fill="#213F7A"/>
<path d="M559.232 268.739L541.355 232.461C541.723 221.733 543.563 214.325 543.563 214.325C543.563 214.325 570.324 207.185 570.482 216.216C570.622 224.207 561.619 255.551 559.232 268.737V268.739Z" fill="#233862"/>
<path d="M553.278 216.248L567.425 318.779C567.425 318.779 573.637 320.277 578.469 319.079C578.469 319.079 582.611 264.55 582.265 251.367C581.92 238.185 585.237 216.092 581.507 213.655C577.778 211.217 553.278 216.25 553.278 216.25V216.248Z" fill="#213F7A"/>
<path d="M584.264 214.54C584.333 215.468 583.738 216.31 582.848 216.569C580.874 217.143 578.6 217.54 574.212 218.449C570.09 219.305 564.545 220.062 557.733 220.104C546.898 220.173 542.794 216.438 542.794 216.438C542.328 216.448 543.04 214.18 543.682 203.395C543.9 199.742 544.109 195.113 544.261 189.26C544.398 183.995 544.49 177.739 544.499 170.319C544.511 161.391 558.33 151.788 558.584 151.788V151.793C558.587 153.078 560.613 155.451 563.732 155.655C567.436 155.899 571.978 154.053 571.978 151.921C571.978 151.901 578.673 162.63 581.051 174.064C582.251 179.82 581.767 179.664 584.264 214.54Z" fill="#B0D0FF"/>
<path d="M558.585 151.788C558.585 151.788 545.737 151.678 542.643 156.016C539.551 160.353 532.772 183.683 536.308 191.445C539.847 199.207 546.466 188.234 550.141 183.479C553.815 178.723 558.585 151.788 558.585 151.788Z" fill="#B0D0FF"/>
<path d="M558.454 149.828L558.461 151.157C558.461 151.157 558.098 155.311 563.214 155.917C568.33 156.525 572.126 155.141 571.986 151.935C571.525 149.454 571.098 146.904 571.063 144.85C571.052 144.086 571.102 143.278 571.245 142.362L561.332 142.165L558.413 142.642L558.449 149.828H558.454Z" fill="#FFB27D"/>
<path d="M558.415 142.642L558.452 149.828C559.505 150.317 560.692 150.615 562.025 150.615C566.581 150.615 569.525 147.276 571.063 144.85C571.052 144.086 571.102 143.278 571.245 142.362L561.332 142.165L558.413 142.642H558.415Z" fill="#E2915A"/>
<path d="M572.006 140.77C570.856 146.96 562.87 146.755 559.42 146.367C558.449 146.26 557.839 146.136 557.839 146.136C556.744 145.844 556.133 144.118 555.849 141.86C555.284 137.389 555.998 130.825 556.753 129.145C557.889 126.618 560.03 123.887 568.075 125.859C576.119 127.832 573.487 132.843 572.011 140.772L572.006 140.77Z" fill="#FFB27D"/>
<path d="M545.445 169.176C545.445 169.176 540.477 180.151 540.621 183.44C540.621 183.44 543.081 183.355 545.445 184.059C549.331 185.218 545.445 169.176 545.445 169.176Z" fill="#98BAF4"/>
<path d="M554.28 123.251C554.28 123.251 557.819 122.978 561.996 121.163C565.384 119.689 569.66 121.312 571.048 122.044C571.012 121.821 570.922 121.516 570.711 121.209C570.711 121.209 571.333 121.649 571.427 122.269C571.491 122.317 571.519 122.349 571.503 122.361C571.503 122.361 572.21 122.232 572.664 122.436C572.664 122.436 572.347 122.391 572.233 122.595C572.221 122.615 572.203 122.634 572.182 122.652C577.468 125.207 577.957 133.561 576.256 135.493C574.209 137.818 571.119 143.081 571.119 143.081C571.119 143.081 570.86 141.818 571.234 139.771C571.606 137.724 569.839 137.724 567.606 136.795C565.373 135.865 567.234 133.26 565.281 131.679C563.328 130.097 556.165 131.027 556.256 129.817C553.596 128.849 554.287 123.524 554.287 123.254L554.28 123.251Z" fill="#233862"/>
<path d="M573.624 189.733C571.526 198.156 548.839 202.51 543.682 203.396C543.9 199.742 544.109 195.113 544.26 189.26L573.624 189.733Z" fill="#98BAF4"/>
<path d="M568.644 192.471C568.859 192.471 573.688 191.75 574.551 191.319C575.414 190.887 579.371 185.267 576.78 183.825C574.191 182.384 567.239 188.147 567.239 188.147L568.644 192.471Z" fill="#FFB27D"/>
<path d="M539.283 194.142C539.283 194.142 557.953 195.154 570.482 192.471C570.482 192.471 570.799 188.851 566.861 187.243C566.861 187.243 547.334 183.105 542.641 184.257C537.949 185.409 539.283 194.139 539.283 194.139V194.142Z" fill="#B0D0FF"/>
<path d="M582.16 179.49C578.286 184.163 573.221 187.975 567.637 188.87C567.591 188.799 565.945 186.302 566.255 182.634C566.397 180.936 566.957 178.987 568.288 176.91C568.697 176.272 569.062 175.526 569.385 174.698C572.436 166.918 571.981 151.924 571.981 151.924C571.981 151.924 584.93 153.28 588.965 159.043C591.437 162.573 588.286 172.107 582.162 179.492L582.16 179.49Z" fill="#B0D0FF"/>
<path d="M559.418 146.365C558.447 146.257 557.836 146.133 557.836 146.133C556.742 145.842 556.131 144.116 555.846 141.857C557.901 142.362 558.842 143.951 559.232 144.625C559.408 144.928 559.445 145.61 559.418 146.365Z" fill="#E2915A"/>
<path d="M554.201 149.867C554.201 149.867 549.728 142.489 553.207 142.167C556.684 141.846 558.082 144.201 558.585 145.064C559.087 145.929 558.454 149.828 558.454 149.828L554.203 149.867H554.201Z" fill="#FFB27D"/>
<path d="M571.246 182.384C571.109 183.32 570.831 184.179 570.484 184.945C569.392 187.371 567.636 188.868 567.636 188.868C556.021 183.623 553.671 165.621 553.278 155.731C553.12 151.756 553.278 149.089 553.278 149.089C558.518 147.354 559.991 150.37 559.991 150.37C559.991 150.37 566.177 165.081 569.387 174.695C570.615 178.374 571.407 181.308 571.249 182.384H571.246Z" fill="#B0D0FF"/>
<path d="M582.159 179.49C578.285 184.163 573.22 187.975 567.636 188.87C556.02 183.626 553.67 165.623 553.278 155.733C553.278 155.733 558.774 175.666 566.254 182.634C567.606 183.894 569.024 184.732 570.484 184.948C570.484 184.948 579.917 182.281 581.895 179.772C582.037 179.591 582.122 179.504 582.161 179.492L582.159 179.49Z" fill="#98BAF4"/>
<path d="M370.631 237.638H334.554L323.701 210.65H359.722L370.631 237.638Z" fill="#2B478B"/>
<path d="M334.132 236.584H381.769V237.638H334.555L334.132 236.584Z" fill="#2B478B"/>
<path d="M343.661 224.143C343.388 223.195 343.936 222.426 344.886 222.426C345.836 222.426 346.823 223.195 347.096 224.143C347.37 225.091 346.821 225.86 345.871 225.86C344.921 225.86 343.931 225.091 343.661 224.143Z" fill="white"/>
<path d="M663.287 322.591V322.82C663.287 323.187 662.947 323.488 662.534 323.488H0.751439C0.338323 323.488 0.000946045 323.185 0.000946045 322.82V322.591C0.000946045 322.223 0.340618 321.92 0.751439 321.92H662.537C662.95 321.92 663.289 322.223 663.289 322.591H663.287Z" fill="#C9C9C9"/>
</svg>
