<svg width="589" height="540" viewBox="0 0 589 540" fill="none" xmlns="http://www.w3.org/2000/svg">
<path opacity="0.5" d="M10.9138 298.647C27.7335 258.507 66.1952 232.468 84.5773 194.411C98.986 164.571 98.7545 122.31 147.921 85.5069C210.725 38.5003 267.453 68.5521 327.326 54.3942C392.83 38.9054 496.179 -38.5194 564.905 83.5587C593.645 134.597 598.756 197.304 563.863 248.651C547.545 272.665 525.961 293.806 515.911 321.581C498.571 369.533 517.146 418.526 433.491 464.723C388.722 489.451 317.527 483.606 312.84 481.909C223.167 464.279 216.531 487.541 151.586 457.412C83.0149 425.605 29.8746 436.658 8.38696 385.678C-3.10911 358.365 -0.370112 325.535 10.8945 298.647H10.9138Z" fill="#BFF7F7"/>
<path opacity="0.5" d="M30.1066 162.411C50.8999 111.007 111.177 106.975 155.406 90.1555C194.176 75.3997 198.979 66.5654 222.473 50.2086C286.781 5.40097 378.055 15.9326 429.595 81.1091C454.362 112.434 466.571 147.732 502.371 235.824C531.073 306.498 580.433 388.147 491.261 447.459C427.589 489.798 320.942 474.001 255.862 443.737C213.851 424.197 186.422 394.088 145.665 378.001C116.404 366.447 78.367 363.033 51.112 316.586C21.0988 265.413 14.7143 200.487 30.1066 162.411Z" fill="#BFF7F7"/>
<path d="M516.49 539.91C555.714 539.91 587.511 533.779 587.511 526.215C587.511 518.652 555.714 512.52 516.49 512.52C477.267 512.52 445.469 518.652 445.469 526.215C445.469 533.779 477.267 539.91 516.49 539.91Z" fill="#EFF5F9"/>
<path d="M108.419 513.35C147.643 513.35 179.44 507.218 179.44 499.655C179.44 492.091 147.643 485.96 108.419 485.96C69.1951 485.96 37.3979 492.091 37.3979 499.655C37.3979 507.218 69.1951 513.35 108.419 513.35Z" fill="#EFF5F9"/>
<path d="M110.617 512.52C110.617 520.081 187.464 526.215 282.268 526.215C377.072 526.215 453.918 520.081 453.918 512.52C453.918 504.959 377.072 498.825 282.268 498.825C187.464 498.825 110.617 504.959 110.617 512.52Z" fill="#EFF5F9"/>
<path d="M386.928 440.323C377.689 429.328 376.975 414.244 377.168 400.511C377.38 385.697 379.733 370.555 386.484 357.227C393.602 343.204 405.831 333.232 418.137 323.896C431.215 314.001 445.276 305.321 461.228 301C461.807 300.846 462.212 301.174 462.366 301.618C462.887 301.251 463.697 301.309 463.851 302.1C469.484 333.116 468.153 366.331 453.127 394.647C440.84 417.832 416.498 441.962 388.529 442.039C387.7 442.039 387.43 441.21 387.68 440.631C387.43 440.67 387.16 440.593 386.928 440.323Z" fill="#FCE8C8"/>
<path opacity="0.53" d="M391.519 432.53C391.422 432.453 391.326 432.356 391.249 432.221C385.848 422.268 383.552 411.274 384.575 399.99C384.69 398.755 386.639 398.736 386.523 399.99C385.558 410.599 387.584 420.899 392.483 430.331C398.077 417.427 404.982 405.121 412.215 393.027C411.887 392.969 411.598 392.776 411.444 392.409C406.95 381.743 404.847 370.517 405.156 358.963C405.194 357.709 407.142 357.709 407.104 358.963C406.815 370.208 408.859 381.087 413.161 391.464C413.681 390.616 414.183 389.748 414.704 388.899C420.702 379.004 426.74 369.128 432.777 359.252C432.661 358.886 433.163 337.263 434.243 327.387C434.378 326.153 436.326 326.133 436.191 327.387C435.169 336.897 434.725 346.425 434.783 355.973C440.377 346.83 445.99 337.687 451.584 328.525C452.239 327.445 453.937 328.429 453.262 329.509C443.926 344.786 434.59 360.043 425.255 375.339C434.59 374.683 443.617 372.754 452.413 369.514C453.59 369.07 454.11 370.96 452.934 371.404C443.752 374.78 434.282 376.747 424.522 377.364C424.348 377.364 424.213 377.345 424.078 377.287C421.821 380.991 419.545 384.694 417.288 388.417C411.83 397.386 406.487 406.452 401.626 415.749C401.761 415.71 401.896 415.71 402.05 415.749C412.466 417.562 422.805 414.958 431.215 408.554C432.218 407.783 433.182 409.48 432.198 410.251C423.345 417.003 412.466 419.549 401.529 417.658C401.182 417.6 400.989 417.408 400.893 417.176C395.955 426.763 391.576 436.6 388.24 446.919C387.854 448.115 385.963 447.594 386.349 446.398C387.873 441.711 389.609 437.121 391.499 432.607L391.519 432.53Z" fill="white"/>
<path d="M187.078 497.051C173.75 502.393 159.187 498.381 146.205 493.906C132.202 489.084 118.545 482.121 107.975 471.551C96.8648 460.421 91.1939 445.685 86.1788 431.083C80.8551 415.575 76.9974 399.508 77.8654 382.996C77.904 382.398 78.3476 382.128 78.7913 382.109C78.5984 381.511 78.907 380.74 79.7171 380.855C110.946 385.176 142.077 396.788 164.317 419.896C182.526 438.799 197.86 469.448 189.2 496.048C188.949 496.838 188.062 496.838 187.599 496.414C187.56 496.665 187.406 496.896 187.078 497.031V497.051Z" fill="#FCE8C8"/>
<path opacity="0.53" d="M181.099 490.28C181.002 490.357 180.867 490.415 180.713 490.434C169.564 492.46 158.415 491.225 147.999 486.731C146.861 486.23 147.459 484.378 148.617 484.879C158.396 489.104 168.812 490.377 179.305 488.679C168.793 479.344 159.245 468.947 150.025 458.3C149.87 458.589 149.6 458.82 149.195 458.859C137.661 459.804 126.338 458.3 115.44 454.403C114.264 453.979 114.861 452.127 116.057 452.551C126.647 456.332 137.622 457.779 148.829 456.93C148.173 456.178 147.517 455.426 146.861 454.654C139.339 445.858 131.816 437.063 124.332 428.228C123.946 428.228 103.558 420.995 94.5119 416.906C93.3739 416.385 93.9718 414.533 95.1291 415.054C103.848 418.989 112.759 422.384 121.844 425.297C114.9 417.118 107.956 408.94 100.993 400.781C100.183 399.816 101.629 398.524 102.459 399.488C114.071 413.125 125.663 426.762 137.275 440.38C139.57 431.295 140.535 422.133 140.207 412.759C140.168 411.505 142.116 411.602 142.155 412.855C142.502 422.635 141.422 432.26 138.953 441.711C138.914 441.885 138.837 442.001 138.741 442.097C141.557 445.395 144.373 448.713 147.189 452.011C154.018 459.997 160.942 467.905 168.272 475.409C168.272 475.274 168.33 475.139 168.388 475.004C173.364 465.668 174.097 455.02 170.644 445.048C170.239 443.852 172.149 443.467 172.554 444.643C176.2 455.155 175.254 466.285 170.027 476.084C169.873 476.392 169.622 476.508 169.371 476.527C176.933 484.204 184.937 491.438 193.675 497.822C194.678 498.555 193.617 500.195 192.595 499.442C188.621 496.53 184.802 493.463 181.099 490.261V490.28Z" fill="white"/>
<path d="M390.998 452.841C393.506 442.02 399.466 420.918 414.26 422.905C415.244 423.04 416.401 423.908 417.366 423.869C429.614 428.364 419.68 399.141 437.214 391.021C455.403 382.592 453.551 409.152 460.9 412.894C475.039 420.108 481.231 385.485 501.079 387.607C515.95 389.188 526.308 411.023 504.686 432.318C490.258 446.514 498.996 451.664 500.635 462.196C502.795 476.142 489.891 483.471 477.45 483.066C470.776 482.854 456.927 478.572 458.451 490.126C458.74 492.344 467.979 507.409 449.983 515.433C433.395 522.82 409.342 515.279 393.699 505.441C393.506 505.326 384.729 479.903 390.998 452.822V452.841Z" fill="#CEF2C7"/>
<path opacity="0.53" d="M394.702 507.409C396.65 504.303 398.752 501.333 400.932 498.42C400.758 498.208 400.681 497.938 400.797 497.61C403.497 488.641 400.739 479.112 400.566 469.95C400.411 461.695 401.472 453.574 404.616 445.897C405.079 444.74 406.969 445.241 406.507 446.418C402.996 455.001 402.167 464.125 402.649 473.326C403.054 480.655 404.674 487.985 403.382 495.199C413.2 482.777 424.927 471.995 437.33 462.08C437.272 461.907 437.253 461.733 437.33 461.521C440.358 451.375 439.432 440.94 439.432 430.524C439.432 421.053 440.32 411.66 443.155 402.575C443.522 401.379 445.412 401.88 445.045 403.095C441.901 413.145 441.265 423.561 441.419 434.015C441.554 442.849 441.863 451.626 439.683 460.209C440.821 459.322 441.94 458.435 443.078 457.567C462.077 442.927 482.388 429 495.254 408.246C495.91 407.185 497.607 408.149 496.932 409.229C485.031 428.422 466.822 441.943 449.115 455.406C448.17 456.12 447.244 456.834 446.299 457.567C451.893 458.705 457.139 461.077 462.772 462.138C470.178 463.527 477.682 463.334 485.069 461.907C486.304 461.675 486.825 463.546 485.59 463.797C479.032 465.07 472.397 465.417 465.742 464.569C458.412 463.623 451.796 460.421 444.582 459.226C444.486 459.226 444.409 459.168 444.332 459.129C430.714 469.699 417.617 480.983 406.699 494.254C413.393 494.312 419.507 496.877 426.046 498.266C434.456 500.06 443.001 499.79 451.372 497.842C452.587 497.552 453.108 499.442 451.893 499.732C444.91 501.371 437.812 501.892 430.675 501.005C422.053 499.944 413.894 495.739 405.118 496.221C402.032 500.118 399.119 504.168 396.438 508.431C395.763 509.492 394.085 508.508 394.76 507.447L394.702 507.409Z" fill="white"/>
<path d="M78.6173 505.846H70.8632L82.9187 283.544H90.6727L89.2646 309.429H117.735L119.143 283.544H126.897L114.841 505.846H107.087L109.093 468.966H80.6233L78.6173 505.846ZM85.5612 377.731L84.3267 400.665H112.797L114.051 377.731H85.5805H85.5612ZM114.436 370.266L115.69 347.332H87.22L85.9856 370.266H114.456H114.436ZM83.9217 408.149L82.6679 431.083H111.138L112.373 408.149H83.9024H83.9217ZM88.8789 316.913L87.6251 339.848H116.095L117.349 316.913H88.8789ZM109.498 461.501L110.733 438.567H82.2628L81.0091 461.501H109.479H109.498Z" fill="#66C058"/>
<path d="M203.435 505.846H195.681L183.625 283.544H191.379L203.435 505.846Z" fill="#309CC6"/>
<path d="M68.7608 283.66H205.556V274.748H68.7608V283.66Z" fill="#66C058"/>
<path d="M120.898 21.5841C120.898 21.5841 119.24 25.8083 120.898 31.3635C122.557 36.9186 108.052 38.9632 105.757 59.9686C104.561 70.8474 118.179 85.4104 118.179 85.4104L128.768 61.8975L141.865 51.7323C141.865 51.7323 144.643 45.3864 141.865 36.3592C139.088 27.3321 136.87 17.0127 136.87 17.0127L129.058 14.2351L120.918 21.5648L120.898 21.5841Z" fill="#256275"/>
<path d="M114.417 109.907C114.417 109.907 102.111 234.416 97.5399 262.944H110.618C110.618 262.944 128.151 152.689 131.932 141.56C131.932 141.56 142.54 212.619 142.27 262.944H154.904C154.904 262.944 158.511 140.595 150.429 108.345L114.437 109.888L114.417 109.907Z" fill="#F79834"/>
<path d="M132.356 41.4321L134.497 42.8016L150.642 50.9222L153.284 82.0156L151.703 110.929C151.703 110.929 124.467 113.418 114.398 109.907V63.2669L120.879 51.2694L126.184 42.8016L132.337 41.4321H132.356Z" fill="#66C058"/>
<path d="M206.675 35.7999L214.834 40.7763C214.834 40.7763 246.043 73.1042 217.38 116.195C182.082 169.239 118.217 119.686 124.1 81.9577C129.983 44.229 176.546 28.6823 206.694 35.7999H206.675Z" fill="#D9E2E9"/>
<path d="M214.815 40.7764L233.255 18.6137C233.988 17.7264 234.258 16.6463 234.142 15.6047C233.969 14.1002 232.966 12.7114 231.345 12.2099L216.455 7.50343C215.297 7.13695 214.121 7.31055 213.156 7.88921C212.211 8.46787 211.478 9.4323 211.266 10.6089L206.637 35.8L214.796 40.7764H214.815Z" fill="#C1CCD3"/>
<path d="M167.924 95.3636C167.924 95.3636 177.492 89.4033 178.186 90.4449C178.88 91.4865 173.055 96.7138 173.055 96.7138C173.055 96.7138 185.728 95.9036 184.686 97.9868C183.645 100.07 177.357 108.943 165.031 103.87L162.659 97.8711L167.924 95.3636Z" fill="#F8B08D"/>
<path d="M129.925 27.0237C129.925 27.0237 129.211 35.6843 126.202 42.8018C126.202 42.8018 134.053 53.5456 137.988 50.3244C141.923 47.1032 134.496 42.8018 134.496 42.8018L139.994 34.4305L129.925 27.0237Z" fill="#F8B08D"/>
<path d="M124.448 24.4388C125.393 20.5811 128.517 23.4744 128.517 23.4744L129.559 24.6703L131.526 19.9639L128.942 18.2086L129.058 16.9162L140.091 14.2544L155.695 20.5425C155.695 20.5425 155.387 28.4316 151.336 36.5907C145.839 47.6431 131.237 42.8017 128.595 31.0549C128.595 31.0549 123.483 28.4316 124.448 24.4581V24.4388Z" fill="#F8B08D"/>
<path d="M120.898 21.5842L168.464 23.5902L158.106 15.6047C158.106 15.6047 156.813 0.790938 141.19 0.038679C125.064 -0.752158 121.92 10.7246 120.898 21.5842Z" fill="#F79834"/>
<path d="M126.203 42.8018C126.203 42.8018 110.656 50.6908 112.469 61.724C114.283 72.7378 134.227 100.533 165.012 103.87C165.012 103.87 168.021 102.057 167.924 95.3635C167.924 95.3635 146.128 89.0946 138.008 80.2411C127.997 69.3237 126.222 48.8584 126.222 48.8584V42.8018H126.203Z" fill="#66C058"/>
<path d="M110.598 262.944V273.765C110.598 274.035 110.502 274.285 110.347 274.478C110.154 274.71 109.846 274.864 109.518 274.864H89.5734C89.0333 274.864 88.609 274.536 88.4161 274.112C88.2232 273.687 88.2618 273.147 88.6283 272.742L97.5397 262.924H110.617L110.598 262.944Z" fill="#256275"/>
<path d="M154.886 262.944L171.705 272.665C172.168 272.935 172.322 273.398 172.245 273.803C172.149 274.305 171.744 274.729 171.127 274.71H143.737C143.062 274.69 142.483 274.305 142.194 273.745C142.039 273.475 141.962 273.147 141.981 272.819L142.271 262.944H154.905H154.886Z" fill="#256275"/>
<path d="M145.26 192.308H429.189C431.176 192.308 432.719 194.006 432.546 195.973L405.059 500.484C404.809 503.165 403.748 505.595 402.127 507.524C399.774 510.321 396.264 512.057 392.387 512.057H182.063C178.166 512.057 174.656 510.302 172.322 507.524C170.702 505.595 169.641 503.165 169.39 500.484L141.904 195.973C141.73 194.006 143.273 192.308 145.26 192.308Z" fill="#66C058"/>
<path d="M145.26 192.308H429.189C431.176 192.308 432.719 194.006 432.546 195.973L405.059 500.484C404.809 503.165 403.748 505.595 402.127 507.524C399.774 510.321 396.264 512.057 392.387 512.057H358.824L379.155 242.652L143.601 214.355L142.81 206.042L141.904 195.954C141.73 193.986 143.273 192.289 145.26 192.289V192.308Z" fill="#4FA340"/>
<path d="M131.526 206.061H442.923C443.811 206.061 444.64 205.907 445.411 205.618C448.093 204.615 450.002 202.03 450.002 198.982V168.333C450.002 166.674 449.424 165.15 448.478 163.935C447.186 162.295 445.18 161.254 442.923 161.254H131.526C129.578 161.254 127.804 162.045 126.511 163.337C125.219 164.629 124.428 166.384 124.428 168.352V199.002C124.428 199.985 124.621 200.911 124.988 201.76C126.068 204.306 128.575 206.081 131.507 206.081L131.526 206.061Z" fill="#66C058"/>
<path d="M223.013 371.231L238.868 400.202C239.601 401.552 240.681 402.671 241.954 403.443C243.304 404.272 244.886 404.735 246.526 404.735H262.285V415.826L286.511 391.599L262.285 367.373V378.464H245.581C241.626 378.464 237.73 377.866 233.988 376.689C230.092 375.474 226.369 373.622 223.013 371.211V371.231ZM231.654 341.777L256.826 355.375L246.468 373.352C246.468 373.352 225.289 374.49 221.817 358.635L231.654 341.796V341.777ZM324.066 397.81C324.471 393.683 324.221 389.555 323.333 385.562C322.485 381.743 321.057 378.059 319.09 374.645L310.757 360.159L301.151 365.675L310.082 332.615L343.143 341.545L333.537 347.062L341.388 360.737C342.198 362.165 342.583 363.766 342.545 365.347C342.506 366.833 342.082 368.318 341.272 369.649L324.047 397.83L324.066 397.81ZM294.227 405.063V376.458L314.21 376.419C314.21 376.419 325.744 394.203 313.728 405.121L294.227 405.044V405.063ZM295.037 296.333C291.333 298.184 287.977 300.615 285.084 303.508C282.326 306.266 279.972 309.43 278.121 312.94L270.347 327.715L280.165 332.865L247.452 343.03L237.286 310.317L247.104 315.467L254.434 301.521C255.206 300.075 256.344 298.879 257.694 298.088C258.986 297.316 260.452 296.892 261.995 296.873L295.017 296.333H295.037ZM316.756 316.663L293.011 332.615L282.248 316.123C282.248 316.123 291.102 296.853 306.745 301.155L316.737 316.663H316.756Z" fill="white"/>
<path d="M504.724 200.468L508.061 190.013L511.359 170.339C511.456 169.76 511.224 169.239 510.819 168.911C510.472 168.622 509.99 168.506 509.508 168.622L487.596 174.139C486.94 174.312 486.535 174.852 486.458 175.45C486.419 175.817 486.516 176.202 486.766 176.53L499.092 192.116L504.705 200.448L504.724 200.468Z" fill="#C1CCD3"/>
<path d="M506.981 350.939C506.981 350.939 485.088 428.749 485.088 513.813L497.163 517.458C497.163 517.458 509.295 414.129 525.903 378.464C525.903 378.464 531.188 461.116 545.828 510.746L557.421 509.801C547.584 444.875 548.702 377.943 548.046 352.752L527.504 335.141L506.962 350.958L506.981 350.939Z" fill="#F79834"/>
<path d="M499.111 192.135L508.061 190.013C508.061 190.013 550.091 189.531 575.109 239.006C597.715 283.698 565.947 320.212 527.524 328.815C490.663 337.07 454.497 308.696 451.565 262.924C448.633 217.133 499.111 192.154 499.111 192.154V192.135Z" fill="#D9E2E9"/>
<path d="M479.475 307.076C490.335 296.275 508.447 279.551 511.379 276.851C515.294 273.244 524.707 271.354 524.707 271.354L538.904 271.759C538.904 271.759 564.075 291.337 571.54 301.347L570.961 300.595C573.064 297.991 578.387 289.485 578.387 289.485C577.327 298.705 574.356 306.208 573.411 308.465C573.334 308.677 573.237 308.909 573.122 309.102C573.122 309.121 573.083 309.159 573.083 309.159C571.405 312.265 566.891 313.48 564.152 311.956C562.011 310.78 556.379 306.517 549.879 301.502C550.265 318.669 548.606 326.905 548.066 352.752C548.066 352.752 529.645 361.104 506.981 350.958C506.981 350.958 508.08 324.07 507.772 303.122C507.772 303.122 490.122 320.289 484.664 322.102C480.98 323.337 476.89 321.311 474.807 318.148L474.73 318.032C474.73 318.032 474.73 318.032 474.73 318.013L460.804 296.236C460.804 296.236 470.371 303.508 479.494 307.076H479.475Z" fill="#66C058"/>
<path d="M538.903 271.759C538.903 271.759 534.968 274.343 528.642 273.282C522.855 272.318 524.9 270.042 525.054 268.287L527.523 262.693L533.233 259.26L539.694 262.693L539.984 268.287L538.884 271.759H538.903Z" fill="#F8B08D"/>
<path d="M552.946 258.237L554.875 259.915C551.326 267.766 542.086 268.287 542.974 275.076C542.974 275.076 532.211 272.685 532.442 260.996C532.693 249.287 542.086 243.481 542.086 243.481L550.766 249.152L552.946 258.276V258.237Z" fill="#256275"/>
<path d="M523.916 236.075C523.916 236.075 517.127 245.468 517.628 255.537C518.13 265.606 525.131 269.29 532.789 264.873C532.789 264.873 536.82 267.515 539.984 264.873C542.703 262.577 540.794 258.449 536.57 259.472C536.57 259.472 536.647 253.762 541.237 250.271C544.922 247.474 535.547 234.454 535.547 234.454L525.074 234.917L523.916 236.094V236.075Z" fill="#F8B08D"/>
<path d="M553.003 262.905L516.49 232.815L526.269 230.866C526.269 230.866 540.003 219.448 552.965 230.596C569.708 245.005 553.023 262.905 553.023 262.905H553.003Z" fill="#F79834"/>
<path d="M485.088 513.813L468.924 524.267C468.519 524.518 468.423 524.961 468.538 525.328C468.654 525.694 468.982 526.003 469.445 526.003H495.601C496.006 526.003 496.353 525.849 496.642 525.617C496.97 525.328 497.163 524.904 497.163 524.441V517.458L485.088 513.813Z" fill="#256275"/>
<path d="M545.848 510.746L531.864 522.049C531.536 522.3 531.439 522.666 531.497 523.013C531.574 523.495 531.999 523.92 532.577 523.881L558.077 522.184C558.887 522.126 559.524 521.547 559.717 520.834C559.774 520.564 559.794 520.274 559.717 520.004L557.441 509.839L545.848 510.784V510.746Z" fill="#256275"/>
</svg>
