<svg width="194" height="207" viewBox="0 0 194 207" fill="none" xmlns="http://www.w3.org/2000/svg">
<path d="M25.3774 38.4977C25.4664 38.4181 25.5507 38.3385 25.6397 38.2589C49.7908 16.5149 81.8706 15.5314 105.24 38.9426C117.421 51.1423 139.047 48.8101 154.521 53.2216C207.871 68.4372 198.646 140.825 172.293 175.813C148.512 207.387 96.9832 214.524 62.3651 198.985C31.9385 185.334 10.5177 154.837 2.89816 122.945C2.1348 119.746 1.50257 116.515 1.02489 113.265C-2.98859 86.1162 4.71523 57.2866 25.3774 38.4977Z" fill="#92E3A9"/>
<path opacity="0.7" d="M25.3774 38.4977C25.4664 38.4181 25.5507 38.3385 25.6397 38.2589C49.7908 16.5149 81.8706 15.5314 105.24 38.9426C117.421 51.1423 139.047 48.8101 154.521 53.2216C207.871 68.4372 198.646 140.825 172.293 175.813C148.512 207.387 96.9832 214.524 62.3651 198.985C31.9385 185.334 10.5177 154.837 2.89816 122.945C2.1348 119.746 1.50257 116.515 1.02489 113.265C-2.98859 86.1162 4.71523 57.2866 25.3774 38.4977Z" fill="white"/>
<path d="M126.824 58.0372H67.893C54.2103 58.0372 43.1182 69.1293 43.1182 82.812V141.743C43.1182 155.425 54.2103 166.517 67.893 166.517H126.824C140.506 166.517 151.598 155.425 151.598 141.743V82.812C151.598 69.1293 140.506 58.0372 126.824 58.0372Z" fill="white" stroke="#263238" stroke-width="0.536367" stroke-linecap="round" stroke-linejoin="round"/>
<path d="M76.3517 105.801C74.7051 103.087 66.8097 103.13 66.0964 104.336C66.0964 104.336 70.0118 116.984 74.3725 115.675C78.7332 114.367 76.3571 105.801 76.3571 105.801H76.3517Z" fill="#92E3A9"/>
<mask id="mask0_1_283" style="mask-type:luminance" maskUnits="userSpaceOnUse" x="66" y="103" width="12" height="13">
<path d="M76.3517 105.801C74.7051 103.087 66.8097 103.13 66.0964 104.336C66.0964 104.336 70.0118 116.984 74.3725 115.675C78.7332 114.367 76.3571 105.801 76.3571 105.801H76.3517Z" fill="white"/>
</mask>
<g mask="url(#mask0_1_283)">
<path opacity="0.3" d="M76.3517 105.801C74.7051 103.087 66.8097 103.13 66.0964 104.336C66.0964 104.336 70.0118 116.984 74.3725 115.675C78.7332 114.367 76.3571 105.801 76.3571 105.801H76.3517Z" fill="black"/>
</g>
<path d="M76.3517 105.801C74.7051 103.087 66.8097 103.13 66.0964 104.336C66.0964 104.336 70.0118 116.984 74.3725 115.675C78.7332 114.367 76.3571 105.801 76.3571 105.801H76.3517Z" stroke="#263238" stroke-width="0.536367" stroke-linecap="round" stroke-linejoin="round"/>
<path d="M66.9274 112.237C66.9274 112.237 66.0907 113.192 66.0907 114.624C66.0907 115.804 68.3434 139.367 75.2894 147.568C76.7429 149.289 78.4057 150.335 80.299 150.357C86.1776 150.421 89.0257 145.755 92.7696 134.936C93.2362 133.59 93.719 132.142 94.2178 130.597C97.8543 119.43 102.328 96.1354 102.328 96.1354C102.328 96.1354 94.3948 97.9751 89.6908 102.636C87.6366 104.674 85.4911 110.462 84.1233 114.71C83.4475 116.796 82.9594 118.513 82.761 119.231C82.6966 119.473 82.6591 119.601 82.6591 119.601C82.4767 118.899 82.1817 118.185 81.8277 117.494C81.8277 117.483 81.8277 117.477 81.817 117.477C81.8009 117.461 81.7955 117.44 81.7902 117.424C80.3688 114.699 78.0624 112.296 78.0624 112.296L76.3514 105.801C76.3514 105.801 75.7453 106.986 73.0045 107.404C70.2636 107.823 66.0907 104.336 66.0907 104.336L66.9274 112.237Z" fill="#92E3A9"/>
<mask id="mask1_1_283" style="mask-type:luminance" maskUnits="userSpaceOnUse" x="66" y="96" width="37" height="55">
<path d="M66.9274 112.237C66.9274 112.237 66.0907 113.192 66.0907 114.624C66.0907 115.804 68.3434 139.367 75.2894 147.568C76.7429 149.289 78.4057 150.335 80.299 150.357C86.1776 150.421 89.0257 145.755 92.7696 134.936C93.2362 133.59 93.719 132.142 94.2178 130.597C97.8543 119.43 102.328 96.1354 102.328 96.1354C102.328 96.1354 94.3948 97.9751 89.6908 102.636C87.6366 104.674 85.4911 110.462 84.1233 114.71C83.4475 116.796 82.9594 118.513 82.761 119.231C82.6966 119.473 82.6591 119.601 82.6591 119.601C82.4767 118.899 82.1817 118.185 81.8277 117.494C81.8277 117.483 81.8277 117.477 81.817 117.477C81.8009 117.461 81.7955 117.44 81.7902 117.424C80.3688 114.699 78.0624 112.296 78.0624 112.296L76.3514 105.801C76.3514 105.801 75.7453 106.986 73.0045 107.404C70.2636 107.823 66.0907 104.336 66.0907 104.336L66.9274 112.237Z" fill="white"/>
</mask>
<g mask="url(#mask1_1_283)">
<path opacity="0.3" d="M75.2887 147.568C76.7423 149.289 78.405 150.335 80.2984 150.357C86.1769 150.421 89.025 145.755 92.7689 134.936L92.6884 109.791C92.6884 109.791 88.2688 110.649 84.1227 114.715C83.4468 116.802 82.9588 118.518 82.7603 119.237C84.4123 122.68 87.298 130.597 83.9886 139.034C81.8431 144.505 78.3299 146.731 75.2887 147.568Z" fill="black"/>
</g>
<path d="M66.9274 112.237C66.9274 112.237 66.0907 113.192 66.0907 114.624C66.0907 115.804 68.3434 139.367 75.2894 147.568C76.7429 149.289 78.4057 150.335 80.299 150.357C86.1776 150.421 89.0257 145.755 92.7696 134.936C93.2362 133.59 93.719 132.142 94.2178 130.597C97.8543 119.43 102.328 96.1354 102.328 96.1354C102.328 96.1354 94.3948 97.9751 89.6908 102.636C87.6366 104.674 85.4911 110.462 84.1233 114.71C83.4475 116.796 82.9594 118.513 82.761 119.231C82.6966 119.473 82.6591 119.601 82.6591 119.601C82.4767 118.899 82.1817 118.185 81.8277 117.494C81.8277 117.483 81.8277 117.477 81.817 117.477C81.8009 117.461 81.7955 117.44 81.7902 117.424C80.3688 114.699 78.0624 112.296 78.0624 112.296L76.3514 105.801C76.3514 105.801 75.7453 106.986 73.0045 107.404C70.2636 107.823 66.0907 104.336 66.0907 104.336L66.9274 112.237Z" stroke="#263238" stroke-width="0.536367" stroke-linecap="round" stroke-linejoin="round"/>
<path d="M85.6249 127.282C86.0487 129.492 86.0647 131.884 85.0403 133.939" stroke="#263238" stroke-width="0.536367" stroke-linecap="round" stroke-linejoin="round"/>
<path d="M82.6591 119.607C83.8176 121.565 84.7241 123.726 85.3141 125.925" stroke="#263238" stroke-width="0.536367" stroke-linecap="round" stroke-linejoin="round"/>
<path d="M86.4077 122.385C86.4077 122.385 85.5817 120.111 83.345 119.601" stroke="#263238" stroke-width="0.536367" stroke-linecap="round" stroke-linejoin="round"/>
<path d="M74.9942 114.071C75.5306 113.782 76.0348 113.422 76.4907 113.02" stroke="#263238" stroke-width="0.536367" stroke-linecap="round" stroke-linejoin="round"/>
<path d="M66.9271 112.237C68.6756 114.109 71.4057 115.332 73.9535 114.517" stroke="#263238" stroke-width="0.536367" stroke-linecap="round" stroke-linejoin="round"/>
<path d="M81.7848 117.429C81.7848 117.429 81.7956 117.445 81.8173 117.478C81.801 117.462 81.7956 117.44 81.7902 117.424L81.7848 117.429Z" fill="#92E3A9" stroke="#263238" stroke-width="0.536367" stroke-linecap="round" stroke-linejoin="round"/>
<path d="M133.587 165.466C133.587 165.466 134.584 157.571 135.196 154.996C137.942 143.389 147.613 116.501 146.052 108.547C144.448 100.367 134.643 93.2175 118.826 92.429C104.151 91.6996 92.0558 96.897 89.1594 102.947C86.3971 108.719 86.5098 148.549 87.2124 166.523H127.52C130.701 166.523 133.581 165.471 133.581 165.471L133.587 165.466Z" fill="#92E3A9"/>
<mask id="mask2_1_283" style="mask-type:luminance" maskUnits="userSpaceOnUse" x="86" y="92" width="61" height="75">
<path d="M133.587 165.466C133.587 165.466 134.584 157.571 135.196 154.996C137.942 143.389 147.613 116.501 146.052 108.547C144.448 100.367 134.643 93.2175 118.826 92.429C104.151 91.6996 92.0558 96.897 89.1594 102.947C86.3971 108.719 86.5098 148.549 87.2124 166.523H127.52C130.701 166.523 133.581 165.471 133.581 165.471L133.587 165.466Z" fill="white"/>
</mask>
<g mask="url(#mask2_1_283)">
<path opacity="0.3" d="M130.438 117.483C122.838 127.904 114.551 143.497 114.551 143.497L91.9165 115.284C91.9165 115.284 97.1032 151.118 99.9298 154.996C102.756 158.874 102.633 160.655 102.633 160.655C102.633 160.655 109.81 168.384 115.189 167.333C119.754 166.442 136.172 148.125 141.289 126.885L130.444 117.483H130.438Z" fill="black"/>
</g>
<path d="M133.587 165.466C133.587 165.466 134.584 157.571 135.196 154.996C137.942 143.389 147.613 116.501 146.052 108.547C144.448 100.367 134.643 93.2175 118.826 92.429C104.151 91.6996 92.0558 96.897 89.1594 102.947C86.3971 108.719 86.5098 148.549 87.2124 166.523H127.52C130.701 166.523 133.581 165.471 133.581 165.471L133.587 165.466Z" stroke="#263238" stroke-width="0.536367" stroke-linecap="round" stroke-linejoin="round"/>
<path d="M125.219 94.0168C125.219 94.0168 117.33 97.4013 108.791 94.5961C108.791 94.5961 109.89 91.925 109.896 89.7205C109.901 88.6156 109.622 87.6233 108.791 87.1513C108.791 87.1513 109.177 86.7276 109.831 86.0571H109.836C113.071 82.7638 122.892 73.5061 126.088 79.0253C126.088 79.0253 122.741 79.3418 125.219 94.0168Z" fill="white" stroke="#263238" stroke-width="0.536367" stroke-linecap="round" stroke-linejoin="round"/>
<path d="M116.3 83.7936C116.3 83.7936 115.002 88.5512 109.896 89.7204C109.901 88.6155 109.622 87.6232 108.791 87.1512C108.791 87.1512 109.177 86.7275 109.831 86.057H109.836C112.964 84.8288 116.3 83.7936 116.3 83.7936Z" fill="#263238"/>
<path d="M128.308 71.2588C131.698 57.7531 124.398 53.135 119.802 51.3649C112.432 48.5276 103.137 51.7565 100.959 59.2549C98.7815 66.7587 100.745 68.4643 100.643 71.5323C100.573 73.6832 99.1462 74.7452 100.718 80.1464C101.758 83.7079 103.684 87.8003 105.931 87.9291C112.019 88.2831 117.78 84.8181 117.458 83.1876" fill="white"/>
<path d="M128.308 71.2588C131.698 57.7531 124.398 53.135 119.802 51.3649C112.432 48.5276 103.137 51.7565 100.959 59.2549C98.7815 66.7587 100.745 68.4643 100.643 71.5323C100.573 73.6832 99.1462 74.7452 100.718 80.1464C101.758 83.7079 103.684 87.8003 105.931 87.9291C112.019 88.2831 117.78 84.8181 117.458 83.1876" stroke="#263238" stroke-width="0.536367" stroke-linecap="round" stroke-linejoin="round"/>
<path d="M109.188 64.6399C109.188 64.6399 111.912 63.6959 113.366 66.6674" stroke="#263238" stroke-width="0.536367" stroke-linecap="round" stroke-linejoin="round"/>
<path d="M99.9246 64.2003C99.9246 64.2003 101.952 62.4785 103.979 64.9136" stroke="#263238" stroke-width="0.536367" stroke-linecap="round" stroke-linejoin="round"/>
<path d="M110.405 71.4948C110.778 71.4948 111.081 70.9857 111.081 70.3577C111.081 69.7297 110.778 69.2206 110.405 69.2206C110.032 69.2206 109.729 69.7297 109.729 70.3577C109.729 70.9857 110.032 71.4948 110.405 71.4948Z" fill="#263238"/>
<path d="M101.952 69.7355C101.952 70.363 102.252 70.8726 102.628 70.8726C103.003 70.8726 103.303 70.363 103.303 69.7355C103.303 69.1079 103.003 68.5984 102.628 68.5984C102.252 68.5984 101.952 69.1079 101.952 69.7355Z" fill="#263238"/>
<path d="M103.98 67.1342C103.98 67.1342 104.398 70.2612 104.21 70.8726C104.022 71.4841 101.909 73.3936 101.823 74.241C101.738 75.0885 103.593 75.9467 103.593 75.9467" fill="white"/>
<path d="M103.98 67.1342C103.98 67.1342 104.398 70.2612 104.21 70.8726C104.022 71.4841 101.909 73.3936 101.823 74.241C101.738 75.0885 103.593 75.9467 103.593 75.9467" stroke="#263238" stroke-width="0.536367" stroke-linecap="round" stroke-linejoin="round"/>
<path d="M102.628 77.7434C102.628 77.7434 106.855 78.8054 110.405 77.7434C110.405 77.7434 108.732 82.9837 105.422 82.4527C103.234 82.0987 103.792 78.666 103.792 78.666L102.628 77.7488V77.7434Z" fill="#263238"/>
<path d="M114.277 57.0719C114.277 57.0719 112.529 55.8704 110.099 56.4336C107.669 57.0022 107.289 62.1084 107.289 62.1084C107.289 62.1084 105.991 60.9606 105.76 59.5445L104.998 61.7383L102.971 59.8288L102.295 62.1084L101.49 60.4617L99.9296 63.4976C99.9296 63.4976 97.5857 60.4778 97.9504 58.1446C98.9427 51.778 103.99 46.5484 114.556 47.1116C119.877 47.3958 121.862 51.0378 121.862 51.0378C121.862 51.0378 127.064 50.3351 129.371 53.0331C137.229 62.221 132.299 72.1974 124.838 81.6536L122.28 72.6426L119.802 72.3583C119.802 72.3583 119.893 70.996 119.818 69.58C119.743 68.164 118.901 66.0936 118.901 66.0936L117.984 66.5066L118.365 64.7795L116.273 65.8522C116.273 65.8522 117.158 58.7561 116.273 57.5546C115.388 56.3532 114.277 57.0612 114.277 57.0612V57.0719Z" fill="#263238"/>
<path d="M120.72 73.6188C120.72 73.6188 123.198 69.006 125.783 70.1324C128.374 71.2587 126.571 76.7726 124.319 78.5748C122.066 80.377 120.72 78.5748 120.72 78.5748" fill="white"/>
<path d="M120.72 73.6188C120.72 73.6188 123.198 69.006 125.783 70.1324C128.374 71.2587 126.571 76.7726 124.319 78.5748C122.066 80.377 120.72 78.5748 120.72 78.5748" stroke="#263238" stroke-width="0.536367" stroke-linecap="round" stroke-linejoin="round"/>
<g opacity="0.2">
<path d="M116.519 55.1732C116.519 55.1732 115.597 52.5879 112.566 52.3895C109.536 52.191 107.358 55.4736 107.288 57.7638" stroke="white" stroke-width="0.536367" stroke-linecap="round" stroke-linejoin="round"/>
<path d="M118.568 55.0713C118.568 55.0713 120.644 53.4783 121.851 55.0713C123.889 57.7638 122.2 64.2593 122.2 64.2593" stroke="white" stroke-width="0.536367" stroke-linecap="round" stroke-linejoin="round"/>
<path d="M121.395 53.1725C121.395 53.1725 123.556 51.8477 125.407 54.4061C127.257 56.9646 127.059 63.1865 127.059 63.1865" stroke="white" stroke-width="0.536367" stroke-linecap="round" stroke-linejoin="round"/>
<path d="M127.515 52.8292C127.515 52.8292 131.254 54.4061 131.468 61.9421" stroke="white" stroke-width="0.536367" stroke-linecap="round" stroke-linejoin="round"/>
<path d="M118.821 53.1726C118.821 53.1726 116.718 49.6004 110.485 50.7965C104.258 51.9926 103.32 58.3593 103.32 58.3593" stroke="white" stroke-width="0.536367" stroke-linecap="round" stroke-linejoin="round"/>
<path d="M120.37 52.0891C120.37 52.0891 117.86 48.6081 110.238 49.3053C102.617 50.0026 99.5487 56.6697 100.321 59.8503" stroke="white" stroke-width="0.536367" stroke-linecap="round" stroke-linejoin="round"/>
</g>
<path d="M57.8844 96.7415C57.8844 96.7415 66.9544 89.7633 70.9074 89.0553C74.8604 88.3473 88.4627 91.3188 88.4627 91.3188V107.426C88.4627 107.426 79.9505 108.359 76.1316 111.154C72.3127 113.948 59.1556 114.399 59.1556 114.399L57.8844 96.7415Z" fill="#757575" stroke="#263238" stroke-width="0.536367" stroke-linecap="round" stroke-linejoin="round"/>
<path d="M66.3964 91.7479C66.3964 91.7479 66.6055 89.699 66.922 88.5672C67.2438 87.4355 69.4376 87.5589 69.931 87.9558C70.4245 88.3527 70.9018 89.05 70.9018 89.05C70.9018 89.05 70.1402 89.2699 69.931 89.345C69.7165 89.4147 69.5073 93.5179 66.3964 91.7479Z" fill="white" stroke="#263238" stroke-width="0.536367" stroke-linecap="round" stroke-linejoin="round"/>
<path d="M77.9762 67.1485L68.9397 93.3479L81.9152 97.8233L90.9517 71.6239L77.9762 67.1485Z" fill="#92E3A9"/>
<mask id="mask3_1_283" style="mask-type:luminance" maskUnits="userSpaceOnUse" x="68" y="67" width="23" height="31">
<path d="M77.9762 67.1485L68.9397 93.3479L81.9152 97.8233L90.9517 71.6239L77.9762 67.1485Z" fill="white"/>
</mask>
<g mask="url(#mask3_1_283)">
<path opacity="0.5" d="M68.9444 93.3517L81.9191 97.825L90.9569 71.6288L77.9822 67.1555L68.9444 93.3517ZM89.5891 72.2939L81.254 96.4626L70.3068 92.6866L78.6419 68.5179L89.5891 72.2939Z" fill="black"/>
<path opacity="0.5" d="M79.9078 70.5667L78.7922 73.801C78.6688 74.1658 78.2719 74.3535 77.9125 74.2301C77.5478 74.1068 77.3601 73.7099 77.4834 73.3505L78.5991 70.1162C78.7224 69.7515 79.1193 69.5637 79.4787 69.6871C79.8434 69.8105 80.0312 70.2074 79.9078 70.5667Z" fill="black"/>
<path opacity="0.5" d="M82.4177 91.63L81.3021 94.8643C81.1787 95.229 80.7818 95.4167 80.4225 95.2934C80.0577 95.17 79.87 94.7731 79.9934 94.4137L81.109 91.1794C81.2324 90.8147 81.6293 90.627 81.9887 90.7503C82.3534 90.8737 82.5411 91.2706 82.4177 91.63Z" fill="black"/>
<path opacity="0.5" d="M75.8847 81.0903C75.1123 83.3324 76.303 85.7835 78.545 86.5559C80.7871 87.3283 83.2383 86.1376 84.0106 83.8955C84.783 81.6535 83.5923 79.2023 81.3502 78.43C79.1082 77.6576 76.657 78.8483 75.8847 81.0903ZM82.2084 82.9569L82.5302 83.0695L82.3372 83.6381L82.0153 83.5254C81.7418 83.9867 81.2752 84.1047 80.6744 83.9009L80.3741 83.799L80.5993 83.1446L80.9426 83.2626C81.2591 83.3699 81.42 83.2733 81.4951 83.0534C81.5702 82.8335 81.5058 82.6565 81.1893 82.5493C80.8729 82.442 80.6047 82.4903 80.0791 82.8282C79.4354 83.2412 79.017 83.3109 78.5129 83.1393C77.9229 82.9354 77.6279 82.56 77.6869 82.0397L77.3597 81.9271L77.5528 81.3585L77.88 81.4712C78.1481 81.0152 78.6148 80.8919 79.2101 81.1011L79.3496 81.1493L79.1243 81.8037L78.942 81.7393C78.6255 81.6321 78.4646 81.7179 78.3895 81.9378C78.3144 82.1577 78.3895 82.324 78.706 82.4313C79.0224 82.5385 79.2852 82.4903 79.8162 82.1523C80.4652 81.7447 80.8782 81.6696 81.3824 81.8413C81.9778 82.0451 82.2728 82.4366 82.2084 82.9623V82.9569Z" fill="black"/>
</g>
<path d="M77.9762 67.1485L68.9397 93.3479L81.9152 97.8233L90.9517 71.6239L77.9762 67.1485Z" stroke="#263238" stroke-width="0.536367" stroke-linecap="round" stroke-linejoin="round"/>
<path d="M78.8338 52.2196L71.7169 25.4349L58.4516 28.9596L65.5684 55.7443L78.8338 52.2196Z" fill="#92E3A9"/>
<mask id="mask4_1_283" style="mask-type:luminance" maskUnits="userSpaceOnUse" x="58" y="25" width="21" height="31">
<path d="M78.8338 52.2196L71.7169 25.4349L58.4516 28.9596L65.5684 55.7443L78.8338 52.2196Z" fill="white"/>
</mask>
<g mask="url(#mask4_1_283)">
<path opacity="0.5" d="M71.7274 25.437L58.4631 28.9609L65.5807 55.7417L78.845 52.2178L71.7274 25.437ZM66.3423 54.433L59.7772 29.7226L70.9658 26.7511L77.5309 51.4615L66.3423 54.433Z" fill="black"/>
<path opacity="0.5" d="M75.3427 50.4636L74.4631 47.1542C74.3665 46.7841 74.5864 46.4033 74.9565 46.3068C75.3266 46.2102 75.7075 46.4301 75.804 46.8002L76.6836 50.1096C76.7802 50.4797 76.5603 50.8605 76.1902 50.9571C75.8201 51.0536 75.4393 50.8337 75.3427 50.4636Z" fill="black"/>
<path opacity="0.5" d="M61.5045 34.3833L60.6248 31.0739C60.5283 30.7038 60.7482 30.323 61.1183 30.2265C61.4884 30.1299 61.8692 30.3498 61.9657 30.7199L62.8454 34.0293C62.9419 34.3994 62.722 34.7802 62.3519 34.8768C61.9818 34.9733 61.601 34.7534 61.5045 34.3833Z" fill="black"/>
<path opacity="0.5" d="M72.8062 39.4842C72.1948 37.1886 69.8401 35.8262 67.5498 36.4323C65.2595 37.0384 63.8918 39.3984 64.4979 41.6887C65.104 43.979 67.464 45.3467 69.7543 44.7406C72.0499 44.1292 73.4123 41.7745 72.8062 39.4842ZM66.52 41.4634L66.1928 41.5493L66.0373 40.97L66.3645 40.8842C66.3323 40.3478 66.6541 39.9884 67.2655 39.8275L67.5766 39.7471L67.7536 40.4175L67.3996 40.5141C67.0778 40.5999 67.0027 40.7715 67.0617 40.9968C67.1207 41.2221 67.2763 41.3347 67.5981 41.2489C67.9199 41.1631 68.1184 40.9753 68.3651 40.3961C68.6655 39.6988 68.9766 39.4038 69.4915 39.2643C70.0976 39.1034 70.5481 39.2536 70.7895 39.7203L71.122 39.6291L71.2776 40.2083L70.945 40.2995C70.9772 40.8305 70.6607 41.1899 70.0493 41.3508L69.9098 41.3884L69.7328 40.7179L69.9206 40.6696C70.2424 40.5838 70.3282 40.4229 70.2692 40.1976C70.2102 39.9723 70.0547 39.8758 69.7328 39.9616C69.411 40.0474 69.2233 40.2352 68.9658 40.8144C68.6547 41.5171 68.3544 41.8067 67.8395 41.9462C67.228 42.1071 66.7667 41.9462 66.5307 41.4742L66.52 41.4634Z" fill="black"/>
</g>
<path d="M78.8338 52.2196L71.7169 25.4349L58.4516 28.9596L65.5684 55.7443L78.8338 52.2196Z" stroke="#263238" stroke-width="0.536367" stroke-linecap="round" stroke-linejoin="round"/>
<path d="M57.8844 96.7415C57.8844 96.7415 71.0415 92.3057 74.5761 91.6728C78.1108 91.0346 88.4627 91.3188 88.4627 91.3188V107.426C88.4627 107.426 77.6602 110.703 75.9921 112.017C74.324 113.331 59.1609 114.399 59.1609 114.399L57.8898 96.7415H57.8844Z" fill="#999999" stroke="#263238" stroke-width="0.536367" stroke-linecap="round" stroke-linejoin="round"/>
<path d="M75.8358 98.6562C75.1439 102.384 75.6427 107.383 73.17 110.408" stroke="#263238" stroke-width="0.536367" stroke-linecap="round" stroke-linejoin="round"/>
<path d="M76.984 93.0137C76.7158 94.2312 76.4637 95.4488 76.2224 96.6717" stroke="#263238" stroke-width="0.536367" stroke-linecap="round" stroke-linejoin="round"/>
<path d="M90.0772 39.57C90.0772 41.1952 88.7578 42.5147 87.1326 42.5147C85.5074 42.5147 84.1879 41.1952 84.1879 39.57C84.1879 37.9448 85.5074 36.6254 87.1326 36.6254C88.7578 36.6254 90.0772 37.9448 90.0772 39.57Z" fill="#BFBFBF" stroke="#263238" stroke-width="0.536367" stroke-linecap="round" stroke-linejoin="round"/>
<path opacity="0.5" d="M88.7792 41.4044C89.7929 40.4979 89.8787 38.9371 88.9669 37.9233C88.0551 36.9096 86.4996 36.8238 85.4859 37.7356C84.4722 38.6474 84.3864 40.2029 85.2982 41.2166C86.21 42.2304 87.7655 42.3162 88.7792 41.4044ZM86.1296 38.7064L86.0008 38.5616L86.2583 38.331L86.387 38.4758C86.6498 38.3203 86.9234 38.39 87.1647 38.6635L87.2881 38.7976L86.9931 39.0604L86.8536 38.9049C86.7249 38.7654 86.6176 38.7654 86.5211 38.8566C86.4192 38.9478 86.4031 39.0551 86.5318 39.1945C86.6606 39.334 86.8054 39.3876 87.1647 39.3662C87.5992 39.3394 87.8298 39.4198 88.0337 39.6451C88.275 39.9133 88.3126 40.1815 88.1409 40.4282L88.275 40.5784L88.0176 40.809L87.8835 40.6588C87.6207 40.8144 87.3525 40.7446 87.1111 40.4711L87.0575 40.4067L87.3525 40.1439L87.4276 40.2244C87.5563 40.3638 87.6582 40.3692 87.7601 40.278C87.862 40.1868 87.8674 40.0849 87.7387 39.9401C87.6099 39.8006 87.4651 39.747 87.1057 39.7685C86.6659 39.7953 86.4406 39.7148 86.2368 39.4895C85.9955 39.2214 85.9579 38.9424 86.1349 38.6957L86.1296 38.7064Z" fill="black"/>
<path d="M76.1205 16.281C76.1205 17.9061 74.801 19.2256 73.1758 19.2256C71.5506 19.2256 70.2311 17.9061 70.2311 16.281C70.2311 14.6558 71.5506 13.3363 73.1758 13.3363C74.801 13.3363 76.1205 14.6558 76.1205 16.281Z" fill="#BFBFBF" stroke="#263238" stroke-width="0.536367" stroke-linecap="round" stroke-linejoin="round"/>
<path opacity="0.5" d="M74.8227 18.1207C75.8364 17.2142 75.9222 15.6534 75.0104 14.6397C74.1039 13.6259 72.5431 13.5401 71.5294 14.4519C70.5156 15.3638 70.4298 16.9192 71.3416 17.9329C72.2481 18.9467 73.8089 19.0325 74.8227 18.1207ZM72.173 15.4228L72.0443 15.2779L72.3017 15.0473L72.4305 15.1921C72.6933 15.0366 72.9668 15.1063 73.2082 15.3798L73.3316 15.5139L73.0366 15.7768L72.8971 15.6212C72.7684 15.4818 72.6611 15.4818 72.5646 15.5729C72.4626 15.6641 72.4465 15.7714 72.5753 15.9108C72.704 16.0503 72.8488 16.1039 73.2082 16.0825C73.6427 16.0557 73.8733 16.1361 74.0771 16.3614C74.3185 16.6296 74.356 16.8978 74.1844 17.1445L74.3185 17.2947L74.061 17.5253L73.9269 17.3751C73.6641 17.5307 73.3959 17.4609 73.1546 17.1874L73.1009 17.123L73.3959 16.8602L73.471 16.9407C73.5997 17.0801 73.7016 17.0855 73.8036 16.9943C73.9055 16.9031 73.9108 16.8012 73.7821 16.6564C73.6534 16.5169 73.5086 16.4633 73.1492 16.4848C72.7094 16.5116 72.4841 16.4311 72.2803 16.2058C72.0389 15.9377 72.0014 15.6588 72.1784 15.412L72.173 15.4228Z" fill="black"/>
<path d="M62.4427 73.2217C60.8604 72.8356 59.895 71.2372 60.2865 69.6549C60.6727 68.0726 62.2711 67.1072 63.8533 67.4987C65.4356 67.8849 66.4011 69.4833 66.0095 71.0656C65.6233 72.6478 64.025 73.6133 62.4427 73.2217Z" fill="#BFBFBF" stroke="#263238" stroke-width="0.536367" stroke-linecap="round" stroke-linejoin="round"/>
<path opacity="0.5" d="M60.9682 71.5215C61.6064 72.723 63.1029 73.1789 64.3044 72.5353C65.5058 71.897 65.9617 70.4005 65.3181 69.1991C64.6798 67.9976 63.1834 67.5417 61.9819 68.1853C60.7804 68.8236 60.3245 70.3201 60.9682 71.5215ZM64.2186 69.5906L64.3902 69.4994L64.5511 69.7998L64.3795 69.891C64.4653 70.186 64.3365 70.4273 64.0147 70.599L63.8538 70.6848L63.6661 70.3362L63.8538 70.2396C64.0201 70.1484 64.0415 70.0412 63.9825 69.9232C63.9182 69.8052 63.8216 69.7622 63.65 69.8534C63.4837 69.9446 63.3979 70.0733 63.3335 70.4273C63.2584 70.8564 63.1244 71.0603 62.8562 71.2051C62.5397 71.3713 62.2662 71.3499 62.0731 71.1193L61.8961 71.2104L61.7352 70.9101L61.9122 70.8189C61.8264 70.5293 61.9551 70.2879 62.2769 70.1163L62.352 70.0787L62.5397 70.4273L62.4432 70.481C62.2769 70.5722 62.2447 70.6741 62.3091 70.7921C62.3734 70.9101 62.47 70.9423 62.6416 70.8511C62.8079 70.7599 62.8937 70.6312 62.9581 70.2772C63.0385 69.8427 63.1673 69.6443 63.4355 69.4994C63.7573 69.3278 64.0362 69.3546 64.2293 69.5906H64.2186Z" fill="black"/>
<path d="M97.7733 99.4126C97.0224 98.0502 94.8769 98.71 92.3721 102.642C89.8673 106.573 88.8482 111.164 89.4543 112.832C90.0603 114.501 98.1541 116.528 98.1541 116.528L99.8222 112.296L97.7733 99.4126Z" fill="#92E3A9"/>
<mask id="mask5_1_283" style="mask-type:luminance" maskUnits="userSpaceOnUse" x="89" y="98" width="11" height="19">
<path d="M97.7733 99.4126C97.0224 98.0502 94.8769 98.71 92.3721 102.642C89.8673 106.573 88.8482 111.164 89.4543 112.832C90.0603 114.501 98.1541 116.528 98.1541 116.528L99.8222 112.296L97.7733 99.4126Z" fill="white"/>
</mask>
<g mask="url(#mask5_1_283)">
<path opacity="0.5" d="M97.7733 99.4126C97.0224 98.0502 94.8769 98.71 92.3721 102.642C89.8673 106.573 88.8482 111.164 89.4543 112.832C90.0603 114.501 98.1541 116.528 98.1541 116.528L99.8222 112.296L97.7733 99.4126Z" fill="black"/>
</g>
<path d="M97.7733 99.4126C97.0224 98.0502 94.8769 98.71 92.3721 102.642C89.8673 106.573 88.8482 111.164 89.4543 112.832C90.0603 114.501 98.1541 116.528 98.1541 116.528L99.8222 112.296L97.7733 99.4126Z" stroke="#263238" stroke-width="0.536367" stroke-linecap="round" stroke-linejoin="round"/>
<path d="M101.196 107.646L96.5506 97.4817C96.5506 97.4817 93.5255 93.1532 92.9302 91.5012C92.3348 89.8492 85.6785 88.5673 84.1766 88.5673C82.6748 88.5673 81.0818 91.2545 81.0818 91.2545H84.2088C84.2088 91.2545 85.3728 92.4827 85.5229 93.2176C85.6678 93.9524 81.3875 97.5997 80.7761 97.9483C80.1646 98.297 78.5502 98.8333 76.8499 100.094C75.1496 101.354 71.3199 102.336 70.6012 103.468C69.8878 104.599 70.392 104.808 70.9016 105.071C71.4165 105.329 72.2693 105.393 72.2693 105.393C72.2693 105.393 71.9636 106.675 72.2693 107.351C72.575 108.021 74.3558 107.962 74.3558 107.962C74.3558 107.962 74.4416 108.896 75.3105 109.04C76.1794 109.185 76.8445 109.448 76.8445 109.448C76.8445 109.448 80.524 110.07 82.176 109.722C83.828 109.373 88.8377 106.702 90.0606 106.814C91.2835 106.927 94.6734 114.785 94.6734 114.785C94.6734 114.785 100.455 113.803 101.19 107.657L101.196 107.646Z" fill="white" stroke="#263238" stroke-width="0.536367" stroke-linecap="round" stroke-linejoin="round"/>
<path d="M72.2745 105.382C72.2745 105.382 77.0803 104.342 77.4021 103.977C77.7186 103.612 81.0816 102.566 81.0816 102.566" stroke="#263238" stroke-width="0.536367" stroke-linecap="round" stroke-linejoin="round"/>
<path d="M74.3663 107.952C74.3663 107.952 77.0643 107.399 78.0029 107.281C78.9415 107.158 82.7927 105.388 82.7927 105.388" stroke="#263238" stroke-width="0.536367" stroke-linecap="round" stroke-linejoin="round"/>
<path d="M76.8496 109.437C76.8496 109.437 80.6525 109.115 81.4463 108.745C82.2401 108.381 84.5626 107.646 84.5626 107.646" stroke="#263238" stroke-width="0.536367" stroke-linecap="round" stroke-linejoin="round"/>
<path d="M133.045 103.167C127.403 106.884 123.991 115.868 123.991 115.868L115.184 132.254C115.184 132.254 107.777 114.018 105.68 113.782L97.7738 99.4072C97.7738 99.4072 98.707 107.828 95.4138 111.406C92.1205 114.983 89.4547 112.827 89.4547 112.827L91.9166 119.623L92.5281 122.852C92.5281 122.852 102.918 154.025 106.318 155.956C109.713 157.887 117.442 158.751 123.997 153.95C130.551 149.15 141.761 131.005 142.823 125.067" fill="#92E3A9"/>
<path d="M133.045 103.167C127.403 106.884 123.991 115.868 123.991 115.868L115.184 132.254C115.184 132.254 107.777 114.018 105.68 113.782L97.7738 99.4072C97.7738 99.4072 98.707 107.828 95.4138 111.406C92.1205 114.983 89.4547 112.827 89.4547 112.827L91.9166 119.623L92.5281 122.852C92.5281 122.852 102.918 154.025 106.318 155.956C109.713 157.887 117.442 158.751 123.997 153.95C130.551 149.15 141.761 131.005 142.823 125.067" stroke="#263238" stroke-width="0.536367" stroke-linecap="round" stroke-linejoin="round"/>
<path d="M102.499 115.943C102.783 115.514 103.046 115.074 103.288 114.624" stroke="#263238" stroke-width="0.536367" stroke-linecap="round" stroke-linejoin="round"/>
<path d="M95.8369 120.202C98.1003 119.961 100.203 118.781 101.667 117.048" stroke="#263238" stroke-width="0.536367" stroke-linecap="round" stroke-linejoin="round"/>
<path d="M91.9113 119.623C92.791 119.993 93.7296 120.202 94.679 120.24" stroke="#263238" stroke-width="0.536367" stroke-linecap="round" stroke-linejoin="round"/>
<path d="M117.496 139.479C117.533 140.23 117.485 140.981 117.313 141.716" stroke="#263238" stroke-width="0.536367" stroke-linecap="round" stroke-linejoin="round"/>
<path d="M115.184 132.254C116.219 134.057 116.997 136.079 117.346 138.128" stroke="#263238" stroke-width="0.536367" stroke-linecap="round" stroke-linejoin="round"/>
<path d="M120.054 135.188C120.054 135.188 118.45 133.182 116.627 132.254" stroke="#263238" stroke-width="0.536367" stroke-linecap="round" stroke-linejoin="round"/>
<path d="M133.978 111.411C133.978 111.411 129.022 110.746 125.091 115.284" stroke="#263238" stroke-width="0.536367" stroke-linecap="round" stroke-linejoin="round"/>
<path d="M139.224 125.271C138.275 125.405 137.304 125.26 136.446 124.82" stroke="#263238" stroke-width="0.536367" stroke-linecap="round" stroke-linejoin="round"/>
<path d="M145.172 118.625C144.395 122.385 142.292 124.295 140.463 124.96" stroke="#263238" stroke-width="0.536367" stroke-linecap="round" stroke-linejoin="round"/>
<path d="M121.809 97.2456C121.809 97.2456 113.581 99.1551 108.995 96.0924" stroke="#263238" stroke-width="0.536367" stroke-linecap="round" stroke-linejoin="round"/>
<path d="M92.3029 147.589C92.3029 147.589 96.7869 160.247 107.155 162.393" stroke="#263238" stroke-width="0.536367" stroke-linecap="round" stroke-linejoin="round"/>
<path d="M122.269 165.134C121.738 165.536 121.175 165.906 120.606 166.255" stroke="#263238" stroke-width="0.536367" stroke-linecap="round" stroke-linejoin="round"/>
<path d="M65.0555 11.8346V22.9642" stroke="#263238" stroke-width="0.536367" stroke-linecap="round" stroke-linejoin="round"/>
<path d="M65.0555 5.15686V9.6087" stroke="#263238" stroke-width="0.536367" stroke-linecap="round" stroke-linejoin="round"/>
<path d="M65.0555 1V3.38147" stroke="#263238" stroke-width="0.536367" stroke-linecap="round" stroke-linejoin="round"/>
<path d="M62.9529 21.6663L65.0554 24.2676L67.158 21.6663" stroke="#263238" stroke-width="0.536367" stroke-linecap="round" stroke-linejoin="round"/>
<path d="M70.6176 67.5579V78.6875" stroke="#263238" stroke-width="0.536367" stroke-linecap="round" stroke-linejoin="round"/>
<path d="M70.6176 60.8801V65.332" stroke="#263238" stroke-width="0.536367" stroke-linecap="round" stroke-linejoin="round"/>
<path d="M70.6176 56.7233V59.1047" stroke="#263238" stroke-width="0.536367" stroke-linecap="round" stroke-linejoin="round"/>
<path d="M68.5207 77.384L70.6179 79.9854L72.7205 77.384" stroke="#263238" stroke-width="0.536367" stroke-linecap="round" stroke-linejoin="round"/>
<path d="M81.6133 34.067V45.1966" stroke="#263238" stroke-width="0.536367" stroke-linecap="round" stroke-linejoin="round"/>
<path d="M81.6133 27.3947V31.8411" stroke="#263238" stroke-width="0.536367" stroke-linecap="round" stroke-linejoin="round"/>
<path d="M81.6133 23.2324V25.6139" stroke="#263238" stroke-width="0.536367" stroke-linecap="round" stroke-linejoin="round"/>
<path d="M79.5107 43.8987L81.6132 46.5001L83.7158 43.8987" stroke="#263238" stroke-width="0.536367" stroke-linecap="round" stroke-linejoin="round"/>
</svg>
