<svg width="295" height="134" viewBox="0 0 295 134" fill="none" xmlns="http://www.w3.org/2000/svg">
<path d="M37.0866 133.573C37.0866 133.573 7.44653 101.748 32.0735 67.2944C53.9246 36.7242 79.4013 38.814 98.0928 51.2199C106.054 56.5037 129.006 51.8715 148.542 20.7646C175.183 -21.6564 267.531 4.07198 250.693 69.3373C242.544 100.921 275.491 102.069 258.704 133.64L37.0866 133.573Z" fill="#DCFFE0"/>
<path d="M90.6283 29.1526L71.3157 128.996C70.9225 131.027 72.4791 132.912 74.5476 132.912H84.7332L90.6294 29.1526H90.6283Z" fill="#757575"/>
<path d="M90.8589 28.7485L78.0579 126.779C77.6331 130.029 80.1645 132.911 83.4421 132.911H102.221L91.6333 28.3934L90.8589 28.7474V28.7485Z" fill="#78ACEA"/>
<path d="M90.8601 28.7485L85.1295 126.155C84.9138 129.821 87.8287 132.912 91.5017 132.912H119.509L90.8601 28.7485Z" fill="#699DEE"/>
<path d="M90.6451 29.5437L93.4314 126.155C93.2157 129.821 96.1306 132.912 99.8036 132.912H127.811L90.6451 29.5437Z" fill="#5288D8"/>
<path d="M224.737 132.912H114.307C111.551 132.912 109.187 130.942 108.691 128.23L91.8883 36.3374C91.1258 32.1655 94.3293 28.3215 98.5709 28.3215H207.7C210.456 28.3215 212.82 30.292 213.316 33.0043L230.353 126.175C230.994 129.682 228.301 132.912 224.737 132.912Z" fill="#D7E9FF"/>
<path d="M94.0734 48.2723H216.184L213.053 30.9226C212.782 29.4172 211.472 28.3225 209.942 28.3225H91.6639C91.018 28.3225 90.5289 28.9085 90.6454 29.5436L94.0734 48.2712V48.2723Z" fill="#717171"/>
<path d="M96.9279 23.1018C94.0087 23.1018 91.6341 25.4753 91.6341 28.3945H92.6515C92.6515 26.0363 94.5697 24.117 96.929 24.117C99.2884 24.117 101.208 26.0352 101.208 28.3945C101.208 28.8684 101.13 29.3237 100.988 29.7485C100.567 31.0055 99.5792 32.0043 98.3276 32.4368C97.9617 32.5631 97.575 32.6437 97.173 32.6655V33.6829C97.6425 33.6622 98.0956 33.5794 98.5259 33.4432C100.243 32.8997 101.585 31.5011 102.049 29.7496C102.163 29.3171 102.224 28.8629 102.224 28.3956C102.224 25.4764 99.8493 23.1029 96.9301 23.1029L96.9279 23.1018Z" fill="#78ACEA"/>
<path d="M98.5649 33.1361C98.5649 33.2418 98.5496 33.3453 98.5235 33.4422C98.3895 33.9269 97.9451 34.2831 97.4179 34.2831C96.785 34.2831 96.272 33.7701 96.272 33.1372C96.272 32.5044 96.785 31.9913 97.4179 31.9913C97.7872 31.9913 98.115 32.1667 98.3253 32.4379C98.4756 32.6318 98.5638 32.8747 98.5638 33.1383L98.5649 33.1361Z" fill="#78ACEA"/>
<path d="M115.91 23.1018C112.991 23.1018 110.616 25.4753 110.616 28.3945H111.632C111.632 26.0363 113.552 24.117 115.911 24.117C118.27 24.117 120.189 26.0352 120.189 28.3945C120.189 28.8684 120.111 29.3237 119.968 29.7485C119.548 31.0055 118.56 32.0043 117.311 32.4368C116.945 32.5631 116.557 32.6437 116.154 32.6655V33.6829C116.623 33.6622 117.076 33.5794 117.507 33.4432C119.225 32.8997 120.566 31.5011 121.031 29.7496C121.145 29.3171 121.206 28.8629 121.206 28.3956C121.206 25.4764 118.831 23.1029 115.912 23.1029L115.91 23.1018Z" fill="#78ACEA"/>
<path d="M117.546 33.1361C117.546 33.2418 117.531 33.3453 117.505 33.4422C117.371 33.9269 116.927 34.2831 116.399 34.2831C115.766 34.2831 115.253 33.7701 115.253 33.1372C115.253 32.5044 115.766 31.9913 116.399 31.9913C116.769 31.9913 117.097 32.1667 117.307 32.4379C117.457 32.6318 117.545 32.8747 117.545 33.1383L117.546 33.1361Z" fill="#78ACEA"/>
<path d="M134.89 23.1018C131.971 23.1018 129.596 25.4753 129.596 28.3945H130.613C130.613 26.0363 132.531 24.117 134.891 24.117C137.252 24.117 139.169 26.0352 139.169 28.3945C139.169 28.8684 139.091 29.3237 138.949 29.7485C138.528 31.0055 137.54 32.0043 136.291 32.4368C135.925 32.5631 135.537 32.6437 135.134 32.6655V33.6829C135.603 33.6622 136.057 33.5794 136.487 33.4432C138.206 32.8986 139.546 31.5011 140.01 29.7496C140.124 29.3171 140.185 28.8629 140.185 28.3956C140.185 25.4764 137.81 23.1029 134.892 23.1029L134.89 23.1018Z" fill="#78ACEA"/>
<path d="M136.527 33.1361C136.527 33.2418 136.512 33.3453 136.486 33.4422C136.352 33.9269 135.907 34.2831 135.38 34.2831C134.747 34.2831 134.234 33.7701 134.234 33.1372C134.234 32.5044 134.747 31.9913 135.38 31.9913C135.75 31.9913 136.077 32.1667 136.289 32.4379C136.438 32.6318 136.526 32.8747 136.526 33.1383L136.527 33.1361Z" fill="#78ACEA"/>
<path d="M153.87 23.1018C150.951 23.1018 148.578 25.4753 148.578 28.3945H149.594C149.594 26.0363 151.512 24.117 153.871 24.117C156.231 24.117 158.15 26.0352 158.15 28.3945C158.15 28.8684 158.073 29.3237 157.93 29.7485C157.509 31.0055 156.521 32.0043 155.27 32.4368C154.904 32.5631 154.517 32.6437 154.115 32.6655V33.6829C154.584 33.6622 155.038 33.5794 155.468 33.4432C157.187 32.8986 158.527 31.5011 158.991 29.7496C159.105 29.3171 159.166 28.8629 159.166 28.3956C159.166 25.4764 156.792 23.1029 153.872 23.1029L153.87 23.1018Z" fill="#78ACEA"/>
<path d="M155.507 33.1361C155.507 33.2418 155.492 33.3453 155.466 33.4422C155.332 33.9269 154.888 34.2831 154.36 34.2831C153.728 34.2831 153.215 33.7701 153.215 33.1372C153.215 32.5044 153.728 31.9913 154.36 31.9913C154.73 31.9913 155.058 32.1667 155.268 32.4379C155.418 32.6318 155.506 32.8747 155.506 33.1383L155.507 33.1361Z" fill="#78ACEA"/>
<path d="M172.851 23.1018C169.932 23.1018 167.558 25.4753 167.558 28.3945H168.574C168.574 26.0363 170.493 24.117 172.853 24.117C175.212 24.117 177.13 26.0352 177.13 28.3945C177.13 28.8684 177.053 29.3237 176.91 29.7485C176.49 31.0055 175.502 32.0043 174.25 32.4368C173.886 32.5631 173.497 32.6437 173.095 32.6655V33.6829C173.566 33.6622 174.018 33.5794 174.448 33.4432C176.167 32.8997 177.508 31.5011 177.972 29.7496C178.086 29.3171 178.147 28.8629 178.147 28.3956C178.147 25.4764 175.773 23.1029 172.854 23.1029L172.851 23.1018Z" fill="#78ACEA"/>
<path d="M174.489 33.1361C174.489 33.2418 174.473 33.3453 174.447 33.4422C174.313 33.9269 173.87 34.2831 173.342 34.2831C172.709 34.2831 172.196 33.7701 172.196 33.1372C172.196 32.5044 172.709 31.9913 173.342 31.9913C173.712 31.9913 174.041 32.1667 174.249 32.4379C174.399 32.6318 174.488 32.8747 174.488 33.1383L174.489 33.1361Z" fill="#78ACEA"/>
<path d="M191.833 23.1018C188.914 23.1018 186.539 25.4753 186.539 28.3945H187.555C187.555 26.0363 189.474 24.117 191.834 24.117C194.195 24.117 196.112 26.0352 196.112 28.3945C196.112 28.8684 196.034 29.3237 195.892 29.7485C195.471 31.0055 194.483 32.0043 193.232 32.4368C192.868 32.5631 192.479 32.6437 192.077 32.6655V33.6829C192.546 33.6622 193 33.5794 193.43 33.4432C195.147 32.8997 196.489 31.5011 196.953 29.7496C197.067 29.3171 197.128 28.8629 197.128 28.3956C197.128 25.4764 194.753 23.1029 191.835 23.1029L191.833 23.1018Z" fill="#78ACEA"/>
<path d="M193.469 33.1361C193.469 33.2418 193.454 33.3453 193.428 33.4422C193.294 33.9269 192.849 34.2831 192.322 34.2831C191.689 34.2831 191.176 33.7701 191.176 33.1372C191.176 32.5044 191.689 31.9913 192.322 31.9913C192.691 31.9913 193.019 32.1667 193.229 32.4379C193.38 32.6318 193.468 32.8747 193.468 33.1383L193.469 33.1361Z" fill="#78ACEA"/>
<path d="M210.813 23.1018C207.894 23.1018 205.52 25.4753 205.52 28.3945H206.536C206.536 26.0363 208.455 24.117 210.814 24.117C213.173 24.117 215.092 26.0352 215.092 28.3945C215.092 28.8684 215.015 29.3237 214.872 29.7485C214.452 31.0055 213.464 32.0043 212.212 32.4368C211.846 32.5631 211.46 32.6437 211.058 32.6655V33.6829C211.527 33.6622 211.98 33.5794 212.411 33.4432C214.127 32.8997 215.469 31.5011 215.933 29.7496C216.048 29.3171 216.109 28.8629 216.109 28.3956C216.109 25.4764 213.734 23.1029 210.815 23.1029L210.813 23.1018Z" fill="#78ACEA"/>
<path d="M212.45 33.1361C212.45 33.2418 212.435 33.3453 212.409 33.4422C212.275 33.9269 211.83 34.2831 211.303 34.2831C210.67 34.2831 210.157 33.7701 210.157 33.1372C210.157 32.5044 210.67 31.9913 211.303 31.9913C211.672 31.9913 212 32.1667 212.21 32.4379C212.361 32.6318 212.449 32.8747 212.449 33.1383L212.45 33.1361Z" fill="#78ACEA"/>
<path d="M164.69 80.8654H158.517C157.803 80.8654 157.106 80.2815 156.969 79.568L155.778 73.3952C155.641 72.6817 156.112 72.0979 156.825 72.0979H162.998C163.712 72.0979 164.409 72.6817 164.546 73.3952L165.736 79.568C165.874 80.2815 165.403 80.8654 164.69 80.8654Z" fill="#AFCDFB"/>
<path d="M180.266 80.8654H174.094C173.38 80.8654 172.683 80.2815 172.546 79.568L171.355 73.3952C171.218 72.6817 171.688 72.0979 172.402 72.0979H178.575C179.288 72.0979 179.985 72.6817 180.123 73.3952L181.313 79.568C181.45 80.2815 180.98 80.8654 180.266 80.8654Z" fill="#AFCDFB"/>
<path d="M195.843 80.8654H189.67C188.957 80.8654 188.26 80.2815 188.122 79.568L186.932 73.3952C186.795 72.6817 187.265 72.0979 187.979 72.0979H194.151C194.865 72.0979 195.562 72.6817 195.699 73.3952L196.89 79.568C197.027 80.2815 196.557 80.8654 195.843 80.8654Z" fill="#78ACEA"/>
<path d="M117.959 80.8654H111.786C111.072 80.8654 110.375 80.2815 110.238 79.568L109.047 73.3952C108.91 72.6817 109.381 72.0979 110.094 72.0979H116.267C116.98 72.0979 117.677 72.6817 117.815 73.3952L119.005 79.568C119.143 80.2815 118.672 80.8654 117.959 80.8654Z" fill="#AFCDFB"/>
<path d="M111.194 62.3327H108.541C108.234 62.3327 107.936 62.0822 107.876 61.775L107.364 59.1226C107.305 58.8155 107.508 58.5649 107.814 58.5649H110.466C110.773 58.5649 111.072 58.8155 111.131 59.1226L111.643 61.775C111.702 62.0822 111.5 62.3327 111.194 62.3327Z" fill="#717171"/>
<path d="M133.536 80.8654H127.363C126.65 80.8654 125.954 80.2815 125.816 79.568L124.625 73.3952C124.488 72.6817 124.958 72.0979 125.672 72.0979H131.845C132.558 72.0979 133.255 72.6817 133.392 73.3952L134.583 79.568C134.72 80.2815 134.25 80.8654 133.536 80.8654Z" fill="#AFCDFB"/>
<path d="M149.113 80.8654H142.94C142.227 80.8654 141.53 80.2815 141.392 79.568L140.202 73.3952C140.064 72.6817 140.535 72.0979 141.249 72.0979H147.421C148.135 72.0979 148.832 72.6817 148.969 73.3952L150.16 79.568C150.297 80.2815 149.826 80.8654 149.113 80.8654Z" fill="#AFCDFB"/>
<path d="M211.419 80.8654H205.246C204.532 80.8654 203.836 80.2815 203.698 79.568L202.508 73.3952C202.37 72.6817 202.841 72.0979 203.554 72.0979H209.727C210.441 72.0979 211.138 72.6817 211.275 73.3952L212.466 79.568C212.603 80.2815 212.132 80.8654 211.419 80.8654Z" fill="#78ACEA"/>
<path d="M162.104 67.4587H155.931C155.217 67.4587 154.52 66.8749 154.383 66.1614L153.192 59.9886C153.055 59.2751 153.526 58.6913 154.239 58.6913H160.412C161.125 58.6913 161.823 59.2751 161.96 59.9886L163.15 66.1614C163.288 66.8749 162.817 67.4587 162.104 67.4587Z" fill="#AFCDFB"/>
<path d="M177.68 67.4587H171.507C170.794 67.4587 170.097 66.8749 169.96 66.1614L168.769 59.9886C168.632 59.2751 169.102 58.6913 169.816 58.6913H175.989C176.702 58.6913 177.399 59.2751 177.537 59.9886L178.727 66.1614C178.864 66.8749 178.394 67.4587 177.68 67.4587Z" fill="#AFCDFB"/>
<path d="M193.257 67.4587H187.084C186.371 67.4587 185.674 66.8749 185.536 66.1614L184.346 59.9886C184.209 59.2751 184.679 58.6913 185.393 58.6913H191.565C192.279 58.6913 192.976 59.2751 193.113 59.9886L194.304 66.1614C194.441 66.8749 193.97 67.4587 193.257 67.4587Z" fill="#78ACEA"/>
<path d="M208.833 67.4587H202.66C201.946 67.4587 201.249 66.8749 201.112 66.1614L199.921 59.9886C199.784 59.2751 200.255 58.6913 200.968 58.6913H207.141C207.855 58.6913 208.552 59.2751 208.689 59.9886L209.879 66.1614C210.017 66.8749 209.546 67.4587 208.833 67.4587Z" fill="#78ACEA"/>
<path d="M167.431 95.0747H161.258C160.545 95.0747 159.849 94.4909 159.71 93.7774L158.52 87.6046C158.382 86.8911 158.853 86.3073 159.566 86.3073H165.739C166.453 86.3073 167.15 86.8911 167.287 87.6046L168.478 93.7774C168.615 94.4909 168.144 95.0747 167.431 95.0747Z" fill="#AFCDFB"/>
<path d="M183.007 95.0747H176.834C176.12 95.0747 175.423 94.4909 175.286 93.7774L174.095 87.6046C173.958 86.8911 174.429 86.3073 175.142 86.3073H181.315C182.028 86.3073 182.726 86.8911 182.863 87.6046L184.053 93.7774C184.191 94.4909 183.72 95.0747 183.007 95.0747Z" fill="#AFCDFB"/>
<path d="M198.584 95.0747H192.411C191.698 95.0747 191.001 94.4909 190.864 93.7774L189.673 87.6046C189.536 86.8911 190.006 86.3073 190.72 86.3073H196.893C197.606 86.3073 198.303 86.8911 198.441 87.6046L199.631 93.7774C199.768 94.4909 199.298 95.0747 198.584 95.0747Z" fill="#78ACEA"/>
<path d="M120.701 95.0747H114.528C113.815 95.0747 113.117 94.4909 112.98 93.7774L111.79 87.6046C111.652 86.8911 112.123 86.3073 112.836 86.3073H119.009C119.723 86.3073 120.42 86.8911 120.557 87.6046L121.748 93.7774C121.885 94.4909 121.414 95.0747 120.701 95.0747Z" fill="#AFCDFB"/>
<path d="M136.278 95.0747H130.105C129.391 95.0747 128.694 94.4909 128.557 93.7774L127.366 87.6046C127.229 86.8911 127.7 86.3073 128.413 86.3073H134.586C135.299 86.3073 135.996 86.8911 136.134 87.6046L137.324 93.7774C137.462 94.4909 136.991 95.0747 136.278 95.0747Z" fill="#AFCDFB"/>
<path d="M151.854 95.0747H145.681C144.968 95.0747 144.271 94.4909 144.134 93.7774L142.943 87.6046C142.806 86.8911 143.276 86.3073 143.99 86.3073H150.163C150.876 86.3073 151.573 86.8911 151.71 87.6046L152.901 93.7774C153.038 94.4909 152.568 95.0747 151.854 95.0747Z" fill="#AFCDFB"/>
<path d="M214.161 95.0747H207.988C207.275 95.0747 206.578 94.4909 206.44 93.7774L205.25 87.6046C205.113 86.8911 205.583 86.3073 206.297 86.3073H212.469C213.183 86.3073 213.879 86.8911 214.017 87.6046L215.208 93.7774C215.345 94.4909 214.875 95.0747 214.161 95.0747Z" fill="#78ACEA"/>
<path d="M170.172 109.285H163.999C163.286 109.285 162.589 108.701 162.452 107.988L161.261 101.815C161.124 101.102 161.594 100.518 162.308 100.518H168.481C169.194 100.518 169.891 101.102 170.028 101.815L171.219 107.988C171.356 108.701 170.886 109.285 170.172 109.285Z" fill="#AFCDFB"/>
<path d="M185.748 109.285H179.575C178.862 109.285 178.164 108.701 178.027 107.988L176.837 101.815C176.699 101.102 177.17 100.518 177.883 100.518H184.056C184.77 100.518 185.467 101.102 185.604 101.815L186.795 107.988C186.932 108.701 186.461 109.285 185.748 109.285Z" fill="#AFCDFB"/>
<path d="M201.325 109.285H195.152C194.438 109.285 193.741 108.701 193.604 107.988L192.413 101.815C192.276 101.102 192.747 100.518 193.46 100.518H199.633C200.346 100.518 201.044 101.102 201.181 101.815L202.371 107.988C202.509 108.701 202.038 109.285 201.325 109.285Z" fill="#78ACEA"/>
<path d="M123.442 109.285H117.269C116.556 109.285 115.859 108.701 115.721 107.988L114.531 101.815C114.394 101.102 114.864 100.518 115.578 100.518H121.75C122.464 100.518 123.16 101.102 123.298 101.815L124.489 107.988C124.626 108.701 124.156 109.285 123.442 109.285Z" fill="#AFCDFB"/>
<path d="M139.018 109.285H132.845C132.131 109.285 131.435 108.701 131.297 107.988L130.106 101.815C129.969 101.102 130.44 100.518 131.153 100.518H137.326C138.04 100.518 138.737 101.102 138.874 101.815L140.064 107.988C140.202 108.701 139.731 109.285 139.018 109.285Z" fill="#AFCDFB"/>
<path d="M154.594 109.285H148.422C147.708 109.285 147.011 108.701 146.874 107.988L145.683 101.815C145.546 101.102 146.017 100.518 146.73 100.518H152.903C153.616 100.518 154.313 101.102 154.451 101.815L155.641 107.988C155.778 108.701 155.308 109.285 154.594 109.285Z" fill="#AFCDFB"/>
<path d="M216.901 109.285H210.728C210.015 109.285 209.318 108.701 209.181 107.988L207.99 101.815C207.853 101.102 208.323 100.518 209.037 100.518H215.21C215.923 100.518 216.62 101.102 216.757 101.815L217.948 107.988C218.085 108.701 217.615 109.285 216.901 109.285Z" fill="#78ACEA"/>
<path d="M172.757 122.692H166.584C165.871 122.692 165.174 122.108 165.037 121.394L163.846 115.222C163.709 114.508 164.179 113.924 164.893 113.924H171.066C171.779 113.924 172.476 114.508 172.613 115.222L173.804 121.394C173.941 122.108 173.471 122.692 172.757 122.692Z" fill="#AFCDFB"/>
<path d="M188.334 122.692H182.161C181.448 122.692 180.75 122.108 180.613 121.394L179.423 115.222C179.285 114.508 179.756 113.924 180.469 113.924H186.642C187.356 113.924 188.053 114.508 188.19 115.222L189.381 121.394C189.518 122.108 189.047 122.692 188.334 122.692Z" fill="#AFCDFB"/>
<path d="M203.911 122.692H197.738C197.024 122.692 196.327 122.108 196.19 121.394L194.999 115.222C194.862 114.508 195.333 113.924 196.046 113.924H202.219C202.932 113.924 203.63 114.508 203.767 115.222L204.957 121.394C205.095 122.108 204.624 122.692 203.911 122.692Z" fill="#78ACEA"/>
<path d="M126.027 122.692H119.854C119.141 122.692 118.444 122.108 118.306 121.394L117.116 115.222C116.979 114.508 117.449 113.924 118.163 113.924H124.335C125.049 113.924 125.746 114.508 125.883 115.222L127.074 121.394C127.211 122.108 126.741 122.692 126.027 122.692Z" fill="#AFCDFB"/>
<path d="M141.605 122.692H135.432C134.719 122.692 134.021 122.108 133.884 121.394L132.694 115.222C132.556 114.508 133.027 113.924 133.74 113.924H139.913C140.627 113.924 141.324 114.508 141.461 115.222L142.652 121.394C142.789 122.108 142.318 122.692 141.605 122.692Z" fill="#AFCDFB"/>
<path d="M157.181 122.692H151.008C150.294 122.692 149.597 122.108 149.46 121.394L148.269 115.222C148.132 114.508 148.603 113.924 149.316 113.924H155.489C156.202 113.924 156.899 114.508 157.037 115.222L158.227 121.394C158.365 122.108 157.894 122.692 157.181 122.692Z" fill="#AFCDFB"/>
<path d="M129.904 59.897H113.551C113.31 59.897 113.113 59.6999 113.113 59.4591C113.113 59.2184 113.31 59.0212 113.551 59.0212H129.904C130.144 59.0212 130.341 59.2184 130.341 59.4591C130.341 59.6999 130.144 59.897 129.904 59.897Z" fill="#AFCDFB"/>
<path d="M130.401 61.8774H114.048C113.807 61.8774 113.61 61.6802 113.61 61.4395C113.61 61.1987 113.807 61.0016 114.048 61.0016H130.401C130.641 61.0016 130.839 61.1987 130.839 61.4395C130.839 61.6802 130.641 61.8774 130.401 61.8774Z" fill="#AFCDFB"/>
<path d="M112.364 45.1485H106.752C106.293 45.1485 105.917 44.7727 105.917 44.313C105.917 43.8533 106.293 43.4775 106.752 43.4775H112.364C112.824 43.4775 113.2 43.8533 113.2 44.313C113.2 44.7727 112.824 45.1485 112.364 45.1485Z" fill="white"/>
<path d="M127.762 45.1485H122.15C121.69 45.1485 121.314 44.7727 121.314 44.313C121.314 43.8533 121.69 43.4775 122.15 43.4775H127.762C128.221 43.4775 128.597 43.8533 128.597 44.313C128.597 44.7727 128.221 45.1485 127.762 45.1485Z" fill="white"/>
<path d="M143.161 45.1485H137.549C137.089 45.1485 136.714 44.7727 136.714 44.313C136.714 43.8533 137.089 43.4775 137.549 43.4775H143.161C143.621 43.4775 143.996 43.8533 143.996 44.313C143.996 44.7727 143.621 45.1485 143.161 45.1485Z" fill="white"/>
<path d="M158.56 45.1485H152.948C152.489 45.1485 152.113 44.7727 152.113 44.313C152.113 43.8533 152.489 43.4775 152.948 43.4775H158.56C159.02 43.4775 159.396 43.8533 159.396 44.313C159.396 44.7727 159.02 45.1485 158.56 45.1485Z" fill="white"/>
<path d="M173.959 45.1485H168.347C167.887 45.1485 167.511 44.7727 167.511 44.313C167.511 43.8533 167.887 43.4775 168.347 43.4775H173.959C174.418 43.4775 174.794 43.8533 174.794 44.313C174.794 44.7727 174.418 45.1485 173.959 45.1485Z" fill="white"/>
<path d="M189.357 45.1485H183.745C183.285 45.1485 182.91 44.7727 182.91 44.313C182.91 43.8533 183.285 43.4775 183.745 43.4775H189.357C189.817 43.4775 190.192 43.8533 190.192 44.313C190.192 44.7727 189.817 45.1485 189.357 45.1485Z" fill="white"/>
<path d="M204.755 45.1485H199.143C198.684 45.1485 198.308 44.7727 198.308 44.313C198.308 43.8533 198.684 43.4775 199.143 43.4775H204.755C205.215 43.4775 205.591 43.8533 205.591 44.313C205.591 44.7727 205.215 45.1485 204.755 45.1485Z" fill="white"/>
<path d="M169.263 67.5796C168.024 67.5796 167.122 67.1864 166.629 66.4228C165.686 64.9589 166.415 62.9067 168.793 60.3241C170.53 58.4375 172.559 56.943 172.579 56.9277C172.658 56.8689 172.771 56.8863 172.829 56.9659C172.888 57.0454 172.871 57.1576 172.791 57.2164C172.712 57.2741 164.892 63.0646 166.931 66.2289C167.577 67.2311 168.959 67.2975 170.006 67.1766C171.944 66.9522 174.47 65.9087 176.764 64.3859C179.138 62.8087 180.81 61.031 181.353 59.5093C181.708 58.5104 181.598 57.8035 181.026 57.407C180.286 56.8951 178.741 56.8951 176.892 57.4059C175.121 57.895 173.339 58.7762 172.241 59.7064C172.166 59.7707 172.053 59.7609 171.988 59.6857C171.924 59.6106 171.934 59.4973 172.009 59.433C173.144 58.4723 174.978 57.5639 176.796 57.0617C178.776 56.5149 180.391 56.5334 181.23 57.114C181.726 57.4571 182.209 58.1728 181.69 59.6302C181.123 61.2238 179.4 63.0657 176.962 64.6844C174.623 66.2377 172.039 67.3029 170.047 67.5328C169.773 67.5644 169.511 67.5807 169.263 67.5807V67.5796Z" fill="#C65447"/>
<path d="M201.667 57.4057L201.03 56.2042C201.03 56.2042 201.346 54.0628 198.663 52.7077C198.663 52.7077 197.683 52.308 197.128 53.1086C196.618 53.8449 198.1 53.712 198.02 54.9723C197.941 56.2326 198.539 56.9722 199.372 57.3828L200.06 58.1802L201.667 57.4057Z" fill="#FFB27D"/>
<path d="M227.028 54.5332C227.028 54.5332 224.724 65.8441 212.042 69.54C208.084 70.6935 199.09 57.6605 199.09 57.6605C199.09 57.6605 199.406 56.459 201.387 56.7346C201.387 56.7346 210.144 62.5316 211.246 63.1612C212.224 63.72 218.657 55.9776 221.59 54.7293C224.522 53.4799 227.027 54.5332 227.027 54.5332H227.028Z" fill="#233862"/>
<path d="M189.958 54.3316L190.466 57.0757L204.27 54.5198L203.762 51.7758L189.958 54.3316Z" fill="#C65447"/>
<path d="M186.992 56.2968L190.454 57.0745L189.947 54.3307L186.992 56.2968Z" fill="#FFB27D"/>
<path d="M205.523 52.3874L205.684 53.2545C205.783 53.7882 205.43 54.3013 204.896 54.3993L204.258 54.518L203.749 51.7742L204.444 51.6456C204.948 51.5531 205.43 51.8842 205.524 52.3874H205.523Z" fill="#FFB27D"/>
<path d="M242.168 125.637C242.168 125.637 243.741 127.072 243.434 128.093C243.127 129.114 241.708 129.793 241.516 131.04C241.324 132.288 240.556 132.967 239.866 132.967H236.573C236.573 132.967 236.064 132.09 237.293 131.826C238.521 131.561 238.983 130.096 238.907 128.736C238.83 127.375 239.023 125.561 239.023 125.561L241.631 124.957L242.168 125.637Z" fill="#233862"/>
<path d="M222.867 129.35C222.867 129.35 223.149 132.618 222.459 132.958L213.619 132.939C213.619 132.939 213.619 131.918 215.038 131.692C216.458 131.465 218.952 130.634 219.375 128.782C219.797 126.931 222.867 129.349 222.867 129.349V129.35Z" fill="#233862"/>
<path d="M215.404 83.1938C215.404 83.1938 215.87 88.9211 216.418 95.8063C217.163 105.159 218.059 116.647 218.147 118.823C218.3 122.602 218.915 128.648 218.915 128.648C218.915 128.648 220.372 130.083 223.289 129.479C223.289 129.479 225.888 120.849 226.631 111.719C226.643 111.57 226.654 111.419 226.666 111.268C227.357 101.974 228.431 82.4019 228.431 82.4019L215.404 83.1948V83.1938Z" fill="#717171"/>
<path d="M215.404 83.1939C215.404 83.1939 215.87 88.9212 216.418 95.8064L226.631 111.718C226.643 111.569 226.654 111.418 226.666 111.267C227.357 101.973 228.431 82.4009 228.431 82.4009L215.404 83.1939Z" fill="#444444"/>
<path d="M217.533 83.8733C217.533 83.8733 225.937 104.616 231.463 114.364C236.988 124.112 238.715 126.833 238.715 126.833C238.715 126.833 241.88 125.585 242.169 124.736C242.169 124.736 240.056 105.917 236.356 101.329C234.264 98.7363 231.808 90.9579 231.694 88.2369C231.578 85.517 230.945 80.1328 230.945 80.1328L217.534 83.8733H217.533Z" fill="#717171"/>
<path d="M228.591 51.9081C228.591 51.9081 222.905 54.652 219.628 53.6335C219.628 53.6335 220.435 52.6161 221.847 51.858C221.733 51.2001 221.645 50.6293 221.595 50.1446C221.457 49.027 221.457 48.3942 221.457 48.3942L223.65 46.6688L225.731 45.0175C225.567 49.6599 228.592 51.907 228.592 51.907L228.591 51.9081Z" fill="#FFB27D"/>
<path d="M215.046 83.6666C215.146 83.7537 215.261 83.8028 215.387 83.8028C216.622 83.7777 220.216 84.4607 223.252 84.1502C225.824 83.9019 228.094 83.1579 230.528 82.0904C230.856 81.9412 231.601 81.5436 231.586 81.1962C231.573 80.7986 231.536 80.2398 231.486 79.5198C231.384 78.1016 231.241 76.0875 231.195 73.6999C231.162 71.9298 231.18 69.955 231.309 67.8625C231.316 67.722 231.323 67.5804 231.329 67.4388C231.366 66.6719 231.384 65.8997 231.384 65.1448C231.397 62.7114 231.221 60.3902 230.869 58.3173C230.25 54.7173 229.09 51.8994 227.376 50.6457C227.149 50.4714 225.736 51.1543 224.426 51.7872C223.227 52.371 222.03 52.4331 220.896 52.2098L219.761 53.2021C218.386 54.4548 216.873 56.1802 216.205 58.7879C215.651 60.998 215.323 64.9945 215.146 69.1413C215.059 71.0279 214.996 72.9145 214.971 74.714V74.776C214.958 74.9623 214.958 75.1497 214.958 75.3359C214.896 79.9413 214.958 83.6034 215.046 83.6655V83.6666Z" fill="#2B478B"/>
<path d="M225.766 46.7929C225.766 46.7929 224.329 49.4126 221.593 50.1445C221.455 49.027 221.455 48.3941 221.455 48.3941L223.649 46.6687L225.766 46.7929Z" fill="#ED985F"/>
<path d="M220.455 48.319C220.455 48.319 225.879 49.2067 226.388 45.8714C226.896 42.5372 227.94 40.4055 224.498 39.6986C221.056 38.9906 220.188 40.1637 219.742 41.2355C219.298 42.3074 219.056 48.002 220.454 48.319H220.455Z" fill="#FFB27D"/>
<path d="M228.36 39.2989C228.409 39.2423 228.523 39.1966 228.776 39.1835C228.776 39.1835 228.574 39.0571 228.303 39.0506C228.251 38.6988 228.063 38.0768 227.459 37.9254C227.459 37.9254 227.783 38.0986 227.826 38.4722C227.125 37.7522 225.624 37.2293 221.467 37.5572C215.989 37.9897 217.794 41.4971 218.503 41.9153C219.212 42.3336 220.997 41.1866 222.318 41.2923C223.64 41.3969 223.891 43.3063 224.339 43.5688C224.788 43.8313 224.611 43.3673 225.218 43.0939C225.825 42.8194 225.883 43.8248 225.707 44.4784C225.532 45.1319 226.365 45.9935 226.365 45.9935L227.207 45.0862C228.049 44.1788 228.843 40.337 228.46 39.519C228.426 39.4471 228.392 39.373 228.357 39.3L228.36 39.2989Z" fill="#2C3A64"/>
<path d="M201.018 56.1476C201.018 56.1476 201.205 55.4102 200.694 55.0791C200.182 54.7479 199.712 53.846 199.497 53.9691C199.05 54.2218 199.741 55.0083 199.614 55.9897C199.57 56.3328 200.369 57.2325 201.018 56.1487V56.1476Z" fill="#FFB27D"/>
<path d="M231.196 73.7008C231.162 71.9307 231.181 69.9559 231.309 67.8634C231.317 67.7229 231.323 67.5813 231.33 67.4397C230.815 64.8854 230.035 62.6186 228.887 62.5446C228.887 62.5446 225.466 67.919 231.196 73.7008Z" fill="#233862"/>
<path d="M235.72 82.9694C235.72 82.9694 235.435 85.7405 235.122 86.2656C234.81 86.7895 233.477 88.4648 232.91 88.7937C232.342 89.1227 233.256 86.5869 233.141 86.0934C233.025 85.6 232.674 86.9943 232.424 87.0269C232.174 87.0596 232.238 85.8048 232.229 85.3484C232.22 84.892 233.446 83.7646 233.878 82.7919C234.311 81.8192 235.72 82.9705 235.72 82.9705V82.9694Z" fill="#FFB27D"/>
<path d="M227.374 50.6184C227.374 50.6184 230.806 52.2436 232.451 54.7423C235.003 58.6179 237.962 72.7413 238.017 74.0495C238.072 75.3577 235.857 84.5914 235.857 84.5914C235.857 84.5914 233.611 84.4432 233.033 83.3104C233.033 83.3104 233.482 73.8229 233.197 73.2129C232.913 72.603 223.835 60.4871 224.857 57.9012C225.877 55.3153 227.374 50.6195 227.374 50.6195V50.6184Z" fill="#2B478B"/>
<path d="M188.766 55.1158L188.946 56.7356L186.991 56.2966L188.766 55.1158Z" fill="#C65447"/>
<path d="M263.026 132.912H253.136C252.605 132.463 253.503 131.442 254.44 131.373C254.847 131.343 255.361 131.428 255.949 131.552C256.086 129.744 256.862 121.618 259.792 121.945C263.086 122.311 259.792 125.523 258.861 127.426C258.171 128.835 257.444 130.856 257.112 131.809C257.378 131.867 257.656 131.923 257.938 131.976C258.375 130.635 259.999 126.126 262.064 126.389C264.49 126.696 263.515 128.504 261.797 129.577C260.535 130.366 258.987 131.488 258.251 132.029C258.874 132.13 259.525 132.199 260.186 132.184C261.879 132.143 262.706 132.642 263.027 132.911L263.026 132.912Z" fill="#82B378"/>
<path d="M37.2565 132.443C36.7326 131.619 35.1553 129.482 33.0541 129.766C30.7645 130.074 35.5823 131.582 37.0572 132.449C36.7293 132.454 36.4483 132.428 36.2413 132.354C35.2555 132.002 33.5672 132.676 33.0269 132.912H42.4142C42.3488 132.688 42.18 132.321 41.7432 132.054C41.5885 131.959 41.2791 131.946 40.8794 131.977C41.4371 131.319 41.8249 129.217 40.2716 129.758C39.1366 130.153 39.1398 131.438 39.2509 132.197C39.0091 132.235 38.7651 132.273 38.5222 132.308C38.0549 129.926 36.4014 122.946 33.052 122.759C29.6556 122.571 35.932 129.999 38.0223 132.374C37.7543 132.407 37.4972 132.431 37.2576 132.442L37.2565 132.443Z" fill="#82B378"/>
<path d="M0.333314 132.813H294.159C294.343 132.813 294.493 132.963 294.493 133.147V133.26C294.493 133.444 294.343 133.593 294.159 133.593H0.333314C0.149229 133.593 0 133.444 0 133.26V133.147C0 132.963 0.149229 132.813 0.333314 132.813Z" fill="#B4B4B4"/>
</svg>
