<svg width="475" height="356" viewBox="0 0 475 356" fill="none" xmlns="http://www.w3.org/2000/svg">
<g clip-path="url(#clip0_1_600)">
<path d="M137.93 328.73H431.97C459.05 282.15 470.44 226.6 463.79 173.12C461.56 155.18 457.22 137.12 447.61 121.81C438 106.5 422.48 94.17 404.57 91.7C381.54 88.53 359.82 101.46 337.79 108.87C304.87 119.94 268.55 118.74 235.17 109.14C198.67 98.65 163.82 78.25 125.86 79.51C91.33 80.66 58.94 100.63 38.52 128.51C18.1 156.38 8.87 191.36 7.97 225.9C7.07 260.44 14.06 294.75 23.64 327.95L137.93 328.74V328.73Z" fill="#DFDFDF"/>
<path d="M72.08 88.33C82.72 81.47 94.67 76.36 107.25 74.93C111.45 74.45 116.39 74 118.58 70.38C120.4 67.37 119.31 63.25 116.86 60.71C114.42 58.18 110.94 56.93 107.52 56.09C90.17 51.83 71.42 56.21 56.19 65.56C50.54 69.03 45.24 73.21 41.21 78.48C37.18 83.75 34.47 90.17 34.34 96.8C34.27 100.25 34.93 103.78 36.66 106.76C38.12 109.27 40.83 112.57 43.99 111.35C47.12 110.14 50.24 105.7 52.71 103.46C58.79 97.96 65.17 92.79 72.07 88.34L72.08 88.33Z" fill="#DFDFDF"/>
<path d="M366.2 354.23H364.43L392.47 328.68H394.24L366.2 354.23Z" fill="#F58249"/>
<path d="M277.11 355.68L278.7 354.23H366.2L364.62 355.68H277.11Z" fill="#F58249"/>
<path d="M392.47 328.68L370.12 349.05L364.43 354.23H278.7L291.7 342.38L306.73 328.68H392.47Z" fill="#F5AD49"/>
<g style="mix-blend-mode:screen" opacity="0.5">
<path d="M370.12 349.05L364.43 354.23H278.69L291.7 342.38C298.89 340.82 306.57 340.8 313.99 340.92C327.49 341.14 341.06 341.59 354.33 344.1C359.71 345.12 365.22 346.62 370.12 349.05Z" fill="#F5AD49"/>
</g>
<path d="M429.74 20.02H273.49V320.4H429.74V20.02Z" fill="#A4D7E0"/>
<path d="M421.12 31.86H282.1V320.4H421.12V31.86Z" fill="#1C484F"/>
<g style="mix-blend-mode:multiply" opacity="0.5">
<path d="M421.12 280.68H282.1V320.4H421.12V280.68Z" fill="#1F4F57"/>
</g>
<path d="M335.68 290.71L421.16 320.4V31.86L335.68 41.12V290.71Z" fill="#E6E6E6"/>
<path d="M340.83 76.55V52.74L414.3 46.46V73.33L413.92 73.35L340.83 76.56V76.55ZM341.63 53.48V75.72L413.5 72.56V47.33L341.63 53.48Z" fill="#80C8D4"/>
<path d="M414.3 307.24L413.78 307.07L340.83 283.04V218.59L414.3 234.34V307.25V307.24ZM341.63 282.46L413.5 306.14V234.98L341.63 219.57V282.46Z" fill="#80C8D4"/>
<path d="M414.3 208.45L377.52 202.13V86.7L414.3 85.87V208.45ZM378.32 201.46L413.5 207.5V86.69L378.32 87.49V201.46Z" fill="#80C8D4"/>
<path d="M373.15 201.38L340.82 195.83V87.53L373.15 86.8V201.38ZM341.62 195.15L372.35 200.43V87.62L341.62 88.31V195.15Z" fill="#80C8D4"/>
<path d="M388.06 220.33L363.18 215.38V205.92L388.06 210.5V220.34V220.33ZM363.98 214.72L387.26 219.35V211.15L363.98 206.86V214.71V214.72Z" fill="#80C8D4"/>
<path d="M4.11 328.47H461.14" stroke="#1C484F" stroke-miterlimit="10"/>
<path d="M379.01 185.53C382.63 189.35 386.01 193.41 389.14 197.65C392.26 201.9 395.12 206.34 397.76 210.91C403.04 220.06 407.34 229.75 410.93 239.67C414.46 249.62 417.3 259.81 419.6 270.1C420.75 275.25 421.78 280.42 422.72 285.6C423.64 290.79 424.48 295.99 425.28 301.2L423.83 301.43C422.98 296.24 422.08 291.06 421.1 285.9C420.14 280.73 419.11 275.58 417.97 270.46C415.68 260.22 412.99 250.06 409.54 240.15C406.15 230.23 401.98 220.56 396.94 211.36C394.43 206.75 391.68 202.27 388.69 197.96C385.72 193.63 382.49 189.47 379 185.53H379.01Z" fill="#1C2540"/>
<path d="M408.22 149.06C413.09 160.81 417.96 172.58 421.61 184.79C422.53 187.84 423.36 190.91 424.09 194.01C424.47 195.56 424.79 197.12 425.12 198.68C425.42 200.24 425.68 201.82 425.96 203.38C426.98 209.67 427.7 216.01 428.03 222.37C428.78 235.09 428.52 247.84 428.47 260.55C428.45 266.91 428.48 273.26 428.7 279.6C428.95 285.94 429.41 292.27 430.18 298.56L428.72 298.74C428.01 292.39 427.61 286.02 427.41 279.65C427.25 273.28 427.28 266.91 427.36 260.54C427.54 247.82 427.92 235.1 427.29 222.41C427.02 216.06 426.36 209.74 425.41 203.47C425.14 201.91 424.9 200.34 424.62 198.78C424.31 197.22 424 195.67 423.64 194.12C422.94 191.02 422.14 187.95 421.26 184.9C417.74 172.68 412.98 160.86 408.23 149.06H408.22Z" fill="#1C2540"/>
<path d="M467.99 187.89C443.45 218.48 431.12 258.44 434.06 297.36L432.59 297.46C430.11 258.13 443.07 218.18 467.98 187.89H467.99Z" fill="#1C2540"/>
<path d="M438.85 331.02H414.02C411.67 331.02 409.71 329.24 409.49 326.9L406.69 297.42H446.17L443.37 326.9C443.15 329.24 441.19 331.02 438.84 331.02H438.85Z" fill="#FF4846"/>
<g style="mix-blend-mode:multiply" opacity="0.5">
<path d="M445.35 306.15L446.17 297.42H406.69L407.52 306.15H445.35Z" fill="#871A1A"/>
</g>
<path d="M448.63 291.54H404.24V299.63H448.63V291.54Z" fill="#FF4846"/>
<path d="M473.13 194.35C471.74 196.87 469.52 198.82 467.49 200.87C466.48 201.89 465.51 202.95 464.58 204.04C460.91 208.33 457.87 213.15 455.56 218.31C453.87 222.08 452.57 226.03 451.71 230.08C451.64 230.4 451.58 230.72 451.51 231.04C450.43 236.55 450.02 242.21 448.39 247.6C448.03 248.78 447.37 250.54 446.47 252.38C444.42 256.58 441.11 261.2 437.33 260.21C436.86 260.1 436.38 259.89 435.9 259.58C434.94 258.98 434.16 258.15 433.53 257.18C431.26 253.68 430.88 248.26 431.19 244.15C431.25 243.34 431.34 242.59 431.44 241.91C432.15 237.27 433.8 232.86 435.55 228.48C436.29 226.62 437.07 224.77 437.79 222.91C439.14 219.44 440.35 215.9 441.65 212.41C443 208.76 444.43 205.14 446.2 201.68C447.58 198.96 449.21 196.32 451.1 193.91C453.93 190.3 457.34 187.2 461.43 185.15C463.35 184.19 465.45 183.46 467.6 183.49C469.75 183.53 471.96 184.41 473.22 186.15C474.91 188.49 474.52 191.82 473.12 194.35H473.13Z" fill="#80D4A9"/>
<g style="mix-blend-mode:screen" opacity="0.19">
<path d="M473.13 194.35C471.74 196.87 469.52 198.82 467.49 200.87C466.48 201.89 465.51 202.95 464.58 204.04C463.79 204.43 463 204.84 462.22 205.28C459.22 207.02 456.38 209.56 455.59 212.94C455.18 214.69 455.35 216.5 455.55 218.3C453.86 222.07 452.56 226.02 451.7 230.07C451.63 230.39 451.57 230.71 451.5 231.03C449.21 233.67 446.66 236.2 445.66 239.48C444.88 242.06 445.14 244.82 445.6 247.47C445.88 249.1 446.23 250.72 446.45 252.36C444.4 256.56 441.09 261.18 437.31 260.19C436.84 260.08 436.36 259.87 435.88 259.56C434.92 258.96 434.14 258.13 433.51 257.16C431.24 253.66 430.86 248.24 431.17 244.13C432.8 242.38 434.84 240.94 435.9 238.8C437.49 235.61 436.47 232.06 435.53 228.46C436.27 226.6 437.05 224.75 437.77 222.89C439.12 219.42 440.33 215.88 441.63 212.39C444.36 210.54 447.19 208.71 448.76 205.93C450.51 202.81 450.37 199.03 450.83 195.48C450.9 194.95 450.98 194.42 451.08 193.89C453.91 190.28 457.32 187.18 461.41 185.13C463.33 184.17 465.43 183.44 467.58 183.47C469.73 183.51 471.94 184.39 473.2 186.13C474.89 188.47 474.5 191.8 473.1 194.33L473.13 194.35Z" fill="#80D4A9"/>
</g>
<path d="M435.52 210.16C435.3 214.47 435.96 218.77 436.2 223.08C436.24 223.9 436.28 224.71 436.28 225.53C436.31 229.06 435.9 232.6 434.41 235.76C432.54 239.74 427.04 245.27 422.86 241.3C421.29 239.82 420.17 237.95 419.39 235.9C418.02 232.32 417.68 228.2 417.79 224.64C417.94 219.74 418.79 214.81 418.72 209.93C418.71 208.46 418.61 206.99 418.38 205.53C418.12 203.86 417.7 202.24 417.17 200.66C414.26 192.05 407.87 184.65 404.21 176.17C403.41 174.31 402.75 172.4 402.22 170.46C400.57 164.34 400.26 157.86 401.36 151.62C401.51 150.75 401.69 149.89 401.9 149.04C402.81 145.29 404.84 141.13 408.52 140.26C408.66 140.22 408.81 140.19 408.95 140.17C413.02 139.52 416.42 143.15 418.73 146.57C421.42 150.55 423.79 154.73 426.05 158.97C427.05 160.83 428.02 162.7 428.99 164.57C432.01 170.37 435.07 176.38 436.72 182.64C437.54 185.78 438.02 188.97 437.95 192.23V192.44C437.78 198.41 435.8 204.21 435.49 210.17L435.52 210.16Z" fill="#80D4A9"/>
<g style="mix-blend-mode:screen" opacity="0.19">
<path d="M435.78 223.63C435.96 224.26 436.13 224.89 436.29 225.53C436.32 229.06 435.91 232.6 434.42 235.76C432.55 239.74 427.05 245.27 422.87 241.3C421.3 239.82 420.18 237.95 419.4 235.9C420.5 235.79 421.51 235.39 422.39 234.57C423.83 233.22 424.51 231.24 424.72 229.27C425.43 222.48 421.12 216.41 418.74 209.92C418.73 208.45 418.63 206.98 418.4 205.52C418.14 203.85 417.72 202.23 417.19 200.65C417.29 194.32 418.85 187.75 415.63 182.43C412.5 177.28 405.85 175.24 402.25 170.45C400.6 164.33 400.29 157.85 401.39 151.61C401.54 151.17 401.69 150.73 401.85 150.31C402.86 147.6 404.04 144.9 405.89 142.68C406.66 141.76 407.55 140.93 408.54 140.25C408.68 140.21 408.83 140.18 408.97 140.16C413.04 139.51 416.44 143.14 418.75 146.56C421.44 150.54 423.81 154.72 426.07 158.96C426.09 159.76 426.11 160.56 426.14 161.36C426.3 166.29 426.89 171.49 429.81 175.46C431.5 177.74 433.83 179.45 435.77 181.51C436.11 181.86 436.43 182.24 436.74 182.63C437.56 185.77 438.04 188.96 437.97 192.22C437.45 193.24 436.81 194.21 436.24 195.2C433.58 199.82 432.35 205.26 432.76 210.58C433.11 215.04 434.56 219.33 435.77 223.63H435.78Z" fill="#80D4A9"/>
</g>
<path d="M422.32 247.16C422.3 247.56 422.27 247.97 422.23 248.37C421.93 251.71 421.22 259.53 416.92 260.3C413.87 260.84 409.44 255.49 407.01 253.8C405.65 252.86 404.25 251.92 402.92 250.91C400.79 249.31 398.81 247.53 397.36 245.26C396.03 243.18 395.27 240.88 394.78 238.48C393.99 234.67 393.86 230.6 393.15 226.75C392.83 225.03 392.4 223.35 391.86 221.7C389.89 215.66 386.55 210.11 382.67 204.92C380.76 202.35 378.72 199.87 376.64 197.46C375.92 196.63 375.19 195.77 374.48 194.88C372.04 191.77 369.97 188.33 370.35 184.51C370.84 179.56 375.72 175.77 380.69 175.54C385.66 175.3 390.41 178.04 393.65 181.82C394.58 182.89 395.39 184.05 396.12 185.26C397.95 188.28 399.26 191.65 400.37 195.03C401.16 197.44 401.88 199.87 402.67 202.28C403.44 204.59 404.27 206.89 405.33 209.08C406.4 211.33 407.69 213.45 409.06 215.53C411.89 219.81 415.09 223.87 417.62 228.28C418.58 229.94 419.44 231.65 420.14 233.44C421.86 237.78 422.57 242.49 422.32 247.15V247.16Z" fill="#80D4A9"/>
<g style="mix-blend-mode:screen" opacity="0.19">
<path d="M422.32 247.16C422.3 247.56 422.27 247.97 422.23 248.37C421.93 251.71 421.22 259.53 416.92 260.3C413.87 260.84 409.44 255.49 407.01 253.8C405.65 252.86 404.25 251.92 402.92 250.91C403.44 248.37 403.91 245.68 402.71 243.42C401.23 240.62 397.87 239.67 394.77 238.48C393.98 234.67 393.85 230.6 393.14 226.75C392.82 225.03 392.39 223.35 391.85 221.7C392.73 220 393.56 218.28 394.1 216.44C395.19 212.75 394.72 208.17 391.58 205.94C389.28 204.31 386.21 204.38 383.42 204.8C383.17 204.84 382.91 204.88 382.65 204.93C380.74 202.36 378.7 199.88 376.62 197.47C375.9 196.64 375.17 195.78 374.46 194.89C378.27 191.89 382.56 189.46 387.09 187.73C389.88 186.66 392.77 185.86 395.72 185.34C395.85 185.32 395.97 185.3 396.1 185.27C397.93 188.29 399.24 191.66 400.35 195.04C401.14 197.45 401.86 199.88 402.65 202.29C402.3 203.11 401.97 203.94 401.71 204.79C400.74 207.98 401 211.95 403.64 213.98C405.16 215.15 407.07 215.42 409.04 215.54C411.87 219.82 415.07 223.88 417.6 228.29C416.8 230.09 415.83 231.82 415.11 233.65C414.04 236.4 413.59 239.69 415.15 242.19C416.69 244.65 419.72 245.72 422.3 247.17L422.32 247.16Z" fill="#80D4A9"/>
</g>
<path d="M204.75 60.18C204.75 64.67 198.66 73.96 195.61 78.34C194.78 79.53 193.02 79.53 192.19 78.34C189.13 73.96 183.05 64.66 183.05 60.18C183.05 54.19 187.91 49.33 193.9 49.33C199.89 49.33 204.75 54.19 204.75 60.18Z" fill="#D6EDF1"/>
<path d="M198.41 60.18C198.41 62.67 196.39 64.69 193.9 64.69C191.41 64.69 189.39 62.67 189.39 60.18C189.39 57.69 191.41 55.67 193.9 55.67C196.39 55.67 198.41 57.69 198.41 60.18Z" fill="white"/>
<path d="M283.55 0L285.86 4.68L291.03 5.43L287.29 9.08L288.17 14.23L283.55 11.8L278.92 14.23L279.81 9.08L276.07 5.43L281.24 4.68L283.55 0Z" fill="#F5AD49"/>
<path d="M301.13 0L303.44 4.68L308.61 5.43L304.87 9.08L305.75 14.23L301.13 11.8L296.5 14.23L297.39 9.08L293.65 5.43L298.81 4.68L301.13 0Z" fill="#F5AD49"/>
<path d="M318.7 0L321.02 4.68L326.19 5.43L322.44 9.08L323.33 14.23L318.7 11.8L314.08 14.23L314.96 9.08L311.22 5.43L316.39 4.68L318.7 0Z" fill="#F5AD49"/>
<path d="M336.28 0L338.59 4.68L343.76 5.43L340.02 9.08L340.91 14.23L336.28 11.8L331.66 14.23L332.54 9.08L328.8 5.43L333.97 4.68L336.28 0Z" fill="#F5AD49"/>
<path d="M353.86 0L356.17 4.68L361.34 5.43L357.6 9.08L358.48 14.23L353.86 11.8L349.24 14.23L350.12 9.08L346.38 5.43L351.55 4.68L353.86 0Z" fill="#F5AD49"/>
<path d="M32.97 51.84H2.5C1.82 51.84 1.27 52.39 1.27 53.07V72.35C1.27 73.03 1.82 73.58 2.5 73.58H23L32.74 77.47C33.44 77.75 34.2 77.23 34.2 76.48V53.07C34.2 52.39 33.65 51.84 32.97 51.84Z" fill="#F5AD49"/>
<path d="M10.1 62.63C10.1 63.42 9.45999 64.07 8.65999 64.07C7.85999 64.07 7.21999 63.43 7.21999 62.63C7.21999 61.83 7.85999 61.19 8.65999 61.19C9.45999 61.19 10.1 61.83 10.1 62.63Z" fill="white"/>
<path d="M19.17 62.63C19.17 63.42 18.53 64.07 17.73 64.07C16.93 64.07 16.29 63.43 16.29 62.63C16.29 61.83 16.93 61.19 17.73 61.19C18.53 61.19 19.17 61.83 19.17 62.63Z" fill="white"/>
<path d="M28.23 62.63C28.23 63.42 27.59 64.07 26.79 64.07C25.99 64.07 25.35 63.43 25.35 62.63C25.35 61.83 25.99 61.19 26.79 61.19C27.59 61.19 28.23 61.83 28.23 62.63Z" fill="white"/>
<path d="M131.06 29.23H107.92C107.24 29.23 106.69 29.78 106.69 30.46V49.74C106.69 50.42 107.24 50.97 107.92 50.97H121.1L130.84 54.86C131.54 55.14 132.3 54.62 132.3 53.87V30.46C132.3 29.78 131.75 29.23 131.07 29.23H131.06Z" fill="#FF4846"/>
<path d="M114.2 37.84C114.2 36.32 115.13 35.36 116.44 35.36C117.75 35.36 118.66 36.31 118.66 37.84C118.66 39.37 117.75 40.32 116.44 40.32C115.13 40.32 114.2 39.36 114.2 37.84ZM117.37 37.84C117.37 36.88 117 36.41 116.43 36.41C115.86 36.41 115.49 36.89 115.49 37.84C115.49 38.79 115.88 39.27 116.43 39.27C116.98 39.27 117.37 38.81 117.37 37.84ZM121.79 35.46H123.32L117.18 44.46H115.65L121.79 35.46ZM120.31 42.08C120.31 40.56 121.24 39.6 122.53 39.6C123.82 39.6 124.77 40.56 124.77 42.08C124.77 43.6 123.84 44.56 122.53 44.56C121.22 44.56 120.31 43.6 120.31 42.08ZM123.47 42.08C123.47 41.13 123.1 40.65 122.53 40.65C121.96 40.65 121.59 41.11 121.59 42.08C121.59 43.05 121.98 43.51 122.53 43.51C123.08 43.51 123.47 43.03 123.47 42.08Z" fill="white"/>
<path d="M44.21 153.75C43.74 155.18 43.36 156.63 43.07 158.1" stroke="white" stroke-miterlimit="10"/>
<path d="M42.39 167.1C42.74 175.85 45.91 184.58 51.08 191.71C58.93 202.51 70.95 209.83 83.74 213.64C96.54 217.45 110.11 217.97 123.43 217.05C142.17 215.76 160.58 211.69 179.17 209.01C197.76 206.33 216.88 205.03 235.18 209.25C250.53 212.78 265.36 220.63 275.34 232.63" stroke="white" stroke-miterlimit="10"/>
<path d="M278.1 236.2C278.96 237.42 279.77 238.68 280.54 239.98" stroke="white" stroke-miterlimit="10"/>
<g style="mix-blend-mode:multiply" opacity="0.5">
<path d="M71.61 140.77L43.42 150.11L36.61 143.26L71.61 140.77Z" fill="#80C8D4"/>
</g>
<path d="M45.81 153.1L43.1 156.15L47.7 154.65L45.81 153.1Z" fill="#577BB5"/>
<g style="mix-blend-mode:multiply" opacity="0.5">
<path d="M45.81 153.1L53.44 163.78C53.44 163.78 71.66 140.65 71.61 140.78C71.56 140.91 45.81 153.1 45.81 153.1Z" fill="#80C8D4"/>
</g>
<path d="M43.1 156.15L43.42 150.11L71.61 140.77L45.81 153.1L43.1 156.15Z" fill="#4E6FA3"/>
<path d="M22.67 127.16C22.67 129.89 20.46 132.1 17.73 132.1C15 132.1 12.79 129.89 12.79 127.16C12.79 124.43 15 122.22 17.73 122.22C20.46 122.22 22.67 124.43 22.67 127.16Z" fill="#D6EDF1"/>
<path d="M11.37 146.26C13.2864 146.26 14.84 144.706 14.84 142.79C14.84 140.874 13.2864 139.32 11.37 139.32C9.45357 139.32 7.89999 140.874 7.89999 142.79C7.89999 144.706 9.45357 146.26 11.37 146.26Z" fill="#D6EDF1"/>
<path d="M85.5 138.01C85.5 140.24 83.69 142.05 81.46 142.05C79.23 142.05 77.42 140.24 77.42 138.01C77.42 135.78 79.23 133.97 81.46 133.97C83.69 133.97 85.5 135.78 85.5 138.01Z" fill="white"/>
<path d="M95.07 155.41C95.07 157.14 93.67 158.55 91.93 158.55C90.19 158.55 88.79 157.15 88.79 155.41C88.79 153.67 90.19 152.27 91.93 152.27C93.67 152.27 95.07 153.67 95.07 155.41Z" fill="white"/>
<path d="M250.09 165.93C250.09 166.69 249.48 167.3 248.72 167.3C247.96 167.3 247.35 166.69 247.35 165.93C247.35 165.17 247.96 164.56 248.72 164.56C249.48 164.56 250.09 165.17 250.09 165.93Z" fill="white"/>
<path d="M44.9 203.64C44.9 204.89 43.89 205.91 42.63 205.91C41.37 205.91 40.36 204.9 40.36 203.64C40.36 202.38 41.38 201.37 42.63 201.37C43.88 201.37 44.9 202.38 44.9 203.64Z" fill="white"/>
<path d="M206.12 256.11C207.269 256.11 208.2 255.179 208.2 254.03C208.2 252.881 207.269 251.95 206.12 251.95C204.971 251.95 204.04 252.881 204.04 254.03C204.04 255.179 204.971 256.11 206.12 256.11Z" fill="white"/>
<path d="M442.09 83.59C442.09 84.72 441.17 85.64 440.04 85.64C438.91 85.64 437.99 84.72 437.99 83.59C437.99 82.46 438.91 81.54 440.04 81.54C441.17 81.54 442.09 82.46 442.09 83.59Z" fill="#D6EDF1"/>
<path d="M446.37 146C447.618 146 448.63 144.988 448.63 143.74C448.63 142.492 447.618 141.48 446.37 141.48C445.122 141.48 444.11 142.492 444.11 143.74C444.11 144.988 445.122 146 446.37 146Z" fill="white"/>
<path d="M459.39 108.08C459.39 109.48 458.26 110.61 456.86 110.61C455.46 110.61 454.33 109.48 454.33 108.08C454.33 106.68 455.46 105.55 456.86 105.55C458.26 105.55 459.39 106.68 459.39 108.08Z" fill="#D6EDF1"/>
<path d="M258.44 36.22C259.644 36.22 260.62 35.244 260.62 34.04C260.62 32.836 259.644 31.86 258.44 31.86C257.236 31.86 256.26 32.836 256.26 34.04C256.26 35.244 257.236 36.22 258.44 36.22Z" fill="#D6EDF1"/>
<path d="M96.84 37.79C96.84 38.66 96.14 39.36 95.27 39.36C94.4 39.36 93.7 38.66 93.7 37.79C93.7 36.92 94.4 36.22 95.27 36.22C96.14 36.22 96.84 36.92 96.84 37.79Z" fill="#D6EDF1"/>
<path style="mix-blend-mode:multiply" opacity="0.5" d="M298.37 339.43C326.553 339.43 349.4 337.5 349.4 335.12C349.4 332.74 326.553 330.81 298.37 330.81C270.187 330.81 247.34 332.74 247.34 335.12C247.34 337.5 270.187 339.43 298.37 339.43Z" fill="url(#paint0_radial_1_600)"/>
<path d="M288.51 251.71C289.26 262.12 289.3 271.58 288.9 279.98C287.53 308.84 281.08 325.32 281.08 325.32L271.38 325.1L265.3 237.24L264.62 227.35C266.63 227.17 268.63 226.97 270.6 226.8C278.41 226.12 286.19 225.08 293.94 223.91C291.71 239.69 288.52 251.71 288.52 251.71H288.51Z" fill="#C7683C"/>
<g style="mix-blend-mode:multiply" opacity="0.5">
<path d="M288.51 251.71C289.26 262.12 289.3 271.58 288.9 279.98L286.73 256.77C285.7 245.7 276.41 237.24 265.29 237.24L264.61 227.35C266.62 227.17 268.62 226.97 270.59 226.8C278.4 226.12 286.18 225.08 293.93 223.91C291.7 239.69 288.51 251.71 288.51 251.71Z" fill="#C7683C"/>
</g>
<path d="M282.28 324.89C282.28 324.89 284.16 330.62 282.97 333.8H258.04C258.04 333.8 256.41 329.21 263.49 329.71L270.63 325.33L269.75 310.73C269.75 310.73 273.76 307.97 276.77 311.86L285.48 312.61L282.29 324.89H282.28Z" fill="#E6E6E6"/>
<path d="M276.76 311.86C276.76 311.86 275.01 323.82 274.48 325.33C273.94 326.83 271.31 330.78 268.44 330.81C265.55 330.84 263.49 329.71 263.49 329.71L270.63 325.33L269.75 310.73C269.75 310.73 273.76 307.97 276.77 311.86H276.76Z" fill="#A9C0C4"/>
<path d="M308.94 221.33C305.02 222.12 301.05 222.81 297.03 223.43C292.35 224.16 287.66 224.84 282.96 225.45C293.41 255.78 307.43 292.56 319.89 317.47C323.81 318.72 326.07 315.01 329.35 314.33C328.71 291.15 319.63 267.29 311.09 246.18C310.65 238.93 310.04 230.34 308.94 221.33Z" fill="#D4774C"/>
<path d="M331.18 313.59C331.18 313.59 335.31 317.98 335.58 321.36L313 331.93C313 331.93 309.58 328.47 316.2 325.92L320.81 318.93L313.83 306.08C313.83 306.08 316.29 301.88 320.66 304.13L328.87 301.12L331.18 313.59Z" fill="#E6E6E6"/>
<path d="M320.66 304.13C320.66 304.13 324.14 315.71 324.3 317.3C324.45 318.89 323.74 323.58 321.15 324.82C318.55 326.07 316.2 325.93 316.2 325.93L320.81 318.94L313.83 306.09C313.83 306.09 316.29 301.89 320.66 304.14V304.13Z" fill="#A9C0C4"/>
<path d="M320.43 193.28C317.92 194.07 315.53 195.14 313 195.78C308.23 182.04 303.2 167.24 296.97 154.75C295.55 151.9 294.17 149.24 292.8 146.69C290.87 143.07 288.98 139.68 287.07 136.32C291.14 134.67 295.13 132.82 299.12 130.97C300.44 130.36 301.78 129.75 303.1 129.14C304.6 132.47 305.95 135.87 307.19 139.28C308.21 142.1 309.16 144.93 310.05 147.74C314.85 162.93 317.85 177.66 320.44 193.3L320.43 193.28Z" fill="#D4774C"/>
<path d="M315.95 189.19C315.95 189.19 317.73 189.88 319.62 191.72C321.51 193.57 321.74 197.28 322.84 198.89C323.94 200.5 324.97 201.84 324.6 202.29C324.23 202.74 323.57 202.1 321.62 199.73C321.62 199.73 320.4 198.81 320.96 200.2C321.51 201.58 323.65 204.43 322.99 205.15C322.45 205.73 319.69 201.27 319.36 201.2C319.03 201.13 321.6 207.06 320.53 207.89C319.46 208.72 318.37 201.6 317.58 201.51C316.79 201.42 318.16 206.46 317.46 206.71C315.93 207.27 315.43 199.01 314.75 199.18C314.07 199.35 313.54 202.42 312.62 202.23C311.7 202.05 312.9 198.92 312.85 198.29C312.8 197.66 311.49 190.38 315.97 189.19H315.95Z" fill="#D4774C"/>
<path d="M307.18 139.26L292.8 146.68C290.87 143.06 288.98 139.67 287.07 136.31C291.14 134.66 295.13 132.81 299.12 130.96C300.44 130.35 301.78 129.74 303.1 129.13C304.6 132.46 305.95 135.86 307.19 139.27L307.18 139.26Z" fill="#BF6237"/>
<path d="M306.07 133.12C306.07 133.12 294.42 141.11 289.15 141.48L274.52 114.8C274.52 114.8 274.42 113.32 274.64 111.28C275.38 104.32 283.61 100.91 289 105.35L289.15 105.48C290.25 106.41 291.66 108.2 293.18 110.45C297.23 116.41 302.13 125.54 304.55 130.19C305.49 132 306.06 133.13 306.06 133.13L306.07 133.12Z" fill="#D99434"/>
<g style="mix-blend-mode:multiply" opacity="0.5">
<path d="M306.07 133.12C306.07 133.12 294.42 141.11 289.15 141.48L274.52 114.8C274.52 114.8 274.42 113.32 274.64 111.28C275.38 104.32 283.61 100.91 289 105.35L289.15 105.48C290.25 106.41 291.66 108.2 293.18 110.45C292.69 116.1 292.21 121.76 291.72 127.42C291.6 128.76 291.51 130.2 292.15 131.37C292.98 132.9 294.85 133.58 296.6 133.66C299.6 133.79 302.59 132.44 304.55 130.19C305.49 132 306.06 133.13 306.06 133.13L306.07 133.12Z" fill="#D99434"/>
</g>
<path d="M280.61 100.96V84.2599H269.51V101.79C266.79 102.77 264.44 104.63 262.83 107.08C261.93 108.45 261.1 109.61 260.35 110.68C261.38 111.19 262.47 111.62 263.57 112C263.97 111.95 264.36 111.91 264.68 111.87C267.9 111.53 271.17 110.87 274.1 109.46C276.4 108.36 278.57 107.02 280.19 105.06C280.22 104.9 280.24 104.74 280.3 104.58C280.73 103.3 281.27 102.17 281.91 101.09C281.46 101.04 281.02 101 280.59 100.96H280.61Z" fill="#D4774C"/>
<path d="M280.44 88.3799C279.46 91.0399 278.2 93.4799 276.65 95.0099C275.03 96.6199 273.43 97.5199 272.01 98.0099C271.08 98.3299 270.23 98.4799 269.51 98.5399V95.6299C270.36 95.6999 271.69 95.6499 273.26 95.0999C274.68 94.6099 276.29 93.7099 277.91 92.0999C278.87 91.1499 279.71 89.8499 280.44 88.3799Z" fill="#BF6237"/>
<path d="M314.58 225.6C313.81 225.8 312.44 226.12 310.63 226.52C300.9 228.67 278.37 233.19 266.25 233.8C264.8 233.87 263.49 233.9 262.38 233.84L261.25 152.29C261.25 152.29 260.15 145.59 259 138.69C257.89 132.07 256.73 125.27 256.46 124C255.89 121.42 255.38 119.77 259.89 110.84C264.39 101.92 269.57 101.74 269.57 101.74C265.65 102.54 261.41 109.55 261.41 109.55C261.41 109.55 270.46 107.05 273.82 103.54C277.18 100.03 281.24 100.77 281.24 100.77C284.67 101.38 286.87 103.35 288.28 105.51C290.16 108.42 290.75 111.99 290.13 115.4C289.39 119.45 288.97 124.68 288.75 129.61C288.37 137.74 288.49 145.08 288.49 145.08C302.01 158.37 299.41 179.27 299.41 179.27L314.59 225.58L314.58 225.6Z" fill="#F5AD49"/>
<path d="M279.75 130.44C279.15 134.62 278.64 138.81 278.32 143.01C278.16 145.11 278.05 147.22 278.04 149.32C278.04 149.85 278.04 150.37 278.07 150.89C278.09 151.41 278.1 151.94 278.16 152.46L278.23 153.24C278.26 153.5 278.31 153.76 278.35 154.01C278.44 154.53 278.52 155.04 278.61 155.56C280.28 163.82 282.19 172.05 284.1 180.26L289.78 204.93L292.61 217.27L295.38 229.62C293.26 221.45 291.23 213.26 289.23 205.06C287.23 196.86 285.31 188.64 283.38 180.42L280.61 168.06C279.73 163.93 278.79 159.82 278.05 155.65C277.96 155.13 277.89 154.6 277.81 154.07C277.77 153.81 277.73 153.54 277.7 153.28L277.64 152.48C277.59 151.95 277.58 151.42 277.57 150.89C277.55 150.36 277.56 149.83 277.57 149.3C277.61 147.18 277.75 145.07 277.95 142.97C278.38 138.77 278.97 134.58 279.73 130.43L279.75 130.44Z" fill="#C2612D"/>
<g style="mix-blend-mode:screen" opacity="0.5">
<path d="M285.34 117.11L276.71 143.58C268.34 157.95 264.16 174.38 264.75 190.99L266.26 233.8C264.81 233.87 263.5 233.9 262.39 233.84L261.26 152.29C261.26 152.29 260.16 145.59 259.01 138.69L281.93 113.7L285.35 117.1L285.34 117.11Z" fill="#F5AD49"/>
</g>
<g style="mix-blend-mode:multiply" opacity="0.5">
<path d="M314.58 225.6C313.81 225.8 312.44 226.12 310.63 226.52L295.39 178.88C298.71 164.12 285.33 147.43 285.33 147.43L288.73 129.62C288.35 137.75 288.47 145.09 288.47 145.09C301.99 158.38 299.39 179.28 299.39 179.28L314.57 225.59L314.58 225.6Z" fill="#F5AD49"/>
</g>
<path d="M218.02 127.79C215.73 128.21 214.75 128.7 212.74 129.87C209.63 124.32 206.61 118.84 204.04 112.97C206.72 111.8 209.46 110.79 212.12 109.57C214.82 115.84 217.62 120.84 218.02 127.79Z" fill="#67B38B"/>
<path d="M212.65 127.86C209.59 123.79 207.91 118.75 205.69 114.2C206.1 113.97 206.23 113.62 206.09 113.17C207.69 112.52 209.3 111.9 210.89 111.21C211.12 111.61 211.48 111.75 211.92 111.61C214.17 116.27 216.83 120.75 217.07 126.05C216.62 126.17 216.46 126.5 216.43 126.95C215.28 127.09 214.49 127.46 213.57 128.17C213.34 127.84 213.04 127.68 212.65 127.86Z" fill="#80D4A9"/>
<path d="M214.81 118.84C215.46 120.34 214.65 121.83 213.2 122.43C211.75 123.03 210.18 122.55 209.55 121.08C208.92 119.61 209.52 117.98 211 117.34C212.48 116.7 214.17 117.34 214.81 118.83V118.84Z" fill="#67B38B"/>
<path d="M213.69 119C213.87 118.93 214.03 118.86 214.2 118.79C214.26 118.94 214.33 119.08 214.39 119.23C214.23 119.3 214.06 119.37 213.9 119.44C214.03 119.86 214.09 120.26 213.99 120.68C213.77 120.68 213.56 120.67 213.34 120.68C213.42 120.34 213.4 120.03 213.31 119.7C213.06 119.81 212.8 119.92 212.56 120.03C212.6 120.64 212.7 121.12 212.02 121.44C211.51 121.67 210.94 121.37 210.66 120.86C210.48 120.93 210.31 121 210.14 121.07C210.08 120.92 210.02 120.77 209.95 120.63C210.12 120.56 210.29 120.5 210.46 120.43C210.36 120.09 210.3 119.75 210.34 119.4C210.56 119.4 210.79 119.4 211.01 119.4C210.99 119.67 211.01 119.93 211.08 120.19C211.34 120.08 211.6 119.98 211.84 119.85C211.81 119.26 211.62 118.73 212.31 118.4C212.82 118.16 213.42 118.51 213.7 119.01L213.69 119ZM211.91 120.32C211.69 120.41 211.48 120.5 211.26 120.6C211.38 120.75 211.54 120.85 211.72 120.77C211.91 120.69 211.9 120.5 211.9 120.33L211.91 120.32ZM212.66 119.08C212.48 119.16 212.48 119.35 212.48 119.53C212.69 119.44 212.9 119.35 213.1 119.26C212.98 119.12 212.84 119 212.66 119.09V119.08Z" fill="#80D4A9"/>
<path d="M217.8 128.65C215.48 128.44 214.41 128.65 212.15 129.23C210.65 123.04 209.22 116.95 208.33 110.61C211.22 110.21 214.14 109.97 217.02 109.51C217.93 116.28 219.27 121.85 217.8 128.65Z" fill="#67B38B"/>
<path d="M212.61 127.27C210.76 122.53 210.5 117.22 209.58 112.24C210.04 112.12 210.26 111.83 210.24 111.36C211.96 111.17 213.68 111 215.39 110.77C215.51 111.22 215.81 111.45 216.28 111.44C217.19 116.53 218.55 121.57 217.35 126.73C216.88 126.73 216.64 127 216.49 127.42C215.35 127.25 214.48 127.39 213.41 127.82C213.28 127.44 213.03 127.2 212.61 127.28V127.27Z" fill="#80D4A9"/>
<path d="M217.12 119.18C217.34 120.8 216.16 122.01 214.6 122.21C213.04 122.4 211.65 121.52 211.44 119.93C211.23 118.34 212.24 116.94 213.84 116.72C215.44 116.5 216.89 117.57 217.11 119.19L217.12 119.18Z" fill="#67B38B"/>
<path d="M215.99 119.03C216.18 119.01 216.36 118.99 216.54 118.97C216.56 119.13 216.58 119.29 216.6 119.45C216.42 119.47 216.25 119.49 216.07 119.51C216.09 119.95 216.03 120.35 215.82 120.73C215.61 120.67 215.41 120.6 215.2 120.55C215.37 120.24 215.43 119.94 215.43 119.6C215.16 119.64 214.88 119.67 214.62 119.72C214.49 120.32 214.46 120.81 213.72 120.93C213.17 121.02 212.7 120.57 212.56 120.01C212.37 120.02 212.19 120.05 212 120.07C211.98 119.91 211.96 119.75 211.94 119.59C212.12 119.57 212.3 119.55 212.48 119.53C212.48 119.17 212.51 118.83 212.64 118.5C212.85 118.56 213.07 118.62 213.28 118.68C213.19 118.94 213.14 119.19 213.13 119.46C213.41 119.43 213.69 119.4 213.96 119.34C214.09 118.76 214.05 118.2 214.8 118.07C215.35 117.98 215.84 118.47 215.98 119.03H215.99ZM213.92 119.82C213.69 119.85 213.45 119.88 213.22 119.91C213.3 120.08 213.42 120.22 213.62 120.19C213.82 120.16 213.87 119.98 213.92 119.81V119.82ZM214.97 118.83C214.77 118.86 214.73 119.04 214.68 119.21C214.9 119.18 215.13 119.15 215.35 119.11C215.27 118.95 215.17 118.79 214.97 118.82V118.83Z" fill="#80D4A9"/>
<path d="M217.35 129.43C215.18 128.6 214.09 128.51 211.76 128.46C211.98 122.1 212.25 115.85 213.09 109.5C215.99 109.89 218.85 110.45 221.76 110.79C220.81 117.55 220.61 123.28 217.35 129.43Z" fill="#67B38B"/>
<path d="M212.73 126.7C212.23 121.64 213.41 116.45 213.86 111.41C214.33 111.42 214.62 111.19 214.74 110.74C216.45 111.02 218.15 111.32 219.86 111.56C219.86 112.03 220.08 112.33 220.53 112.44C220.03 117.59 219.99 122.81 217.44 127.45C216.99 127.32 216.68 127.52 216.42 127.88C215.37 127.41 214.49 127.31 213.35 127.44C213.32 127.04 213.15 126.74 212.73 126.7Z" fill="#80D4A9"/>
<path d="M219.25 120.12C219.02 121.73 217.57 122.59 216.01 122.36C214.45 122.13 213.36 120.9 213.59 119.31C213.82 117.73 215.17 116.65 216.77 116.87C218.37 117.09 219.48 118.51 219.26 120.13L219.25 120.12Z" fill="#67B38B"/>
<path d="M275.67 136.65C274.16 138.75 272.57 140.8 270.92 142.8C270.8 142.95 270.67 143.11 270.54 143.26C268.95 145.19 266.2 148.21 263.79 150.82C260.93 153.91 256.44 154.82 252.6 153.09C250.06 151.94 247.31 150.68 245.5 149.8C240.61 147.41 235.93 144.63 231.27 141.72C226.61 138.82 221.99 135.79 217.22 132.93C215.86 132.16 213.91 130.91 213.91 130.91C212.49 130.65 212.47 129.14 212.47 129.14C211.38 129.09 211.41 127.92 211.41 127.92C209.88 127.38 210.57 125.99 210.57 125.99C210.57 125.99 212.45 126.73 212.51 126.51C212.56 126.29 207.68 123.23 208.85 122.81C210.02 122.38 215.25 125.49 217.23 125.65C219.21 125.81 219.55 124 219.55 124L219.98 122.39C219.98 122.39 220.8 123.02 221.08 123.75C221.36 124.47 220.87 127.14 220.87 127.14C231.38 131.24 242.45 135.58 253.17 138.84C254.52 136.8 255.81 134.81 257.06 132.86C258.74 130.23 260.35 127.64 261.98 125.01C263.39 126.36 264.85 127.67 266.32 128.96C269.36 131.62 272.47 134.19 275.67 136.65Z" fill="#D4774C"/>
<path d="M275.67 136.65C274.16 138.75 272.57 140.8 270.92 142.8C264.49 141.37 259.69 136.32 257.05 132.86C258.73 130.23 260.34 127.64 261.97 125.01C263.38 126.36 264.84 127.67 266.31 128.96C269.35 131.62 272.46 134.19 275.66 136.65H275.67Z" fill="#BF6237"/>
<path d="M258.9 127.82L273.47 106.53C273.47 106.53 285.01 101.27 287.84 114.33L274.53 139.33C274.53 139.33 264.17 137.45 258.91 127.82H258.9Z" fill="#F5AD49"/>
<path d="M259.6 128.84C259.34 128.52 259.08 128.2 258.83 127.87L258.8 127.83L258.83 127.77C259.75 126.27 260.74 124.81 261.71 123.34C262.7 121.88 263.7 120.44 264.73 119.01C265.76 117.58 266.79 116.16 267.87 114.76C268.94 113.36 270.01 111.97 271.15 110.62C270.25 112.14 269.29 113.61 268.31 115.08C267.35 116.55 266.34 117.99 265.33 119.43C264.31 120.87 263.28 122.29 262.23 123.7C261.16 125.1 260.11 126.51 258.99 127.87V127.77C259.21 128.12 259.41 128.48 259.62 128.84H259.6Z" fill="#C2612D"/>
<path d="M273.69 139.33C274.13 139.53 274.58 139.73 275.02 139.95L274.91 139.99C275.81 137.92 276.78 135.88 277.73 133.83C278.7 131.79 279.69 129.77 280.7 127.75C281.72 125.74 282.73 123.72 283.8 121.73C284.86 119.74 285.93 117.75 287.06 115.79C286.18 117.87 285.24 119.93 284.28 121.97C283.34 124.02 282.34 126.05 281.34 128.07C280.34 130.09 279.31 132.1 278.27 134.1C277.2 136.09 276.16 138.09 275.04 140.06L275 140.14L274.93 140.1C274.51 139.85 274.1 139.59 273.68 139.34L273.69 139.33Z" fill="#C2612D"/>
<path d="M256.31 82.82C256.58 81.84 257.24 80.96 257.85 80.12C258.23 79.6 258.59 79.03 258.84 78.43C259.24 73.48 260.43 68.76 261.11 67.39C262.19 65.27 267.99 63.35 273.69 64.42C279.4 65.45 284.13 69.31 284.38 71.68C284.47 72.58 284.9 76.18 281.85 85.01C280.85 87.85 279.54 90.48 277.89 92.1C276.27 93.71 274.66 94.61 273.24 95.1C270.51 96.05 268.5 95.48 268.5 95.48L267.41 95.28C267.41 95.28 264.79 95.05 262.31 92.47C261.43 91.56 260.58 90.36 259.86 88.77C259.37 87.67 259.05 86.35 258.87 84.92C258.09 84.91 257.3 84.64 256.7 84.15C256.31 83.83 256.15 83.3 256.29 82.81L256.31 82.82Z" fill="#D4774C"/>
<path d="M277.73 82.5C277.87 82.14 277.91 81.77 277.92 81.39C277.94 81.02 277.92 80.65 277.8 80.35C277.57 79.74 276.78 79.68 276.24 80.05C275.67 80.41 275.14 80.98 274.85 81.61C274.56 82.26 274.49 83.02 274.4 83.79C274.28 83.04 274.18 82.25 274.44 81.46C274.71 80.67 275.25 80.05 275.95 79.58C276.31 79.36 276.78 79.23 277.23 79.32C277.69 79.4 278.11 79.78 278.21 80.22C278.33 80.65 278.27 81.06 278.19 81.44C278.09 81.81 277.98 82.21 277.73 82.51V82.5Z" fill="#BF6237"/>
<path d="M275.82 84C275.99 83.68 276.06 83.36 276.11 83.05C276.15 82.74 276.16 82.41 276.14 82.1C276.12 81.79 276.05 81.51 275.9 81.28C275.74 81.06 275.48 80.84 275.12 80.85C275.42 80.62 275.92 80.7 276.22 80.98C276.54 81.26 276.67 81.68 276.7 82.06C276.72 82.44 276.68 82.81 276.54 83.17C276.41 83.52 276.16 83.84 275.83 84.01L275.82 84Z" fill="#BF6237"/>
<path d="M263.51 86.78C263.35 87.06 263.08 87.25 262.81 87.39C262.52 87.51 262.21 87.6 261.89 87.53C262.17 87.37 262.43 87.27 262.69 87.13C262.96 87.02 263.21 86.88 263.51 86.77V86.78Z" fill="#BF6237"/>
<path d="M264.23 84.39C263.94 85.3 263.25 86.07 262.4 86.55C261.97 86.79 261.5 86.96 261.02 87.01C260.54 87.09 260.05 87.02 259.59 86.9C260.52 86.73 261.37 86.51 262.12 86.06C262.89 85.64 263.56 85.06 264.22 84.39H264.23Z" fill="#BF6237"/>
<path d="M261.24 84.27C261.19 84.53 261.1 84.64 260.99 84.72C260.87 84.79 260.74 84.82 260.48 84.76C260.45 84.49 260.56 84.35 260.69 84.25C260.83 84.17 261.01 84.13 261.24 84.27Z" fill="#BF6237"/>
<path d="M261.99 80.1399C261.99 80.9399 262.47 81.5899 263.07 81.5899C263.67 81.5899 264.15 80.9399 264.15 80.1399C264.15 79.3399 263.67 78.6899 263.07 78.6899C262.47 78.6899 261.99 79.3399 261.99 80.1399Z" fill="#5E2B13"/>
<path d="M261.56 78.52C261.56 78.52 261.71 78.64 261.83 78.67C261.95 78.71 262.08 78.73 262.21 78.74C262.48 78.76 262.76 78.74 263.04 78.7C263.28 78.67 263.5 78.84 263.54 79.08C263.57 79.32 263.4 79.54 263.16 79.58C263.11 79.58 263.06 79.58 263.02 79.58C262.7 79.52 262.38 79.45 262.06 79.33C261.9 79.26 261.75 79.19 261.6 79.08C261.46 78.96 261.32 78.86 261.25 78.6C261.23 78.53 261.27 78.45 261.35 78.43C261.4 78.42 261.44 78.43 261.48 78.46L261.56 78.53V78.52Z" fill="#5E2B13"/>
<path d="M261.55 75.93C261.91 75.9 262.35 75.87 262.75 75.89C263.16 75.89 263.58 75.93 263.99 75.99C264.4 76.05 264.81 76.16 265.21 76.29C265.62 76.42 266 76.6 266.4 76.78H266.42C266.56 76.85 266.73 76.78 266.79 76.65C266.84 76.54 266.81 76.41 266.72 76.33C266.37 76.01 265.99 75.71 265.56 75.49C265.14 75.24 264.68 75.08 264.22 74.94C263.75 74.8 263.26 74.73 262.78 74.72C262.28 74.72 261.82 74.74 261.29 74.9C261.01 74.98 260.84 75.28 260.93 75.56C261 75.81 261.24 75.96 261.49 75.94H261.55V75.93Z" fill="#5E2B13"/>
<path d="M260.6 74.9999C260.54 75.2099 260.62 75.45 260.78 75.61C260.94 75.77 261.14 75.8599 261.34 75.9199H261.35C261.5 75.9699 261.66 75.8899 261.71 75.7399C261.76 75.5899 261.67 75.4299 261.52 75.3799C261.49 75.3699 261.45 75.37 261.42 75.37C261.27 75.38 261.13 75.3699 261.01 75.3199C260.95 75.2899 260.9 75.2599 260.86 75.2099C260.82 75.1599 260.79 75.0899 260.78 75.0299V75.01C260.78 75.01 260.72 74.93 260.68 74.94C260.64 74.94 260.62 74.9699 260.61 74.9999H260.6Z" fill="#5E2B13"/>
<path d="M269.57 93.51C272.304 93.51 274.52 91.2938 274.52 88.56C274.52 85.8262 272.304 83.61 269.57 83.61C266.836 83.61 264.62 85.8262 264.62 88.56C264.62 91.2938 266.836 93.51 269.57 93.51Z" fill="#D46C46"/>
<path d="M267.44 95.2899C267.44 95.2899 264.82 95.0499 262.34 92.4799C261.68 91.7999 261.03 90.9399 260.44 89.8799C261.71 94.5499 263.58 99.0499 265.99 103.25C267.84 101.98 269.22 101.79 269.52 101.76V95.6399C268.89 95.5999 268.53 95.4899 268.53 95.4899L267.44 95.2899Z" fill="#1A223B"/>
<path d="M296.18 102.07C293.33 98.82 289.92 95.85 288.33 91.82C285.99 85.84 288.19 78.91 286.32 72.77C284.95 68.26 281.31 64.52 276.85 63.02C273.98 62.06 270.84 61.99 267.87 62.59C265.05 63.16 262.22 64.41 260.51 66.72C258.67 69.21 258.39 72.5 258.43 75.59C258.44 76.72 258.49 77.85 258.58 78.98C258.68 78.8 258.77 78.61 258.84 78.43C259 76.42 259.3 74.45 259.64 72.72C262.96 73.71 266.85 73.18 269.87 71.49C269.13 73.16 269 75.09 269.51 76.84C270.02 78.59 271.18 80.15 272.7 81.15C273.55 80.32 274.28 79.2 275.38 78.76C276.48 78.32 277.88 78.4 278.69 79.26C279.48 80.1 279.5 81.47 279.01 82.52C278.52 83.57 277.61 84.36 276.69 85.06C276.81 86.6 277.46 88.14 278.45 89.33C279.05 90.05 279.78 90.65 280.6 91.11V100.73C281 100.74 281.23 100.79 281.23 100.79C283.97 101.28 285.93 102.63 287.32 104.26C287.9 104.55 288.46 104.91 289 105.35L289.15 105.48C291.39 107.36 294.87 112.8 298.09 118.36C299.35 117.08 300.28 115.52 300.64 113.76C301.52 109.52 299.03 105.32 296.17 102.06L296.18 102.07Z" fill="#1A223B"/>
<path style="mix-blend-mode:multiply" opacity="0.5" d="M207.83 334.04C207.83 336.42 184.98 338.35 156.8 338.35C128.62 338.35 105.77 336.42 105.77 334.04C105.77 331.66 128.62 329.73 156.8 329.73C184.98 329.73 207.83 331.66 207.83 334.04Z" fill="url(#paint1_radial_1_600)"/>
<path d="M189.92 323.85H172.87L140.32 228.55L141.83 168.46L162.44 161.97L169.3 202.44L189.92 323.85Z" fill="#1C2540"/>
<g style="mix-blend-mode:multiply" opacity="0.5">
<path d="M177.31 323.85H172.86L140.32 228.55L141.82 168.46L162.43 161.97L169.3 202.43C158.72 228.63 157.39 257.66 165.53 284.71L177.31 323.84V323.85Z" fill="#1C2540"/>
</g>
<path d="M174.09 325.11C174.09 325.11 171.83 328.67 174.09 333.47H201.48C201.48 333.47 202.37 331.92 201.48 331.12C200.59 330.32 191.52 330.07 187.48 323.85H173.9L174.09 325.1V325.11Z" fill="#E6E6E6"/>
<path d="M201.88 332.94H173.64V334.04H201.88V332.94Z" fill="#A9C0C4"/>
<path d="M125.13 163.66C125.13 163.66 122.25 174.98 124.35 183.7L125.04 252.04L119.87 323.85H135.94L157.65 184.8L162.44 161.96L125.13 163.65V163.66Z" fill="#28365D"/>
<path d="M121.37 325.11C121.37 325.11 119.11 328.67 121.37 333.47H148.76C148.76 333.47 149.65 331.92 148.76 331.12C147.87 330.32 138.8 330.07 134.76 323.85H121.18L121.37 325.1V325.11Z" fill="#E6E6E6"/>
<path d="M149.16 332.94H120.92V334.04H149.16V332.94Z" fill="#A9C0C4"/>
<path d="M143.97 107.43C146.84 109.85 150.73 113.24 154.6 113.81C156.61 114.11 158.1 113.51 159.25 112.39C159.35 112.13 159.45 111.86 159.55 111.6C159.02 110.8 158.45 109.94 157.86 108.99C156.27 106.43 154.96 104.44 152.84 103.28V85.39H142.24V102C141.24 102.06 140.18 102.16 139.06 102.29C140.5 104.12 142.07 105.83 143.97 107.43Z" fill="#EBAF7F"/>
<path d="M152.83 96.76V99.73C152.45 99.65 152.06 99.54 151.64 99.39C150.23 98.9 148.62 98 147 96.39C146.31 95.71 145.67 94.84 145.09 93.84C146.5 95.07 147.86 95.81 149.09 96.23C150.66 96.78 151.99 96.83 152.84 96.76H152.83Z" fill="#E48855"/>
<path d="M163.83 152.21C163.34 159.06 162.93 164.2 162.93 164.2C162.93 164.2 159.15 164.98 153.43 165.55C153.18 165.57 152.93 165.6 152.67 165.62C144.98 166.33 134.13 166.61 124.34 164.2L129.41 142.96L131.08 127.75L133.8 102.99C133.8 102.99 138.19 101.47 142.23 101.92C142.23 101.92 150.44 108.61 152.79 108.04C152.79 108.04 152.81 108.04 152.82 108.04C153.12 107.96 153.34 107.82 153.5 107.64C154.21 106.84 153.69 105.21 153.26 104.19C153.03 103.66 152.83 103.29 152.83 103.29C152.83 103.29 152.98 103.32 153.21 103.39C153.75 103.54 154.74 103.88 155.31 104.42C156.12 105.19 163.64 115.97 165.01 118.6C165.92 120.32 164.75 139.29 163.84 152.22L163.83 152.21Z" fill="#FF4846"/>
<path d="M141.91 102.21C141.91 102.21 141.35 97.15 141.96 97.1C142.57 97.05 150.98 100.57 151.59 101.83C152.2 103.09 153.1 107.92 153.1 107.92C153.1 107.92 150.52 109.8 141.91 102.2V102.21Z" fill="#FF814F"/>
<path d="M153.1 107.93L152.77 101.6L152.83 99.74C152.83 99.74 155.3 100.57 155.91 101.37C156.52 102.17 156.32 105.7 156.32 105.7C156.32 105.7 155.97 107.79 153.1 107.93Z" fill="#FF814F"/>
<path d="M153.44 165.54C153.19 165.56 152.94 165.59 152.68 165.61C155.31 151.43 153.59 119.99 152.8 108.03C152.8 108.03 152.82 108.03 152.83 108.03C153.13 107.95 153.35 107.81 153.51 107.63C154.28 119.26 156.06 151.02 153.44 165.55V165.54Z" fill="#FF814F"/>
<g style="mix-blend-mode:multiply" opacity="0.5">
<path d="M163.83 152.21C163.34 159.06 162.93 164.2 162.93 164.2C162.93 164.2 159.15 164.98 153.43 165.55C153.18 165.57 152.93 165.6 152.67 165.62C144.98 166.33 134.13 166.61 124.34 164.2L129.41 142.96L131.08 127.75C133.2 126.99 135.4 126.51 137.6 126.37C137.95 134.27 141.97 141.92 148.26 146.72C152.71 150.11 158.23 152.01 163.82 152.21H163.83Z" fill="#871A1A"/>
</g>
<path d="M206.32 141.06V144.7H151.89L160.72 141.73L162.69 141.06H206.32Z" fill="#C7762F"/>
<path d="M199.16 144.7H151.89V189.77H199.16V144.7Z" fill="#F5AD49"/>
<path d="M173.88 182.67H154.02V185.44H173.88V182.67Z" fill="#C7762F"/>
<path d="M167.35 179.47H154.02V181.48H167.35V179.47Z" fill="#C7762F"/>
<path d="M195.51 151.21C195.51 153.21 193.89 154.82 191.9 154.82C189.91 154.82 188.29 153.2 188.29 151.21C188.29 149.22 189.91 147.6 191.9 147.6C193.89 147.6 195.51 149.22 195.51 151.21Z" fill="#C7762F"/>
<g style="mix-blend-mode:screen" opacity="0.5">
<path d="M151.89 189.78H154.02V144.71H151.89V189.78Z" fill="#F5AD49"/>
</g>
<path d="M206.32 141.06V185.63L199.16 189.78V144.7L201.07 143.73L206.32 141.06Z" fill="#E38C3B"/>
<g style="mix-blend-mode:multiply" opacity="0.5">
<path d="M206.32 177.27V185.63L199.16 189.78V144.71L201.07 143.74C200.89 150.6 201.18 157.46 201.96 164.27C202.33 167.48 202.82 170.73 204.12 173.69C204.68 174.98 205.42 176.2 206.31 177.29L206.32 177.27Z" fill="#E38C3B"/>
</g>
<g style="mix-blend-mode:multiply" opacity="0.5">
<path d="M206.32 141.06V141.56C185.85 144.19 168.56 142.72 160.71 141.72L162.68 141.05H206.31L206.32 141.06Z" fill="#C7762F"/>
</g>
<path d="M159.67 185.5C159.67 185.5 163.38 185.78 163.6 185.25C163.82 184.72 160.13 183.53 160.13 183.53L156.93 181.42C154.79 178.87 152.62 176.29 150.45 173.67C150.3 173.77 150.16 173.87 150.01 173.96C148.39 175.32 146.6 176.54 144.73 177.7C144.06 178.32 143.36 178.94 142.65 179.55C145.42 182 148.23 184.44 151.1 186.87C152.08 188.27 154.44 191.08 154.44 191.08C155.6 191.34 156.92 191.14 156.92 191.14C158.02 191.23 159.51 190.91 159.51 190.91C160.69 191.05 161.45 190.27 161.45 190.27C164.38 190.93 165.97 189.71 165.97 189.71H163.83L159.66 185.52L159.67 185.5Z" fill="#EBAF7F"/>
<path d="M156.8 178.79L155.21 180.11L149.59 184.78L148.26 185.88C148.26 185.88 117.43 158.39 116.12 153.69C115.57 151.74 115.92 147.93 116.51 144.14C117.41 138.44 118.85 132.83 120.7 127.36C123.11 120.22 127.16 109.04 129.94 105.53C130.07 105.37 130.19 105.22 130.31 105.1C130.46 104.95 130.62 104.8 130.77 104.66C136.59 99.43 145.76 104.44 145.05 112.22C144.9 113.87 144.53 114.88 144.53 114.88L143.8 117.16L143.78 117.21L142.12 122.38L134.07 149.93L156.81 178.78L156.8 178.79Z" fill="#FF4846"/>
<g style="mix-blend-mode:multiply" opacity="0.5">
<path d="M156.8 178.79L155.21 180.12L129.17 149.03L131.18 147.66L128.17 142.88L133.18 144.7L143.77 117.23L142.11 122.39L134.06 149.95L156.8 178.79Z" fill="#871A1A"/>
</g>
<g style="mix-blend-mode:screen" opacity="0.5">
<path d="M149.58 184.79L148.25 185.89C148.25 185.89 117.42 158.4 116.11 153.7C115.56 151.75 115.91 147.94 116.5 144.15C117.4 138.45 118.84 132.84 120.69 127.37C123.1 120.23 127.15 109.05 129.93 105.54C127.27 113.77 116.05 148.93 117.24 152.85C118.46 156.88 144.81 180.52 149.58 184.78V184.79Z" fill="#FF7A46"/>
</g>
<path d="M146.81 166.12C145.47 164.68 144.2 163.18 142.93 161.68C141.66 160.18 140.43 158.65 139.21 157.12C138 155.58 136.79 154.03 135.62 152.45L133.87 150.08C133.31 149.27 132.73 148.48 132.18 147.66C132.85 148.38 133.49 149.12 134.15 149.86L136.06 152.1C137.33 153.6 138.56 155.13 139.78 156.66C140.99 158.2 142.2 159.75 143.37 161.33C144.54 162.9 145.71 164.49 146.81 166.12Z" fill="#911B1A"/>
<path d="M143.79 117.18C143.14 119.95 142.41 122.7 141.68 125.44C140.94 128.19 140.14 130.91 139.38 133.65C138.56 136.37 137.76 139.1 136.91 141.81L135.62 145.87C135.16 147.22 134.73 148.57 134.25 149.91C134.57 148.52 134.93 147.15 135.27 145.77L136.36 141.65C137.1 138.91 137.9 136.18 138.66 133.44C139.48 130.72 140.27 127.99 141.13 125.28C141.98 122.57 142.85 119.86 143.79 117.17V117.18Z" fill="#911B1A"/>
<path d="M166.03 83.94C165.76 82.96 165.1 82.08 164.49 81.24C164.11 80.72 163.75 80.15 163.5 79.55C163.1 74.6 161.91 69.88 161.23 68.51C160.15 66.39 154.35 64.47 148.65 65.54C142.94 66.57 138.21 70.43 137.96 72.8C137.87 73.7 137.44 77.3 140.49 86.13C141.49 88.97 142.8 91.6 144.45 93.22C146.07 94.83 147.68 95.73 149.1 96.22C151.83 97.17 153.84 96.6 153.84 96.6L154.93 96.4C154.93 96.4 157.55 96.17 160.03 93.59C160.91 92.68 161.76 91.48 162.48 89.89C162.97 88.79 163.29 87.47 163.47 86.04C164.25 86.03 165.04 85.76 165.64 85.27C166.03 84.95 166.19 84.42 166.05 83.93L166.03 83.94Z" fill="#EBAF7F"/>
<path d="M144.61 83.63C144.36 83.33 144.25 82.93 144.15 82.56C144.07 82.18 144.02 81.77 144.13 81.34C144.23 80.9 144.65 80.52 145.1 80.44C145.55 80.34 146.02 80.48 146.38 80.7C147.08 81.17 147.62 81.79 147.88 82.58C148.13 83.37 148.05 84.16 147.92 84.91C147.82 84.15 147.78 83.38 147.48 82.73C147.18 82.11 146.66 81.54 146.09 81.17C145.54 80.8 144.76 80.86 144.53 81.47C144.4 81.77 144.39 82.14 144.41 82.51C144.41 82.89 144.46 83.26 144.6 83.62L144.61 83.63Z" fill="#E48855"/>
<path d="M146.52 85.13C146.19 84.97 145.95 84.64 145.81 84.29C145.66 83.94 145.62 83.56 145.64 83.19C145.67 82.81 145.79 82.39 146.12 82.11C146.42 81.84 146.91 81.74 147.22 81.97C146.86 81.97 146.6 82.17 146.44 82.4C146.29 82.63 146.22 82.92 146.2 83.22C146.16 83.85 146.2 84.48 146.52 85.12V85.13Z" fill="#E48855"/>
<path d="M158.83 87.91C159.13 88.02 159.38 88.16 159.65 88.27C159.91 88.41 160.18 88.5 160.45 88.67C160.13 88.73 159.82 88.64 159.53 88.53C159.25 88.38 158.99 88.2 158.83 87.92V87.91Z" fill="#E48855"/>
<path d="M158.11 85.5201C158.77 86.1901 159.44 86.7701 160.21 87.1901C160.59 87.4101 160.99 87.5801 161.41 87.7101C161.83 87.8601 162.28 87.9201 162.74 88.0201C162.28 88.1501 161.8 88.2001 161.32 88.1201C160.83 88.0701 160.37 87.9001 159.94 87.6601C159.52 87.4201 159.13 87.1101 158.82 86.7401C158.51 86.3701 158.25 85.9601 158.11 85.5001V85.5201Z" fill="#E48855"/>
<path d="M161.1 85.4001C161.22 85.3301 161.31 85.3101 161.4 85.3101C161.5 85.3101 161.57 85.3401 161.64 85.3801C161.71 85.4301 161.77 85.4801 161.8 85.5701C161.84 85.6501 161.87 85.7501 161.85 85.8801C161.72 85.9201 161.63 85.9101 161.55 85.9101C161.46 85.9101 161.4 85.8801 161.34 85.8401C161.29 85.8001 161.23 85.7601 161.19 85.6801C161.15 85.6101 161.11 85.5301 161.09 85.3901L161.1 85.4001Z" fill="#E48855"/>
<path d="M160.35 81.2701C160.35 82.0701 159.87 82.7201 159.27 82.7201C158.67 82.7201 158.19 82.0701 158.19 81.2701C158.19 80.4701 158.67 79.8201 159.27 79.8201C159.87 79.8201 160.35 80.4701 160.35 81.2701Z" fill="#5E2B13"/>
<path d="M160.79 77.06C160.43 77.03 159.99 77 159.59 77.02C159.18 77.02 158.76 77.06 158.35 77.12C157.94 77.18 157.53 77.29 157.13 77.42C156.72 77.55 156.34 77.73 155.94 77.91H155.92C155.78 77.98 155.61 77.91 155.55 77.78C155.5 77.67 155.53 77.54 155.62 77.46C155.97 77.14 156.35 76.84 156.78 76.62C157.2 76.37 157.66 76.21 158.12 76.07C158.59 75.93 159.08 75.86 159.56 75.85C160.06 75.85 160.52 75.87 161.05 76.03C161.33 76.11 161.5 76.41 161.41 76.69C161.34 76.94 161.1 77.09 160.85 77.07H160.79V77.06Z" fill="#5E2B13"/>
<path d="M161.74 76.1201C161.8 76.3301 161.72 76.5701 161.56 76.7301C161.4 76.8901 161.2 76.9801 161 77.0401H160.99C160.84 77.0901 160.68 77.0101 160.63 76.8601C160.58 76.7101 160.67 76.5501 160.82 76.5001C160.85 76.4901 160.89 76.4901 160.92 76.4901C161.07 76.5001 161.21 76.4901 161.33 76.4401C161.39 76.4101 161.44 76.3801 161.48 76.3301C161.52 76.2801 161.55 76.2101 161.56 76.1501V76.1301C161.56 76.1301 161.62 76.0501 161.66 76.0601C161.7 76.0601 161.72 76.0901 161.73 76.1201H161.74Z" fill="#5E2B13"/>
<path d="M157.72 89.6901C157.72 92.4201 155.5 94.6401 152.77 94.6401C150.04 94.6401 147.82 92.4201 147.82 89.6901C147.82 86.9601 150.04 84.7401 152.77 84.7401C155.5 84.7401 157.72 86.9601 157.72 89.6901Z" fill="#E9A770"/>
<path d="M151.84 73.87C152.2 77.22 151.17 80.7 149.04 83.32C148.84 81.76 147.64 80.37 146.14 79.88C145.4 79.64 144.53 79.64 143.92 80.11C143.17 80.68 143.03 81.77 143.21 82.69C143.52 84.29 144.63 85.71 146.1 86.39C145.87 87.4 145.3 88.48 144.85 89.41C144.4 90.34 143.7 91.19 142.76 91.63C140.01 88.34 138.43 84.22 138.6 79.94C138.69 77.69 138.06 75.24 138.96 73.17C139.85 71.1 141.46 69.38 143.34 68.14C145.22 66.9 147.37 66.11 149.56 65.6C150.24 65.44 150.94 65.31 151.63 65.35C152.33 65.39 153.03 65.62 153.53 66.11C154.17 66.73 154.39 67.67 154.4 68.57C154.44 70.72 153.52 72.54 151.83 73.88L151.84 73.87Z" fill="#5E2B13"/>
<path d="M144.9 64.65C144.9 64.65 144.01 64.09 144.77 63.46C145.54 62.83 146.98 62.97 146.76 63.96L144.9 64.65Z" fill="#FF814F"/>
<path d="M138.57 81.94C138.57 81.94 134.06 72.61 141.45 66.59C148.84 60.57 160.62 62.52 162.74 70.66L154.42 75.23L138.57 81.93V81.94Z" fill="#FF4846"/>
<path d="M146.1 63.99C146.1 63.99 154.92 68.61 154.22 75.28L164.51 71.05C164.51 71.05 159.97 59.14 146.1 63.99Z" fill="#C42C2B"/>
<path d="M137.33 77.45C137.33 77.45 137.97 76.85 138.85 77.28C139.34 77.52 139.67 78 139.81 78.52L140.08 79.55L138.01 80.46C138.01 80.46 137.31 78.7 137.33 77.44V77.45Z" fill="#5E2B13"/>
<path d="M148.64 77.68C148.64 77.68 163.63 71.57 163.64 69.38C163.64 69.38 170.73 66.5 173.18 69.6C175.63 72.7 146.56 78.56 146.56 78.56L148.64 77.68Z" fill="#FF814F"/>
</g>
<defs>
<radialGradient id="paint0_radial_1_600" cx="0" cy="0" r="1" gradientUnits="userSpaceOnUse" gradientTransform="translate(298.37 335.901) scale(54.03 4.8627)">
<stop offset="0.41" stop-color="#9C9C9C"/>
<stop offset="1" stop-color="white" stop-opacity="0"/>
</radialGradient>
<radialGradient id="paint1_radial_1_600" cx="0" cy="0" r="1" gradientUnits="userSpaceOnUse" gradientTransform="translate(156.8 333.593) scale(52 3.64)">
<stop offset="0.41" stop-color="#9C9C9C"/>
<stop offset="1" stop-color="white" stop-opacity="0"/>
</radialGradient>
<clipPath id="clip0_1_600">
<rect width="474.34" height="355.68" fill="white"/>
</clipPath>
</defs>
</svg>
